<svg width="300" height="50" viewBox="0 0 300 50" fill="none" xmlns="http://www.w3.org/2000/svg">
<path d="M61.1627 33.6704H47.4418C45.1162 33.6704 43.2557 31.8099 43.2557 29.4843C43.2557 27.1588 45.1162 25.2983 47.4418 25.2983H60.6976H60.9301L61.1627 33.6704ZM57.2092 8.08899H40.465V14.1355C41.3952 14.1355 54.8836 14.1355 57.2092 14.1355C59.5348 14.1355 61.3952 15.996 61.3952 18.089V19.4843H47.6743C42.0929 19.4843 37.6743 23.9029 37.6743 29.4843C37.6743 35.0657 42.0929 39.4843 47.6743 39.4843H67.2092V17.8564C67.2092 12.5076 62.7906 8.08899 57.2092 8.08899Z" fill="#FAFAFA"/>
<path d="M107.907 7.85645C113.488 7.85645 117.907 12.275 117.907 17.8564V39.4844H111.86V18.089C111.86 15.7634 110 13.903 107.674 13.903H97.2091V39.4844H91.1626V13.903H81.3952C79.0696 13.903 77.2091 15.7634 77.2091 18.089V39.4844H71.1626V17.8564C71.1626 12.275 75.5812 7.85645 81.1626 7.85645H107.907Z" fill="#FAFAFA"/>
<path d="M130.698 7.85645C126.279 7.85645 122.558 11.5774 122.558 15.996C122.558 19.2518 124.651 22.2751 127.674 23.4378C143.488 28.3216 143.488 28.3216 143.488 28.3216C144.651 28.7867 145.349 29.7169 145.349 30.8797C145.349 32.275 144.186 33.4378 142.791 33.4378H122.558V39.4844H142.791C147.442 39.4844 151.395 35.5309 151.395 30.8797C151.395 27.3913 149.302 24.1355 146.046 22.9727L139.302 20.8797L130 17.8564C129.07 17.6239 128.605 16.6937 128.605 15.996C128.605 14.8332 129.535 13.903 130.698 13.903H148.14V7.85645H130.698Z" fill="#FAFAFA"/>
<path d="M203.953 31.3448V23.2053V17.8564C203.953 12.275 208.372 7.85645 213.953 7.85645H224.186C229.767 7.85645 234.186 12.275 234.186 17.8564V23.903C234.186 23.903 234.186 38.7867 234.186 39.2518H228.139C228.139 38.5541 228.139 17.8564 228.139 17.8564C228.139 15.5309 226.279 13.6704 223.953 13.6704H213.721C211.395 13.6704 209.535 15.5309 209.535 17.8564V39.2518H203.488C204.186 38.7867 203.953 31.3448 203.953 31.3448Z" fill="#FAFAFA"/>
<path d="M255.582 1.57727V7.62378C255.582 7.62378 264.419 7.62378 265.116 7.62378V13.6703H255.582V29.2517C255.582 31.5773 257.442 33.4377 259.768 33.4377H268.14V39.4842H259.768C254.186 39.4842 249.768 35.0656 249.768 29.4842V23.4377C249.768 23.4377 249.768 4.83308 249.768 2.04239L255.582 1.57727Z" fill="#FAFAFA"/>
<path d="M245.088 7.61831L239.041 7.62939L239.099 39.2573L245.146 39.2462L245.088 7.61831Z" fill="#FAFAFA"/>
<path d="M294.186 19.9495H277.442V17.8565C277.442 15.5309 279.302 13.6704 281.628 13.6704H290.233C292.558 13.6704 294.419 15.5309 294.419 17.8565L294.186 19.9495ZM300 17.6239C300 12.0425 295.582 7.6239 290 7.6239H281.396C275.814 7.6239 271.396 12.0425 271.396 17.6239V29.0192C271.396 34.6006 275.814 39.0192 281.396 39.0192H296.977V32.9727H281.396C279.07 32.9727 277.209 31.1123 277.209 28.7867V25.5309C277.209 25.5309 299.302 25.5309 300 25.5309V17.6239Z" fill="#FAFAFA"/>
<path d="M24.186 33.6704C26.2791 33.6704 28.1395 31.8099 28.1395 29.7169C28.1395 28.089 26.9767 26.4611 25.5814 25.996L5.81395 19.9495C2.32558 18.5541 0 15.0657 0 11.3448C0 6.22853 4.18605 2.04248 9.30232 2.04248H30.9302V8.08899H9.30232C7.67442 8.08899 6.04651 9.48434 6.04651 11.3448C6.04651 12.7402 6.97674 13.9029 8.13953 14.3681L18.1395 17.6239L27.6744 20.6471C31.3953 22.0425 33.9535 25.7634 33.9535 29.7169C33.9535 35.0657 29.5349 39.7169 24.186 39.7169H0V33.6704H24.186Z" fill="#FAFAFA"/>
<path d="M179.302 35.0657C175.581 39.0192 170.232 40.6471 165.349 39.9494C166.046 41.1122 166.977 42.5076 168.139 43.4378C173.721 48.5541 182.558 48.3215 187.674 42.7401C192.79 37.1587 192.558 28.3215 186.977 23.2052C185.814 22.275 184.651 21.3448 183.256 20.6471C184.186 25.7634 183.023 31.1122 179.302 35.0657Z" fill="#FAFAFA"/>
<path d="M188.605 21.5774C192.558 25.2983 194.186 30.6472 193.488 35.5309C194.651 34.8332 196.046 33.903 196.977 32.7402C202.093 27.1588 201.86 18.3216 196.279 13.2053C190.698 7.85647 182.093 8.32159 176.744 13.903C175.814 15.0658 174.884 16.2286 174.186 17.6239C179.302 16.4611 184.651 17.8565 188.605 21.5774Z" fill="#FAFAFA"/>
<path d="M175.116 12.0425C178.837 8.08898 184.186 6.46107 189.07 7.15874C188.372 5.99595 187.442 4.60061 186.279 3.67037C180.698 -1.4459 171.86 -1.21335 166.744 4.36805C161.628 9.94944 161.86 18.7866 167.442 23.9029C168.605 24.8332 169.767 25.7634 171.163 26.4611C170 21.3448 171.395 15.996 175.116 12.0425Z" fill="#FAFAFA"/>
<path d="M165.814 25.7634C161.86 22.0425 160.233 16.6937 160.93 11.8099C159.767 12.5076 158.372 13.4378 157.442 14.6006C152.326 20.182 152.558 29.0192 158.14 34.1355C163.721 39.2518 172.558 39.0192 177.674 33.4378C178.837 32.2751 179.535 31.1123 180.233 29.7169C175.116 30.6471 169.767 29.4844 165.814 25.7634Z" fill="#FAFAFA"/>
</svg>
