<svg width="180" height="116" viewBox="0 0 180 116" fill="none" xmlns="http://www.w3.org/2000/svg">
<rect y="0.314453" width="18.5143" height="18.5143" rx="9.25715" fill="#FDC731"/>
<rect x="20.0571" y="18.8286" width="18.5143" height="18.5143" rx="9.25715" transform="rotate(-90 20.0571 18.8286)" fill="#2A4B9C"/>
<rect x="18.5144" y="20.3716" width="18.5143" height="18.5143" rx="9.25715" transform="rotate(90 18.5144 20.3716)" fill="#DE4037"/>
<rect x="38.5715" y="38.8857" width="18.5143" height="18.5143" rx="9.25715" transform="rotate(-180 38.5715 38.8857)" fill="#00964F"/>
<mask id="mask0_7_1661" style="mask-type:alpha" maskUnits="userSpaceOnUse" x="20" y="20" width="19" height="19">
<rect x="38.5715" y="38.8857" width="18.5143" height="18.5143" rx="9.25715" transform="rotate(-180 38.5715 38.8857)" fill="#00964F"/>
</mask>
<g mask="url(#mask0_7_1661)">
</g>
<path d="M28.4441 76.6089H21.8166V63.1469C21.857 61.102 21.9378 58.7806 22.0533 56.1826H21.8166C20.5177 64.1723 20.4772 64.4891 19.7267 67.519L17.3598 76.6089H10.7726L8.48648 67.7552C7.77639 65.0421 7.5801 63.8209 7.26258 61.4994L6.5929 55.9522H6.31579C6.47166 58.314 6.63331 61.7011 6.63331 63.4292V76.6147H0V50.3589H10.4955L12.7817 61.0271C13.4514 64.5294 13.8093 67.3232 14.0806 71.223H14.3173C14.6348 67.1273 14.987 64.2932 15.6163 60.8716L17.787 50.3646H28.4384V76.6204L28.4441 76.6089Z" fill="#FAFAFA"/>
<path d="M37.0809 67.7894C37.2772 70.779 39.3266 72.3574 42.8771 72.3574C46.0754 72.3574 48.1999 71.2917 49.7818 68.93H50.0589V73.8493C47.6919 76.3263 45.0478 77.3919 41.3415 77.3919C34.4368 77.3919 30.2571 72.824 30.2571 65.3067C30.2571 57.7894 34.3214 53.7744 41.3011 53.7744C47.6919 53.7744 51.2828 57.7491 51.2828 64.8343C51.2828 65.9346 51.2424 66.5682 51.0461 67.7836H37.0809V67.7894ZM46.3525 62.9104C45.8387 60.468 44.4185 59.4081 41.659 59.4081C38.8994 59.4081 37.2426 60.6293 37.1213 62.9104H46.3525Z" fill="#FAFAFA"/>
<path d="M53.1357 49.1719H60.5542V76.6028H53.1357V49.1719Z" fill="#FAFAFA"/>
<path d="M83.9814 65.2318C83.9814 68.8551 82.8787 72.3171 81.1006 74.3217C79.3282 76.3263 76.4474 77.3919 72.8566 77.3919C69.2657 77.3919 66.8237 76.4472 65.1668 74.5982C63.3136 72.5532 62.2109 69.0855 62.2109 65.1915C62.2109 57.6339 65.9577 53.7744 73.2953 53.7744C80.633 53.7744 83.9871 57.5935 83.9871 65.226L83.9814 65.2318ZM68.9539 65.9806C68.9539 69.6788 70.4549 71.7641 73.0933 71.7641C75.7316 71.7641 77.273 69.5578 77.273 65.779C77.273 62.4323 75.9336 60.7387 73.2087 60.7387C70.4838 60.7387 68.9482 62.5475 68.9482 65.9749L68.9539 65.9806Z" fill="#FAFAFA"/>
<path d="M106.982 76.6085H100.158V75.9C100.158 75.2318 100.239 74.483 100.516 72.9507H100.279C98.6224 76.1016 96.6884 77.3977 93.6113 77.3977C91.3656 77.3977 89.2353 76.453 87.6939 74.7998C85.9966 72.991 84.9343 69.3677 84.9343 65.5889C84.9343 61.2571 86.1582 57.559 88.2481 55.7502C89.7087 54.4541 91.5215 53.7802 93.5709 53.7802C96.5267 53.7802 98.224 54.8804 99.6096 57.7145H99.8059C99.6096 56.2168 99.5692 55.9058 99.5692 55.0763V49.1719H106.988V76.6028L106.982 76.6085ZM92.0295 66.0958C92.0295 69.4023 93.3688 71.2514 95.8571 71.2514C98.3453 71.2514 100.233 68.9703 100.233 65.6638C100.233 62.5935 98.6917 60.7445 96.1688 60.7445C93.646 60.7445 92.0295 62.6742 92.0295 66.0958Z" fill="#FAFAFA"/>
<path d="M120.826 81.8388H113.725L116.172 75.0704L107.928 54.5635H115.382L117.356 59.9955C118.499 63.3423 119.29 66.9598 119.567 70.3066H119.723C120 66.5278 120.629 63.0255 121.536 59.9955L123.233 54.5635H130.415L120.831 81.8388H120.826Z" fill="#FAFAFA"/>
<path d="M28.4441 110.146H21.8166V96.684C21.857 94.6391 21.9378 92.3177 22.0533 89.7197H21.8166C20.5177 97.7094 20.4772 98.0262 19.7267 101.056L17.3598 110.146H10.7726L8.48648 101.292C7.77639 98.5792 7.5801 97.358 7.26258 95.0366L6.5929 89.4893H6.31579C6.47166 91.8511 6.63331 95.2382 6.63331 96.9663V110.152H0V83.896H10.4955L12.7817 94.5642C13.4514 98.0665 13.8093 100.86 14.0806 104.76H14.3173C14.6348 100.664 14.987 97.8303 15.6163 94.4087L17.787 83.9018H28.4384V110.158L28.4441 110.146Z" fill="#FAFAFA"/>
<path d="M43.945 110.146L43.9854 109.086C43.9854 108.337 44.0258 108.101 44.1817 106.644H43.945C43.3562 107.98 42.9174 108.649 42.0919 109.282C40.7525 110.342 38.934 110.935 37.0808 110.935C33.1782 110.935 30.4128 108.418 30.4128 104.875C30.4128 102.669 31.5155 100.665 33.2936 99.6393C34.835 98.7349 37.0808 98.0264 40.002 97.5541C42.6057 97.1624 43.6333 96.4941 43.6333 95.3133C43.6333 94.1324 42.0919 93.1877 39.9674 93.1877C38.3509 93.1877 36.5323 93.6197 34.8812 94.3686C33.4206 95.0368 32.6297 95.6301 31.4866 96.8859V90.6646C34.327 88.3432 37.2482 87.3179 41.1508 87.3179C44.3087 87.3179 46.947 88.2626 48.4481 89.9158C49.6315 91.2119 50.0241 92.7096 50.0241 95.7799V110.146H43.9508H43.945ZM40.2387 101.609C37.9525 102.318 37.1212 102.986 37.1212 104.288C37.1212 105.59 38.068 106.414 39.4478 106.414C42.1323 106.414 43.6275 104.207 43.6275 100.273C43.0329 100.705 42.2881 100.981 40.2329 101.609H40.2387Z" fill="#FAFAFA"/>
<path d="M52.5065 88.107H59.4112V91.0967C59.4112 92.0011 59.3707 92.5944 59.134 94.0863H59.4112C59.8441 91.8052 60.3175 90.7799 61.4606 89.599C62.8808 88.1013 64.7744 87.3179 67.0201 87.3179C69.543 87.3179 71.6733 88.3432 72.7817 90.0713C73.8093 91.6842 73.9248 92.2775 73.9248 96.6842V110.146H66.5063V99.4031C66.5063 96.8455 66.4255 96.1773 66.0733 95.5034C65.6808 94.7948 64.6936 94.2822 63.6659 94.2822C62.2458 94.2822 60.9814 95.1059 60.3926 96.3674C60.0404 97.1566 59.9192 98.0206 59.9192 99.7891V110.14H52.5007V88.1013L52.5065 88.107Z" fill="#FAFAFA"/>
<path d="M97.5542 104.443C97.5542 109.282 97.1616 111.016 95.6202 112.669C93.8825 114.599 90.6495 115.618 86.3139 115.618C82.6076 115.618 80.281 115.025 77.7928 113.412V108.136C80.2002 109.829 82.648 110.613 85.4826 110.613C88.3172 110.613 90.2569 109.472 90.7303 107.266C90.7842 107.028 90.8766 106.411 91.0075 105.417C91.0883 104.985 91.0883 104.904 91.2442 104.196H90.9266C90.2974 105.768 89.8644 106.477 89.0735 107.07C88.0054 107.894 86.2735 108.406 84.4954 108.406C81.9321 108.406 79.6055 107.347 78.0237 105.457C76.5631 103.723 75.6567 100.693 75.6567 97.4675C75.6567 93.9652 76.719 91.0505 78.6126 89.3569C80.154 88.0205 82.1226 87.312 84.2933 87.312C87.6475 87.312 89.697 88.7291 90.6842 91.7187H90.9209L90.6842 88.0954H97.5484V104.432L97.5542 104.443ZM82.7981 98.5735C82.7981 101.523 84.2991 103.378 86.6661 103.378C89.033 103.378 90.6495 101.488 90.6495 98.3777C90.6495 96.8051 90.332 95.7798 89.5873 95.0309C88.9176 94.3627 87.8149 93.9307 86.7873 93.9307C84.2645 93.9307 82.8038 95.6242 82.8038 98.5735H82.7981Z" fill="#FAFAFA"/>
<path d="M100.233 88.1067H107.016L106.543 94.9154H106.739C107.212 92.0007 107.645 90.7449 108.713 89.3682C109.741 88.0318 111.04 87.3232 112.541 87.3232C113.765 87.3232 114.787 87.6804 115.895 88.4638L115.537 96.2576H115.26C114.232 95.1977 113.522 94.8405 112.264 94.8405C110.924 94.8405 109.62 95.4684 108.91 96.4938C107.807 98.0663 107.368 100.468 107.368 105.192C107.368 106.649 107.409 108.107 107.489 110.152H100.233V88.1124V88.1067Z" fill="#FAFAFA"/>
<path d="M137.827 98.7753C137.827 102.399 136.725 105.861 134.947 107.865C133.174 109.87 130.293 110.935 126.703 110.935C123.112 110.935 120.67 109.991 119.013 108.142C117.16 106.097 116.057 102.629 116.057 98.7349C116.057 91.1773 119.804 87.3179 127.141 87.3179C134.479 87.3179 137.833 91.137 137.833 98.7695L137.827 98.7753ZM122.8 99.5241C122.8 103.222 124.301 105.308 126.939 105.308C129.578 105.308 131.119 103.101 131.119 99.3225C131.119 95.9757 129.78 94.2822 127.055 94.2822C124.33 94.2822 122.794 96.0909 122.794 99.5183L122.8 99.5241Z" fill="#FAFAFA"/>
<path d="M152.658 110.146H144.374L137.233 88.1069H144.726L146.937 95.7452C147.728 98.539 148.04 100.388 148.438 104.916H148.635C148.912 101.529 149.425 98.3834 150.136 95.7452L152.266 88.1069H159.644L152.664 110.146H152.658Z" fill="#FAFAFA"/>
<path d="M165.798 101.332C165.994 104.322 168.044 105.9 171.594 105.9C174.793 105.9 176.917 104.841 178.499 102.479H178.776V107.398C176.409 109.875 173.765 110.941 170.059 110.941C163.154 110.941 158.974 106.373 158.974 98.8555C158.974 91.3382 163.039 87.3232 170.018 87.3232C176.409 87.3232 180 91.2979 180 98.3832C180 99.4834 179.96 100.117 179.763 101.332H165.798ZM175.064 96.4534C174.55 94.011 173.13 92.9511 170.37 92.9511C167.611 92.9511 165.954 94.1723 165.833 96.4534H175.064Z" fill="#FAFAFA"/>
</svg>
