<svg width="350" height="225" viewBox="0 0 350 225" fill="none" xmlns="http://www.w3.org/2000/svg">
<rect width="36" height="36" rx="18" fill="#FDC731"/>
<rect x="39" y="36" width="36" height="36" rx="18" transform="rotate(-90 39 36)" fill="#2A4B9C"/>
<rect x="36" y="39" width="36" height="36" rx="18" transform="rotate(90 36 39)" fill="#DE4037"/>
<rect x="75" y="75" width="36" height="36" rx="18" transform="rotate(-180 75 75)" fill="#00964F"/>
<mask id="mask0_2_6645" style="mask-type:alpha" maskUnits="userSpaceOnUse" x="39" y="39" width="36" height="36">
<rect x="75" y="75" width="36" height="36" rx="18" transform="rotate(-180 75 75)" fill="#00964F"/>
</mask>
<g mask="url(#mask0_2_6645)">
</g>
<path d="M55.3081 148.349H42.4212V122.173C42.4998 118.197 42.6569 113.683 42.8814 108.632H42.4212C39.8954 124.167 39.8169 124.783 38.3575 130.674L33.7551 148.349H20.9468L16.5015 131.134C15.1208 125.858 14.7391 123.484 14.1217 118.97L12.8195 108.184H12.2807C12.5838 112.776 12.8981 119.362 12.8981 122.722V148.36H0V97.3076H20.408L24.8533 118.051C26.1554 124.861 26.8514 130.294 27.379 137.877H27.8392C28.4567 129.913 29.1414 124.402 30.365 117.749L34.5858 97.3188H55.2968V148.372L55.3081 148.349Z" fill="#FAFAFA"/>
<path d="M72.1016 131.201C72.4832 137.014 76.4683 140.083 83.372 140.083C89.5909 140.083 93.7219 138.011 96.7977 133.418H97.3365V142.984C92.734 147.8 87.5928 149.872 80.386 149.872C66.9603 149.872 58.833 140.99 58.833 126.373C58.833 111.756 66.7358 103.949 80.3074 103.949C92.734 103.949 99.7163 111.678 99.7163 125.455C99.7163 127.594 99.6377 128.826 99.2561 131.189H72.1016V131.201ZM90.1297 121.714C89.1306 116.964 86.3692 114.904 81.0034 114.904C75.6376 114.904 72.4159 117.278 72.1801 121.714H90.1297Z" fill="#FAFAFA"/>
<path d="M103.319 95H117.744V148.338H103.319V95Z" fill="#FAFAFA"/>
<path d="M163.297 126.227C163.297 133.273 161.153 140.004 157.696 143.902C154.249 147.8 148.648 149.872 141.666 149.872C134.683 149.872 129.935 148.035 126.713 144.44C123.11 140.464 120.966 133.721 120.966 126.149C120.966 111.454 128.251 103.949 142.519 103.949C156.786 103.949 163.308 111.375 163.308 126.216L163.297 126.227ZM134.077 127.684C134.077 134.874 136.996 138.929 142.126 138.929C147.256 138.929 150.253 134.639 150.253 127.291C150.253 120.784 147.649 117.491 142.35 117.491C137.052 117.491 134.066 121.008 134.066 127.672L134.077 127.684Z" fill="#FAFAFA"/>
<path d="M208.02 148.349H194.752V146.971C194.752 145.672 194.909 144.216 195.448 141.236H194.987C191.766 147.363 188.005 149.883 182.022 149.883C177.655 149.883 173.513 148.047 170.516 144.832C167.215 141.315 165.15 134.27 165.15 126.922C165.15 118.499 167.53 111.308 171.593 107.791C174.433 105.271 177.958 103.961 181.943 103.961C187.691 103.961 190.991 106.1 193.685 111.611H194.067C193.685 108.698 193.607 108.094 193.607 106.481V95H208.031V148.338L208.02 148.349ZM178.946 127.908C178.946 134.337 181.55 137.932 186.389 137.932C191.227 137.932 194.897 133.497 194.897 127.068C194.897 121.098 191.9 117.502 186.995 117.502C182.089 117.502 178.946 121.254 178.946 127.908Z" fill="#FAFAFA"/>
<path d="M234.939 158.519H221.131L225.891 145.358L209.861 105.483H224.353L228.192 116.046C230.415 122.553 231.953 129.587 232.491 136.095H232.795C233.333 128.747 234.557 121.937 236.319 116.046L239.62 105.483H253.584L234.95 158.519H234.939Z" fill="#FAFAFA"/>
<path d="M55.3081 213.561H42.4212V187.385C42.4998 183.409 42.6569 178.895 42.8814 173.843H42.4212C39.8954 189.379 39.8169 189.995 38.3575 195.886L33.7551 213.561H20.9468L16.5015 196.346C15.1208 191.07 14.7391 188.696 14.1217 184.182L12.8195 173.395H12.2807C12.5838 177.988 12.8981 184.574 12.8981 187.934V213.572H0V162.52H20.408L24.8533 183.263C26.1554 190.073 26.8514 195.506 27.379 203.088H27.8392C28.4567 195.125 29.1414 189.614 30.365 182.961L34.5858 162.531H55.2968V213.584L55.3081 213.561Z" fill="#FAFAFA"/>
<path d="M85.4488 213.561L85.5274 211.5C85.5274 210.044 85.606 209.585 85.9091 206.751H85.4488C84.3038 209.35 83.4507 210.649 81.8454 211.881C79.2411 213.942 75.7051 215.096 72.1017 215.096C64.5132 215.096 59.1362 210.201 59.1362 203.313C59.1362 199.023 61.2803 195.125 64.7378 193.131C67.735 191.373 72.1017 189.995 77.7818 189.076C82.8445 188.315 84.8426 187.016 84.8426 184.719C84.8426 182.423 81.8454 180.586 77.7144 180.586C74.5713 180.586 71.0353 181.426 67.8248 182.883C64.9847 184.182 63.4468 185.335 61.2242 187.777V175.68C66.7471 171.167 72.4272 169.173 80.0157 169.173C86.156 169.173 91.2861 171.01 94.2047 174.224C96.5059 176.745 97.2693 179.657 97.2693 185.627V213.561H85.46H85.4488ZM78.242 196.962C73.7967 198.339 72.1803 199.639 72.1803 202.17C72.1803 204.701 74.0212 206.303 76.7041 206.303C81.924 206.303 84.8314 202.013 84.8314 194.363C83.6752 195.203 82.2271 195.741 78.2308 196.962H78.242Z" fill="#FAFAFA"/>
<path d="M102.096 170.707H115.521V176.521C115.521 178.279 115.443 179.433 114.983 182.334H115.521C116.363 177.898 117.284 175.904 119.506 173.608C122.268 170.696 125.95 169.173 130.317 169.173C135.222 169.173 139.364 171.167 141.52 174.527C143.518 177.663 143.742 178.817 143.742 187.385V213.561H129.318V192.672C129.318 187.699 129.16 186.4 128.476 185.089C127.712 183.711 125.793 182.714 123.795 182.714C121.033 182.714 118.575 184.316 117.43 186.769C116.745 188.304 116.509 189.984 116.509 193.422V213.55H102.084V170.696L102.096 170.707Z" fill="#FAFAFA"/>
<path d="M189.689 202.472C189.689 211.881 188.925 215.252 185.928 218.467C182.549 222.219 176.263 224.201 167.833 224.201C160.626 224.201 156.102 223.048 151.264 219.911V209.652C155.945 212.945 160.704 214.468 166.216 214.468C171.728 214.468 175.5 212.25 176.42 207.96C176.525 207.497 176.705 206.299 176.959 204.365C177.116 203.525 177.116 203.368 177.419 201.99H176.802C175.578 205.048 174.736 206.426 173.198 207.58C171.122 209.181 167.754 210.178 164.297 210.178C159.312 210.178 154.789 208.117 151.713 204.443C148.873 201.072 147.11 195.18 147.11 188.908C147.11 182.098 149.176 176.43 152.858 173.137C155.855 170.539 159.683 169.161 163.904 169.161C170.426 169.161 174.411 171.916 176.33 177.73H176.791L176.33 170.684H189.677V202.45L189.689 202.472ZM160.996 191.058C160.996 196.793 163.915 200.4 168.517 200.4C173.12 200.4 176.263 196.726 176.263 190.678C176.263 187.62 175.646 185.626 174.197 184.17C172.895 182.871 170.751 182.031 168.753 182.031C163.848 182.031 161.008 185.324 161.008 191.058H160.996Z" fill="#FAFAFA"/>
<path d="M194.897 170.707H208.087L207.166 183.946H207.548C208.469 178.279 209.311 175.837 211.387 173.16C213.385 170.561 215.911 169.184 218.83 169.184C221.21 169.184 223.196 169.878 225.352 171.401L224.656 186.556H224.117C222.119 184.495 220.738 183.801 218.291 183.801C215.687 183.801 213.15 185.021 211.769 187.015C209.625 190.073 208.772 194.744 208.772 203.928C208.772 206.762 208.85 209.596 209.007 213.572H194.897V170.718V170.707Z" fill="#FAFAFA"/>
<path d="M267.997 191.451C267.997 198.496 265.853 205.228 262.396 209.126C258.95 213.024 253.348 215.096 246.366 215.096C239.384 215.096 234.635 213.259 231.413 209.663C227.81 205.687 225.666 198.944 225.666 191.373C225.666 176.677 232.951 169.173 247.219 169.173C261.487 169.173 268.009 176.599 268.009 191.44L267.997 191.451ZM238.777 192.907C238.777 200.098 241.696 204.153 246.826 204.153C251.956 204.153 254.953 199.863 254.953 192.515C254.953 186.008 252.349 182.714 247.051 182.714C241.752 182.714 238.766 186.232 238.766 192.896L238.777 192.907Z" fill="#FAFAFA"/>
<path d="M296.836 213.561H280.727L266.841 170.707H281.412L285.711 185.559C287.249 190.992 287.855 194.587 288.63 203.391H289.012C289.55 196.805 290.55 190.689 291.93 185.559L296.073 170.707H310.419L296.847 213.561H296.836Z" fill="#FAFAFA"/>
<path d="M322.385 196.424C322.767 202.237 326.752 205.306 333.656 205.306C339.875 205.306 344.006 203.245 347.081 198.653H347.62V208.218C343.018 213.034 337.876 215.106 330.67 215.106C317.244 215.106 309.117 206.224 309.117 191.607C309.117 176.99 317.019 169.184 330.591 169.184C343.018 169.184 350 176.912 350 190.689C350 192.828 349.921 194.06 349.54 196.424H322.385ZM340.402 186.937C339.403 182.188 336.642 180.127 331.276 180.127C325.91 180.127 322.688 182.501 322.453 186.937H340.402Z" fill="#FAFAFA"/>
</svg>
