<svg width="450" height="48" viewBox="0 0 450 48" fill="none" xmlns="http://www.w3.org/2000/svg">
<path d="M21.145 38.602C18.3526 38.602 15.7621 38.1642 13.3733 37.2883C11.0183 36.3789 8.96602 35.0988 7.21656 33.4483C5.50073 31.7979 4.15499 29.861 3.17932 27.6378C2.20365 25.381 1.71582 22.9052 1.71582 20.2104C1.71582 17.5157 2.20365 15.0567 3.17932 12.8336C4.15499 10.5768 5.50073 8.62305 7.21656 6.97253C8.96602 5.32202 11.0183 4.05886 13.3733 3.18306C15.7621 2.27358 18.3526 1.81885 21.145 1.81885C24.4085 1.81885 27.3187 2.39148 29.8756 3.53674C32.4662 4.682 34.6193 6.33254 36.3351 8.48832L29.9765 14.2483C28.8327 12.901 27.5711 11.8736 26.1916 11.1662C24.8458 10.4589 23.3319 10.1052 21.6497 10.1052C20.203 10.1052 18.8741 10.3409 17.6629 10.8125C16.4517 11.2841 15.4088 11.9746 14.5341 12.8841C13.693 13.7599 13.0201 14.821 12.5154 16.0673C12.0444 17.3136 11.8089 18.6946 11.8089 20.2104C11.8089 21.7262 12.0444 23.1073 12.5154 24.3536C13.0201 25.5998 13.693 26.6778 14.5341 27.5873C15.4088 28.4631 16.4517 29.1367 17.6629 29.6083C18.8741 30.08 20.203 30.3157 21.6497 30.3157C23.3319 30.3157 24.8458 29.962 26.1916 29.2546C27.5711 28.5473 28.8327 27.5198 29.9765 26.1725L36.3351 31.9325C34.6193 34.0546 32.4662 35.7051 29.8756 36.8841C27.3187 38.0293 24.4085 38.602 21.145 38.602ZM57.8655 38.602C55.0394 38.602 52.4319 38.1473 50.0433 37.2378C47.6546 36.3283 45.5686 35.0482 43.7856 33.3978C42.036 31.7135 40.6734 29.7599 39.6979 27.5367C38.7222 25.3136 38.2344 22.8715 38.2344 20.2104C38.2344 17.5494 38.7222 15.1073 39.6979 12.8841C40.6734 10.661 42.036 8.72411 43.7856 7.07359C45.5686 5.38937 47.6546 4.09253 50.0433 3.18306C52.4319 2.27358 55.0394 1.81885 57.8655 1.81885C60.7251 1.81885 63.3324 2.27358 65.6876 3.18306C68.0762 4.09253 70.1453 5.38937 71.8949 7.07359C73.6443 8.72411 75.0068 10.661 75.9826 12.8841C76.9919 15.1073 77.4966 17.5494 77.4966 20.2104C77.4966 22.8715 76.9919 25.3305 75.9826 27.5873C75.0068 29.8104 73.6443 31.7474 71.8949 33.3978C70.1453 35.0482 68.0762 36.3283 65.6876 37.2378C63.3324 38.1473 60.7251 38.602 57.8655 38.602ZM57.8655 30.3157C59.2111 30.3157 60.4559 30.08 61.5999 29.6083C62.7773 29.1367 63.7866 28.4631 64.6279 27.5873C65.5024 26.6778 66.1754 25.5998 66.6465 24.3536C67.1511 23.1073 67.4035 21.7262 67.4035 20.2104C67.4035 18.661 67.1511 17.2799 66.6465 16.0673C66.1754 14.821 65.5024 13.7599 64.6279 12.8841C63.7866 11.9746 62.7773 11.2841 61.5999 10.8125C60.4559 10.3409 59.2111 10.1052 57.8655 10.1052C56.5196 10.1052 55.2579 10.3409 54.0806 10.8125C52.9365 11.2841 51.9272 11.9746 51.0526 12.8841C50.2114 13.7599 49.5387 14.821 49.034 16.0673C48.5629 17.2799 48.3275 18.661 48.3275 20.2104C48.3275 21.7262 48.5629 23.1073 49.034 24.3536C49.5387 25.5998 50.2114 26.6778 51.0526 27.5873C51.9272 28.4631 52.9365 29.1367 54.0806 29.6083C55.2579 30.08 56.5196 30.3157 57.8655 30.3157ZM91.9146 16.2189H108.316V23.6967H91.9146V16.2189ZM92.6211 30.1641H111.091V37.8946H82.7298V2.52622H110.435V10.2567H92.6211V30.1641ZM112.707 37.8946L128.15 16.421L128.099 23.5452L113.262 2.52622H124.516L134.004 16.2189L129.209 16.2694L138.545 2.52622H149.345L134.508 23.141V16.0673L150.152 37.8946H138.646L129.007 23.4946H133.6L124.112 37.8946H112.707ZM147.388 37.8946L162.982 2.52622H172.823L188.467 37.8946H178.071L165.858 7.42727H169.795L157.582 37.8946H147.388ZM155.917 31.0231L158.49 23.6462H175.75L178.323 31.0231H155.917ZM208.621 38.602C205.795 38.602 203.188 38.1473 200.799 37.2378C198.41 36.3283 196.324 35.0482 194.541 33.3978C192.792 31.7135 191.429 29.7599 190.454 27.5367C189.478 25.3136 188.99 22.8715 188.99 20.2104C188.99 17.5494 189.478 15.1073 190.454 12.8841C191.429 10.661 192.792 8.72411 194.541 7.07359C196.324 5.38937 198.41 4.09253 200.799 3.18306C203.188 2.27358 205.795 1.81885 208.621 1.81885C211.481 1.81885 214.088 2.27358 216.443 3.18306C218.832 4.09253 220.901 5.37254 222.651 7.02306C224.4 8.67358 225.763 10.6273 226.738 12.8841C227.748 15.1073 228.252 17.5494 228.252 20.2104C228.252 22.8715 227.748 25.3305 226.738 27.5873C225.763 29.8104 224.4 31.7474 222.651 33.3978C220.901 35.0482 218.832 36.3283 216.443 37.2378C214.088 38.1473 211.481 38.602 208.621 38.602ZM220.178 46.4336C218.664 46.4336 217.251 46.2651 215.939 45.9283C214.627 45.6252 213.331 45.1199 212.053 44.4125C210.808 43.7052 209.496 42.7452 208.117 41.5325C206.771 40.3199 205.257 38.821 203.575 37.0357L214.021 34.4083C214.862 35.6546 215.619 36.6315 216.292 37.3389C216.965 38.0462 217.621 38.5515 218.26 38.8546C218.933 39.1578 219.639 39.3094 220.38 39.3094C222.331 39.3094 224.114 38.484 225.729 36.8336L230.069 41.9873C227.613 44.9514 224.316 46.4336 220.178 46.4336ZM208.621 30.3157C209.967 30.3157 211.212 30.08 212.356 29.6083C213.533 29.1367 214.542 28.4631 215.384 27.5873C216.258 26.6778 216.931 25.5998 217.402 24.3536C217.907 23.1073 218.159 21.7262 218.159 20.2104C218.159 18.661 217.907 17.2799 217.402 16.0673C216.931 14.821 216.258 13.7599 215.384 12.8841C214.542 11.9746 213.533 11.2841 212.356 10.8125C211.212 10.3409 209.967 10.1052 208.621 10.1052C207.275 10.1052 206.014 10.3409 204.836 10.8125C203.692 11.2841 202.683 11.9746 201.808 12.8841C200.967 13.7599 200.294 14.821 199.79 16.0673C199.319 17.2799 199.083 18.661 199.083 20.2104C199.083 21.7262 199.319 23.1073 199.79 24.3536C200.294 25.5998 200.967 26.6778 201.808 27.5873C202.683 28.4631 203.692 29.1367 204.836 29.6083C206.014 30.08 207.275 30.3157 208.621 30.3157ZM249.786 38.602C244.571 38.602 240.5 37.1703 237.573 34.3073C234.646 31.4442 233.183 27.3852 233.183 22.1304V2.52622H243.175V21.8273C243.175 24.8589 243.764 27.0315 244.941 28.3452C246.152 29.6589 247.801 30.3157 249.887 30.3157C251.973 30.3157 253.604 29.6589 254.783 28.3452C255.958 27.0315 256.549 24.8589 256.549 21.8273V2.52622H266.39V22.1304C266.39 27.3852 264.926 31.4442 261.999 34.3073C259.072 37.1703 255 38.602 249.786 38.602ZM268.179 37.8946L283.775 2.52622H293.616L309.26 37.8946H298.864L286.652 7.42727H290.588L278.375 37.8946H268.179ZM276.71 31.0231L279.284 23.6462H296.543L299.117 31.0231H276.71ZM312.091 37.8946V2.52622H328.24C331.47 2.52622 334.246 3.04833 336.567 4.09253C338.921 5.13674 340.738 6.65253 342.017 8.6399C343.297 10.5936 343.935 12.9178 343.935 15.6125C343.935 18.2736 343.297 20.581 342.017 22.5346C340.738 24.4546 338.921 25.9368 336.567 26.981C334.246 27.9915 331.47 28.4967 328.24 28.4967H317.642L322.083 24.3031V37.8946H312.091ZM333.943 37.8946L325.162 25.0104H335.81L344.641 37.8946H333.943ZM322.083 25.3641L317.642 20.7662H327.635C329.721 20.7662 331.268 20.3115 332.277 19.402C333.32 18.4925 333.842 17.2294 333.842 15.6125C333.842 13.962 333.32 12.682 332.277 11.7725C331.268 10.8631 329.721 10.4083 327.635 10.4083H317.642L322.083 5.81043V25.3641ZM349.448 37.8946V2.52622H359.44V37.8946H349.448ZM382.849 38.602C377.636 38.602 373.563 37.1703 370.636 34.3073C367.709 31.4442 366.246 27.3852 366.246 22.1304V2.52622H376.238V21.8273C376.238 24.8589 376.828 27.0315 378.004 28.3452C379.215 29.6589 380.866 30.3157 382.95 30.3157C385.037 30.3157 386.669 29.6589 387.845 28.3452C389.023 27.0315 389.611 24.8589 389.611 21.8273V2.52622H399.452V22.1304C399.452 27.3852 397.989 31.4442 395.062 34.3073C392.135 37.1703 388.064 38.602 382.849 38.602ZM406.222 37.8946V2.52622H414.448L429.083 26.5767H424.743L438.974 2.52622H447.2L447.301 37.8946H438.116L438.015 16.522H439.58L428.931 34.4083H424.49L413.539 16.522H415.457V37.8946H406.222Z" fill="white"/>
</svg>
