<svg width="323" height="120" viewBox="0 0 323 120" fill="none" xmlns="http://www.w3.org/2000/svg">
<path d="M45.6705 77.1602H34.9204V119.7H45.6705V77.1602Z" fill="#2EA83D"/>
<path d="M40.2631 69.441L32.6616 77.0425L62.7417 107.123L70.3432 99.5211L40.2631 69.441Z" fill="#2EA83D"/>
<path d="M40.0801 69.4453L10 99.5254L17.6015 107.127L47.6816 77.0468L40.0801 69.4453Z" fill="#2EA83D"/>
<path d="M45.6705 42.4395H34.9204V84.9791H45.6705V42.4395Z" fill="#2EA83D"/>
<path d="M40.2631 34.7208L32.6616 42.3223L62.7417 72.4024L70.3432 64.8009L40.2631 34.7208Z" fill="#2EA83D"/>
<path d="M40.0806 34.7246L10.0005 64.8047L17.602 72.4062L47.682 42.3261L40.0806 34.7246Z" fill="#2EA83D"/>
<path d="M45.6705 7.71875H34.9204V50.2584H45.6705V7.71875Z" fill="#2EA83D"/>
<path d="M40.2636 9.6623e-05L32.6621 7.60156L62.7422 37.6817L70.3437 30.0802L40.2636 9.6623e-05Z" fill="#2EA83D"/>
<path d="M40.0806 0.00438203L10.0005 30.0845L17.602 37.6859L47.682 7.60585L40.0806 0.00438203Z" fill="#2EA83D"/>
<path d="M112.551 17.2942C114.771 16.0986 117.309 15.5068 120.164 15.5068C123.483 15.5068 126.49 16.3243 129.18 17.9592C131.871 19.5941 134 21.9244 135.561 24.9379C137.129 27.9515 137.91 31.4531 137.91 35.4244C137.91 39.3957 137.129 42.9217 135.561 45.9841C133.994 49.0464 131.865 51.4195 129.18 53.1032C126.49 54.7869 123.489 55.6287 120.164 55.6287C117.309 55.6287 114.796 55.0431 112.624 53.8718C110.452 52.7005 108.683 51.2304 107.329 49.4491V73.5088H97.5015V16.1352H107.323V21.7475C108.586 19.9723 110.33 18.4838 112.551 17.2942ZM126.441 29.3607C125.484 27.6526 124.221 26.3593 122.653 25.4687C121.085 24.578 119.389 24.1327 117.565 24.1327C115.741 24.1327 114.119 24.5902 112.551 25.4992C110.983 26.4142 109.72 27.7319 108.763 29.4644C107.805 31.1969 107.323 33.2283 107.323 35.5647C107.323 37.9011 107.805 39.9387 108.763 41.6651C109.72 43.3975 110.983 44.7152 112.551 45.6303C114.119 46.5453 115.79 46.9967 117.565 46.9967C119.341 46.9967 121.085 46.527 122.653 45.5937C124.221 44.6603 125.484 43.3243 126.441 41.5979C127.399 39.8655 127.881 37.8096 127.881 35.4244C127.881 33.0392 127.399 31.0627 126.441 29.3546V29.3607Z" fill="#F8EDD9"/>
<path d="M145.731 9.85813C144.584 8.76007 144.01 7.3936 144.01 5.75261C144.01 4.11162 144.584 2.74515 145.731 1.64709C146.877 0.54903 148.317 0 150.043 0C151.77 0 153.21 0.54903 154.356 1.64709C155.503 2.74515 156.077 4.11162 156.077 5.75261C156.077 7.3936 155.503 8.76007 154.356 9.85813C153.21 10.9562 151.77 11.5052 150.043 11.5052C148.317 11.5052 146.877 10.9562 145.731 9.85813ZM154.887 16.1354V55.0006H145.066V16.1354H154.887Z" fill="#F8EDD9"/>
<path d="M197.327 19.9599C200.182 22.8819 201.603 26.963 201.603 32.2032V55.0063H191.782V33.5392C191.782 30.4524 191.007 28.0794 189.464 26.4201C187.92 24.7608 185.816 23.9312 183.15 23.9312C180.484 23.9312 178.294 24.7608 176.732 26.4201C175.164 28.0794 174.384 30.4524 174.384 33.5392V55.0063H164.562V16.135H174.384V20.9786C175.695 19.2949 177.367 17.9712 179.398 17.0134C181.429 16.0557 183.668 15.5737 186.096 15.5737C190.726 15.5737 194.466 17.0378 197.321 19.9599H197.327Z" fill="#F8EDD9"/>
<path d="M246.79 38.5173H218.374C218.606 41.3234 219.588 43.5195 221.321 45.1117C223.053 46.7039 225.176 47.497 227.702 47.497C231.35 47.497 233.942 45.9292 235.492 42.7997H246.082C244.959 46.5392 242.806 49.6138 239.628 52.0234C236.449 54.433 232.539 55.6348 227.909 55.6348C224.17 55.6348 220.814 54.8052 217.843 53.1459C214.873 51.4866 212.561 49.138 210.895 46.0939C209.236 43.0559 208.406 39.5482 208.406 35.5708C208.406 31.5934 209.224 28.0186 210.859 24.9745C212.493 21.9366 214.787 19.5941 217.734 17.9592C220.68 16.3243 224.072 15.5068 227.909 15.5068C231.746 15.5068 234.912 16.2999 237.834 17.8921C240.756 19.4843 243.026 21.7414 244.636 24.6634C246.253 27.5855 247.058 30.9407 247.058 34.729C247.058 36.132 246.966 37.3948 246.777 38.5173H246.79ZM236.895 31.9228C236.846 29.3973 235.937 27.372 234.162 25.853C232.387 24.334 230.209 23.5715 227.641 23.5715C225.207 23.5715 223.163 24.3096 221.504 25.7798C219.844 27.2561 218.826 29.2997 218.453 31.9167H236.901L236.895 31.9228Z" fill="#F8EDD9"/>
<path d="M263.486 9.85813C262.339 8.76007 261.766 7.3936 261.766 5.75261C261.766 4.11162 262.339 2.74515 263.486 1.64709C264.633 0.54903 266.072 0 267.799 0C269.525 0 270.965 0.54903 272.112 1.64709C273.259 2.74515 273.832 4.11162 273.832 5.75261C273.832 7.3936 273.259 8.76007 272.112 9.85813C270.965 10.9562 269.525 11.5052 267.799 11.5052C266.072 11.5052 264.633 10.9562 263.486 9.85813ZM272.643 16.1354V55.0006H262.821V16.1354H272.643Z" fill="#F8EDD9"/>
<path d="M288.637 53.914C286.112 52.7672 284.111 51.2116 282.641 49.2473C281.164 47.283 280.359 45.1112 280.219 42.726H290.113C290.303 44.2206 291.035 45.459 292.322 46.4472C293.609 47.4294 295.207 47.9174 297.129 47.9174C299.05 47.9174 300.46 47.5453 301.515 46.7949C302.564 46.0446 303.095 45.0868 303.095 43.9217C303.095 42.6589 302.454 41.7134 301.167 41.0789C299.88 40.4506 297.836 39.7552 295.03 39.0109C292.133 38.3094 289.76 37.5834 287.911 36.8392C286.063 36.0889 284.471 34.9481 283.141 33.4047C281.805 31.8613 281.14 29.7811 281.14 27.1641C281.14 25.0107 281.762 23.0464 283 21.2712C284.239 19.496 286.02 18.0929 288.332 17.0619C290.644 16.031 293.371 15.5186 296.507 15.5186C301.137 15.5186 304.834 16.6776 307.591 18.9896C310.348 21.3078 311.873 24.425 312.154 28.3536H302.753C302.613 26.8103 301.973 25.5841 300.826 24.669C299.679 23.754 298.148 23.3026 296.232 23.3026C294.457 23.3026 293.084 23.632 292.127 24.2847C291.169 24.9375 290.687 25.8525 290.687 27.0238C290.687 28.3353 291.34 29.3297 292.651 30.0068C293.963 30.684 295.994 31.3733 298.758 32.0748C301.564 32.7764 303.882 33.5023 305.7 34.2466C307.524 34.9969 309.104 36.1499 310.434 37.7176C311.77 39.2854 312.453 41.3534 312.502 43.9278C312.502 46.1727 311.879 48.1858 310.641 49.961C309.403 51.7362 307.628 53.1271 305.309 54.1336C302.991 55.1402 300.295 55.6404 297.208 55.6404C294.121 55.6404 291.175 55.067 288.649 53.9201L288.637 53.914Z" fill="#F8EDD9"/>
<path d="M138.502 88.2595H131.7V119.054H121.739V88.2595H117.316V80.1888H121.739V78.2245C121.739 73.454 123.093 69.9464 125.808 67.7014C128.522 65.4565 132.609 64.4073 138.081 64.5476V72.8257C135.696 72.7769 134.037 73.1795 133.097 74.0214C132.164 74.8632 131.694 76.3822 131.694 78.5844V80.201H138.496V88.2717L138.502 88.2595Z" fill="#F8EDD9"/>
<path d="M145.553 73.9118C144.406 72.8138 143.833 71.4473 143.833 69.8063C143.833 68.1653 144.406 66.7989 145.553 65.7008C146.7 64.6027 148.14 64.0537 149.866 64.0537C151.593 64.0537 153.032 64.6027 154.179 65.7008C155.326 66.7989 155.899 68.1653 155.899 69.8063C155.899 71.4473 155.326 72.8138 154.179 73.9118C153.032 75.0099 151.593 75.5589 149.866 75.5589C148.14 75.5589 146.7 75.0099 145.553 73.9118ZM154.704 80.1891V119.054H144.882V80.1891H154.704Z" fill="#F8EDD9"/>
<path d="M197.15 84.0138C200.005 86.9359 201.426 91.017 201.426 96.2572V119.06H191.604V97.5932C191.604 94.5064 190.83 92.1334 189.286 90.4741C187.743 88.8148 185.638 87.9851 182.972 87.9851C180.307 87.9851 178.117 88.8148 176.555 90.4741C174.987 92.1334 174.206 94.5064 174.206 97.5932V119.06H164.385V80.195H174.206V85.0387C175.518 83.355 177.189 82.0312 179.221 81.0735C181.252 80.1157 183.491 79.6338 185.919 79.6338C190.549 79.6338 194.289 81.0979 197.144 84.0199L197.15 84.0138Z" fill="#F8EDD9"/>
<path d="M246.606 102.571H218.191C218.422 105.377 219.405 107.573 221.137 109.165C222.87 110.758 224.992 111.551 227.518 111.551C231.166 111.551 233.759 109.983 235.308 106.853H245.898C244.776 110.593 242.622 113.667 239.444 116.077C236.266 118.487 232.356 119.689 227.725 119.689C223.986 119.689 220.631 118.859 217.66 117.2C214.689 115.54 212.377 113.192 210.712 110.148C209.052 107.11 208.223 103.602 208.223 99.6245C208.223 95.6471 209.04 92.0723 210.675 89.0283C212.31 85.9903 214.604 83.6478 217.55 82.0129C220.497 80.378 223.888 79.5605 227.725 79.5605C231.563 79.5605 234.729 80.3536 237.651 81.9458C240.573 83.538 242.842 85.7951 244.453 88.7171C246.069 91.6392 246.874 94.9944 246.874 98.7827C246.874 100.186 246.783 101.449 246.594 102.571H246.606ZM236.717 95.9765C236.668 93.451 235.76 91.4257 233.984 89.9067C232.209 88.3877 230.031 87.6252 227.463 87.6252C225.029 87.6252 222.985 88.3633 221.326 89.8335C219.667 91.3098 218.648 93.3534 218.276 95.9704H236.723L236.717 95.9765Z" fill="#F8EDD9"/>
<path d="M271.977 109.531C273.124 110.629 273.697 111.996 273.697 113.637C273.697 115.278 273.124 116.644 271.977 117.742C270.83 118.84 269.39 119.389 267.664 119.389C265.938 119.389 264.498 118.84 263.351 117.742C262.204 116.644 261.631 115.278 261.631 113.637C261.631 111.996 262.204 110.629 263.351 109.531C264.498 108.433 265.938 107.884 267.664 107.884C269.39 107.884 270.83 108.433 271.977 109.531ZM262.82 103.254V64.3887H272.642V103.254H262.82Z" fill="#F8EDD9"/>
</svg>
