<?xml version="1.0" encoding="UTF-8"?><svg id="_레이어_2" xmlns="http://www.w3.org/2000/svg" xmlns:xlink="http://www.w3.org/1999/xlink" viewBox="0 0 388 450"><defs><clipPath id="clippath"><path d="M.1,225h194v225H16.1c-8.84,0-16-7.16-16-16v-209Z" fill="none" stroke-width="0"/></clipPath><clipPath id="clippath-1"><path d="M194,225h194v209c0,8.84-7.16,16-16,16h-178v-225Z" fill="none" stroke-width="0"/></clipPath><clipPath id="clippath-2"><path d="M302.55,319.49c.63-2.21-.36-4.43-2.57-5.06-2.54-.73-4.06,1.04-4.6,2.47-.28.73.02,1.54.77,1.76.6.17,1.23-.12,1.48-.69.31-.71.8-1.35,1.65-1.1s1.08,1.08.83,1.95l-2.35,8.2c-.19.67.2,1.37.87,1.56s1.37-.2,1.56-.87l2.35-8.22h0Z" fill="none" stroke-width="0"/></clipPath><clipPath id="clippath-3"><path d="M271.24,360.24c-.63-2.21.36-4.43,2.57-5.06,2.54-.73,4.06,1.04,4.6,2.47.28.73-.02,1.54-.77,1.76-.6.17-1.23-.12-1.48-.69-.31-.71-.8-1.35-1.65-1.1s-1.08,1.08-.83,1.95l2.35,8.2c.19.67-.2,1.37-.87,1.56s-1.37-.2-1.56-.87l-2.35-8.22h0Z" fill="none" stroke-width="0"/></clipPath></defs><g id="_레이어_1-2"><path d="M290.5,81l38.54,50.25h-77.08l38.54-50.25Z" fill="#13a155" stroke-width="0"/><path d="M0,16C0,7.16,7.16,0,16,0h178v225H0V16Z" fill="#d3dadd" stroke-width="0"/><path d="M194,0h178c8.84,0,16,7.16,16,16v209h-194V0Z" fill="#63ecff" stroke-width="0"/><path d="M0,165s58.88-11,97-11,97,11,97,11v60H0v-60Z" fill="#f5f5f5" isolation="isolate" opacity=".8" stroke-width="0"/><path d="M194,165s58.88-11,97-11,97,11,97,11v60h-194v-60Z" fill="#63b961" stroke-width="0"/><rect x="91" y="149" width="12" height="40" fill="#432a13" stroke-width="0"/><path d="M96.5,53l17.75,23.25h-35.51l17.75-23.25Z" fill="#0e6b39" stroke-width="0"/><path d="M96.5,63l26.41,38.25h-52.83l26.41-38.25Z" fill="#0e6b39" stroke-width="0"/><path d="M96.5,81l38.54,50.25H57.96l38.54-50.25Z" fill="#0e6b39" stroke-width="0"/><path d="M96.5,95l48.93,71.25H47.57l48.93-71.25Z" fill="#0e6b39" stroke-width="0"/><circle cx="33" cy="40" r="5" fill="#fff" stroke-width="0"/><circle cx="327" cy="43" r="7" fill="#fff" stroke-width="0"/><circle cx="334" cy="35" r="7" fill="#fff" stroke-width="0"/><circle cx="342" cy="39" r="7" fill="#fff" stroke-width="0"/><circle cx="334" cy="46" r="7" fill="#fff" stroke-width="0"/><circle cx="343" cy="43" r="7" fill="#fff" stroke-width="0"/><circle cx="350" cy="44" r="6" fill="#fff" stroke-width="0"/><circle cx="254" cy="44" r="7" fill="#fff" stroke-width="0"/><circle cx="247" cy="36" r="7" fill="#fff" stroke-width="0"/><circle cx="239" cy="40" r="7" fill="#fff" stroke-width="0"/><circle cx="247" cy="47" r="7" fill="#fff" stroke-width="0"/><circle cx="238" cy="44" r="7" fill="#fff" stroke-width="0"/><circle cx="231" cy="45" r="6" fill="#fff" stroke-width="0"/><circle cx="165" cy="79" r="5" fill="#fff" stroke-width="0"/><circle cx="170" cy="29" r="5" fill="#fff" stroke-width="0"/><circle cx="115" cy="21" r="5" fill="rgba(255,255,255,.4)" stroke-width="0"/><circle cx="20" cy="124" r="5" fill="#fff" stroke-width="0"/><circle cx="52" cy="90" r="5" fill="rgba(255,255,255,.4)" stroke-width="0"/><circle cx="158" cy="140" r="5" fill="rgba(255,255,255,.4)" stroke-width="0"/><g clip-path="url(#clippath)"><path d="M.1,225h194v225H16.1c-8.84,0-16-7.16-16-16v-209Z" fill="#1e3276" stroke-width="0"/><path d="M38.64,353.7l70.09,40.56-127.04,17,56.95-57.56Z" fill="#0d1a47" stroke-width="0"/><path d="M150.2,356.82l-70.09,40.56,127.04,17-56.95-57.56Z" fill="#0d1a47" stroke-width="0"/><path d="M16.45,368.78l68.3,27.18-127.04,17.01,58.74-44.18Z" fill="#0d1a47" stroke-width="0"/><path d="M160.81,361.82l-68.3,27.18,127.04,17.01-58.74-44.18Z" fill="#0d1a47" stroke-width="0"/><path d="M.1,390s58.88-11,97-11,97,11,97,11v60H.1v-60Z" fill="#15265f" stroke-width="0"/><rect x="91.1" y="378" width="12" height="40" fill="#193284" stroke-width="0"/><path d="M96.6,282l17.75,23.25h-35.51l17.75-23.25Z" fill="#3853b0" stroke-width="0"/><path d="M96.6,292l26.41,38.25h-52.83l26.41-38.25Z" fill="#3853b0" stroke-width="0"/><path d="M96.6,310l38.54,50.25H58.06l38.54-50.25Z" fill="#3853b0" stroke-width="0"/><path d="M96.6,324l48.93,71.25H47.67l48.93-71.25Z" fill="#3853b0" stroke-width="0"/><path d="M94.38,242.55c-1.68.51-3.21,1.54-4.35,3.04-2.9,3.81-2.16,9.24,1.64,12.15,3.81,2.9,9.25,2.16,12.15-1.64,1.14-1.5,1.72-3.25,1.77-5.01.49,2.76-.13,5.72-1.97,8.12-3.48,4.57-10.01,5.45-14.58,1.97-4.57-3.48-5.45-10.01-1.97-14.57,1.83-2.41,4.51-3.79,7.31-4.05Z" fill="#c9d25f" fill-rule="evenodd" stroke-width="0"/></g><circle cx="291" cy="26.58" r="10.4" fill="#e4ee67" stroke-width="0"/><rect x="347.74" y="148" width="5" height="40" fill="#0e6b39" stroke-width="0"/><circle cx="352" cy="111.3" r="9.3" fill="#14ad5b" stroke-width="0"/><circle cx="340.17" cy="115.52" r="9.3" fill="#14ad5b" stroke-width="0"/><circle cx="359.61" cy="120.6" r="9.3" fill="#14ad5b" stroke-width="0"/><circle cx="363.83" cy="119.75" r="9.3" fill="#14ad5b" stroke-width="0"/><circle cx="343.55" cy="161.17" r="9.3" fill="#14ad5b" stroke-width="0"/><circle cx="372.13" cy="151.61" r="7.61" fill="#14ad5b" stroke-width="0"/><circle cx="366.37" cy="134.96" r="14.37" fill="#14ad5b" stroke-width="0"/><circle cx="346.93" cy="134.96" r="14.37" fill="#14ad5b" stroke-width="0"/><circle cx="342.7" cy="123.98" r="14.37" fill="#14ad5b" stroke-width="0"/><circle cx="337.63" cy="143.42" r="14.37" fill="#14ad5b" stroke-width="0"/><circle cx="334.37" cy="141.37" r="14.37" fill="#14ad5b" stroke-width="0"/><circle cx="336.37" cy="128.37" r="14.37" fill="#14ad5b" stroke-width="0"/><circle cx="336.37" cy="156.37" r="14.37" fill="#14ad5b" stroke-width="0"/><circle cx="361.37" cy="157.37" r="14.37" fill="#14ad5b" stroke-width="0"/><rect x="230" y="148" width="5" height="40" fill="#0e6b39" stroke-width="0"/><circle cx="230.74" cy="111.3" r="9.3" fill="#24d777" stroke-width="0"/><circle cx="242.57" cy="115.52" r="9.3" fill="#24d777" stroke-width="0"/><circle cx="223.13" cy="120.6" r="9.3" fill="#24d777" stroke-width="0"/><circle cx="218.9" cy="119.75" r="9.3" fill="#24d777" stroke-width="0"/><circle cx="239.19" cy="161.17" r="9.3" fill="#24d777" stroke-width="0"/><circle cx="210.61" cy="151.61" r="7.61" fill="#24d777" stroke-width="0"/><circle cx="216.37" cy="134.96" r="14.37" fill="#24d777" stroke-width="0"/><circle cx="235.81" cy="134.96" r="14.37" fill="#24d777" stroke-width="0"/><circle cx="240.04" cy="123.98" r="14.37" fill="#24d777" stroke-width="0"/><circle cx="245.11" cy="143.42" r="14.37" transform="translate(64.28 362.39) rotate(-80.78)" fill="#24d777" stroke-width="0"/><circle cx="248.37" cy="141.37" r="14.37" fill="#24d777" stroke-width="0"/><circle cx="246.37" cy="128.37" r="14.37" fill="#24d777" stroke-width="0"/><circle cx="246.37" cy="156.37" r="14.37" fill="#24d777" stroke-width="0"/><circle cx="221.37" cy="157.37" r="14.37" fill="#24d777" stroke-width="0"/><rect x="285.5" y="149" width="12" height="40" fill="#0e6b39" stroke-width="0"/><path d="M291,53l17.75,23.25h-35.51l17.75-23.25Z" fill="#13a155" stroke-width="0"/><path d="M291,63l26.41,38.25h-52.83l26.41-38.25Z" fill="#13a155" stroke-width="0"/><path d="M291,81l38.54,50.25h-77.08l38.54-50.25Z" fill="#13a155" stroke-width="0"/><path d="M291,95l48.93,71.25h-97.86l48.93-71.25Z" fill="#13a155" stroke-width="0"/><path d="M107.95,64.44c-.6-.26-1.19-.56-1.78-.89-.04-.14-.09-.27-.18-.4-.62-.86-1.37-1.53-2.19-2.1.71-.49,1.06-1.49.23-2.23l-1.57-1.41c-.35-.32-.74-.44-1.11-.41-.1-.1-.21-.19-.33-.26-.38-.7-.81-1.35-1.53-1.83-.31-.21-.67-.36-1.05-.45-.06-.25-.18-.48-.35-.68-1.94-2.17-5.56-1.5-6.74,1.09-.58,1.27-.7,2.65-1.43,3.85-.69,1.13-1.66,1.98-2.83,2.59-.61.32-.84,1.06-.68,1.69-.69.29-1.32.72-1.87,1.32-.8.88-.32,2.68,1.06,2.56.38-.03.75-.1,1.12-.16.22.36.61.58,1.18.51.5-.06.99-.17,1.46-.3.3.26.67.45,1.13.51,1.13.15,2.25-.43,3.22-.95.8-.43,1.56-.95,2.27-1.51-.05.08-.09.17-.14.26-.48.8-.05,1.99.9,2.2.16.04.32.06.49.08.22.75.74,1.38,1.67,1.68.92.3,1.99.13,2.82-.35.6-.35,1.06-.89,1.58-1.35.12.19.23.39.3.49.98,1.38,3.04.45,2.78-.98,0,0,.02,0,.03.01.75.32,1.6.22,2.05-.54.38-.63.21-1.74-.54-2.05Z" fill="#fff" stroke-width="0"/><path d="M114.81,87.09c-.33-1.12-.95-2.18-1.77-3.06,0-.66-.4-1.3-1.08-1.47-1.08-.27-2.17-.47-3.27-.23-.98.22-1.85.81-2.62,1.43-.95.76-1.7,1.76-2.24,2.85-.22.13-.44.26-.64.41-.34-.45-.92-.71-1.56-.44-.71.29-1.39.64-2.04,1.01-.29-.61-1.03-.93-1.77-.71-1.16.35-2.26.84-3.29,1.43-.12-.03-.24-.05-.36-.06-.33-.39-.86-.59-1.47-.32-.11.05-.21.11-.32.17-.22-.97-1.1-1.65-2.34-1.57-1.53.09-3.11,1.09-4.42,1.77-.5.26-1,.54-1.49.82-.14-.66-.75-1.22-1.5-1.09-.88.16-1.72.41-2.5.76-.24-.07-.51-.07-.76,0,.37-.58.65-1.22.83-1.91.23-.88,1.45-1.51.62-1.44-1.1.1-3.18,2.17-3.98,3.05-.05-.01-.09-.03-.14-.04-.21-.04-.42-.07-.63-.07-.11,0-.23.01-.34.03-.22-.03-.42-.01-.55.12,0,0,0,0,0,0-.18.07-.38.14-.55.25-.17.11-.35.23-.49.38,0,0-.01.02-.02.02-.23.06-.45.17-.57.43-.07.16-.11.31-.12.46-1.05,1.05-1.98,2.22-2.81,3.46-.17.04-.33.1-.49.13-.08.01-.25.02-.33.05-.03,0-.07,0-.1.01-.24.02-.48.03-.72.04-.73.01-1.43.61-1.39,1.35.03.72.61,1.36,1.39,1.35.01,0,.03,0,.04,0-.42.98.51,2.26,1.76,1.79.51-.19.97-.43,1.4-.69.37.75,1.09,1.27,2.31,1.24,1.43-.03,2.76-.84,3.85-1.91.04-.02.08-.04.11-.06.25.2.54.36.88.44,1.73.38,3.64-.86,5.01-1.73.07-.04.13-.09.2-.14.22.23.49.44.77.57.9.42,1.87.47,2.83.22.58-.15,1.12-.42,1.64-.72.26.15.55.23.85.19,2.14-.28,4.17-.94,6.03-1.91.07.02.15.04.23.05,3.06.25,6.07-.78,8.28-2.72.95-.37,1.82-.94,2.55-1.63.21.08.44.13.69.12.75-.02,1.46-.36,2.02-.87.03.03.06.06.09.08.64.46,1.43.36,1.96-.19.01-.01.02-.03.04-.05.13.13.29.23.43.29.32.14.76.16,1.08.03.32-.14.63-.37.76-.7.04-.12.07-.23.11-.35.04-.24.01-.47-.08-.7Z" fill="#fff" stroke-width="0"/><path d="M116.65,109.41c-.01-.15-.03-.3-.06-.44,0-.04-.02-.08-.03-.11-.05-.13-.11-.26-.16-.39,0-.02-.02-.04-.03-.06-.02-.03-.04-.07-.06-.1-.09-.13-.19-.27-.3-.38-.01-.01-.03-.02-.04-.04-.11-.09-.22-.18-.33-.26-.03-.02-.07-.05-.11-.06-.13-.06-.26-.12-.39-.16-.02,0-.03-.01-.05-.02-.02,0-.04,0-.06-.01-.14-.03-.3-.05-.44-.06-.02,0-.04,0-.06,0-.15,0-.3.04-.44.06-.04,0-.09.02-.13.03-.13.05-.27.11-.4.17-.02,0-.04.02-.06.03-.02.01-.04.03-.06.04-.11.08-.23.17-.34.26-.08.07-.14.16-.2.24-.02.03-.04.05-.06.08-.1-.01-.2-.04-.3-.04-.38.02-.69.11-1.02.29-.13.07-.25.16-.36.25-.07-.03-.14-.06-.23-.1-.3-.11-.62-.15-.94-.19-.55-.06-1.11.03-1.64.14-.54.11-1.11.27-1.57.59-.34.24-.63.56-.82.92-.45-.06-.89-.12-1.34-.19-.12-.02-.25-.03-.37-.05-1.75-.68-3.63-1-5.51-.93-1.22.05-2.45.25-3.61.62-.9.29-1.87.66-2.52,1.34-.34.09-.65.28-.88.56-.45,0-.92.18-1.18.52-.04,0-.09,0-.15,0-.91-.95-2.07-1.61-3.35-2-1.08-.33-2.21-.43-3.34-.45-.02-.54-.07-1.07-.18-1.58-.28-1.24-2.14-1.47-2.74-.37-.13-.14-.25-.3-.4-.42-.54-.45-1.15-.82-1.85-.98-.64-.15-1.36-.16-1.99.06-.33-.1-.71-.08-1.1.13-1.79.95-3.91,2.15-5.54,3.7-1.28.86-2.38,1.96-3.26,3.23-.15.22-.04.55.18.68.24.14.52.05.67-.17-.02.06-.04.11-.05.17-.33,1.37,1.11,2.27,2.22,1.65-.11.23-.22.45-.32.69-.41,1.06.59,1.86,1.55,1.84.23.14.49.22.78.25.79.06,1.59.08,2.38.08.23.21.55.37.98.45.84.16,1.69-.19,2.47-.67.04,0,.07,0,.11-.01-.02,1.31,1.46,1.98,2.52,1.12.38-.31.73-.63,1.1-.95.24.36.63.62,1.19.62.38,0,.68-.12.91-.3.36.28.87.42,1.6.34.26-.03.51-.09.76-.17.73,0,1.46-.14,2.17-.33.1.06.21.11.33.15,1.46.48,2.99.6,4.42-.02.62-.27,1.15-.69,1.68-1.1.07-.05.13-.11.2-.16,1.08.92,2.55,1.42,3.95,1.14.88-.17,1.73-.63,2.5-1.08.32-.19.63-.4.94-.62.29.45.72.8,1.36.92,1.13.2,1.93-.42,2.54-1.31.06-.09.11-.18.17-.27.23.01.47-.04.7-.15.5.2,1.04.36,1.58.35.53,0,1.06-.19,1.47-.52.46.19.94.23,1.4-.04.04-.02.07-.06.1-.08.2,0,.4-.03.6-.11.5-.21.82-.67.89-1.18.18-.03.37-.08.55-.18.86-.47,1.67-1.11,1.95-2.09.07-.24.1-.51.08-.77.09-.04.18-.07.27-.11.04-.02.07-.04.1-.06.13-.09.26-.19.38-.3.03-.03.05-.05.08-.09.1-.12.21-.25.29-.38.01-.02.02-.04.03-.06.06-.12.12-.26.17-.39.01-.04.02-.07.03-.11.03-.14.04-.29.06-.43,0-.02,0-.04,0-.06,0-.02,0-.04,0-.05Z" fill="#fff" stroke-width="0"/><path d="M136.91,128.61c-1.26-.99-2.52-1.98-3.79-2.96.62.05,1.25.06,1.87.01.78-.06,1.54-.65,1.5-1.5-.04-.87-.66-1.43-1.5-1.5-.09,0-.59-.01-.16,0-.11,0-.22-.04-.33-.05-.26-.05-.51-.11-.76-.17-.47-.13-.93-.28-1.38-.45-.22-.08-.44-.17-.65-.26-.04-.02-.09-.04-.13-.06-.1-.04-.21-.09-.31-.14-.47-.21-.94-.42-1.41-.63-.21-.71-.56-1.39-1.02-1.96-1-1.25-2.63-1.59-4.11-1.06-2.01.73-3.94,2.28-4.45,4.32-.69-.26-1.4-.34-2.04.26-.03.03-.04.05-.07.08-.25-.11-.5-.22-.75-.33-.65-.29-1.55-.2-1.98.39-.17-.02-.34-.02-.51,0-.16-.05-.31-.1-.47-.14-1.16-.3-2.59-.53-3.75-.09-.87.33-1.6,1.01-1.93,1.84-.2-.17-.39-.33-.59-.5-.71-.6-1.69-.48-2.21.14-2.5-1.15-5.38-1.41-8.04-.55-.5-.36-1.04-.29-1.46,0-.88-.28-1.77-.5-2.69-.65-.05-.04-.09-.1-.14-.13-.41-.34-.91-.42-1.37-.32-.1-.09-.18-.2-.29-.28-.53-.45-1.08-.79-1.74-1.02-.66-.24-1.36-.24-2.03-.1-.35.07-.72.39-.9.69-.19.32-.27.8-.15,1.16.02.07.07.12.1.18-.08.52-.08.98.03,1.51.09.42.27.85.5,1.21.54.84,1.34,1.49,2.31,1.75.13.04.27.04.41.04.92,1.54,2.39,2.68,4.12,3.31,1.19.43,2.46.55,3.72.46.36.27.75.51,1.17.69.98.41,1.99.37,2.93-.08.72.42,1.43.84,2.19,1.18,1.92.86,3.95,1.03,6.04,1.03,2.08,0,3.83-.52,5.8-1.12.06-.02.12-.03.18-.05.33.15.65.31.99.45.02.01.04.02.06.03,0,0,0,0,0,0,.12.05.23.11.36.16.69.28,1.24-.01,1.55-.51.47.1.93.22,1.4.3.49.09.99-.08,1.36-.4.67.45,1.32.92,1.97,1.38.82.59,1.6.17,1.96-.52.01,0,.03.01.04.02.69.29,1.4-.18,1.73-.82.81.41,1.69-.08,2.05-.78.13.05.27.11.4.16.61.24,1.16-.01,1.51-.46.21.04.41.06.62.08.02.01.04.02.06.03.57.26,1.14.18,1.56-.1.74-.12,1.5-.37,2.26-.79.77-.42,1.07-1.76.3-2.36Z" fill="#fff" stroke-width="0"/><path d="M113.24,136.92c-.2-.31-.52-.63-.9-.69-.79-.13-1.55-.33-2.3-.61-.23-.08-.57-.06-.8,0-.2.06-.38.17-.53.3-.18-.07-.35-.16-.53-.22-.35-.12-.84-.03-1.16.15-.15.09-.3.22-.42.37-.94-.63-2.07-.83-3.01.15-.11.12-.21.25-.3.39-.28.1-.54.27-.73.5-1.48.14-2.91.66-4.13,1.6-.09.07-.18.16-.27.23-.18-.06-.37-.08-.54-.06,0,0-.02,0-.03,0-1.62-1.01-3.42-1.63-5.36-1.79-1.82-.15-3.61.28-4.94,1.4-.38-.35-.84-.58-1.33-.65-.97-.78-2.24-1.01-3.14.3-.1.15-.19.32-.26.48-.05,0-.09.01-.14.02-.61-.36-1.28-.63-1.95-.8-1.52-.38-3.09-.29-4.54.22-.45-.7-1.15-1.24-1.95-1.49-.88-.97-2.02-1.67-3.27-1.97-.22-.41-.63-.71-1.24-.72-1.33-.01-2.17.79-2.91,1.81-.61.84-1.21,1.7-1.8,2.56-.32.28-.64.56-.95.86-1.15,1.1-2.19,2.3-3.13,3.58-.97.64-1.94,1.27-2.91,1.91-.26.17-.43.38-.55.6-.43.15-.78.44-.92.95-.19.7.24,1.73,1.05,1.85,1.05.15,2.1.19,3.14.11,1.04.21,2.11.24,3.16.11.09.46.37.89.92,1.22,1.07.65,2.1.47,2.99-.08.05,0,.11.01.16.01.61.02,1.22,0,1.83-.05.69.05,1.41-.09,2.1-.34.77-.18,1.52-.42,2.26-.72.92.56,2.11.27,3.27-.38.16.43.46.81.95,1.08.77.42,1.48.35,2.1-.02.76.24,1.52.42,2.32.51,1.04.11,2.08-.02,3.04-.37.87.22,1.78.3,2.52.03.56-.2.9-.6,1.1-1.07.36.45.74.88,1.18,1.28.94.85,2.57.29,2.56-1.06,0-.06,0-.13-.01-.19.63.48,1.27.95,1.94,1.38,1.11.72,2.55-.47,2.2-1.69-.03-.09-.06-.18-.09-.27.85-.13,1.38-.93,1.23-1.86,0-.04-.02-.09-.03-.13.45.19.88.16,1.24-.01,1.15-.02,2.29-.27,3.35-.81.72-.36,1.36-.87,1.93-1.46.29-.03.58-.14.85-.34.55.35,1.16.57,1.84.4.76-.19,1.33-.83,1.56-1.56.14-.43.19-.86.17-1.28.56.19,1.14.31,1.73.36.51.05,1.05-.32,1.3-.74.17-.29.24-.71.18-1.07.12-.03.23-.07.34-.14.31-.18.61-.54.69-.9.09-.38.07-.82-.15-1.16Z" fill="#fff" stroke-width="0"/><path d="M145.29,163.91c-.19-.22-.4-.43-.61-.63.72-.99.82-2.29.35-3.44.41-.36.6-.96.49-1.55-.33-1.74-2.08-2.54-3.51-3.25-.34-.17-.69-.31-1.04-.47-.03-.07-.05-.13-.08-.2-.31-.73-.74-1.39-1.25-2-1.09-1.29-2.81-2.04-4.49-1.69-.78-.4-1.9.12-2.12.97-.14.55-.29,1.14-.48,1.7-.64.1-1.27.3-1.82.68-.58.39-1.02.87-1.34,1.46-.03-.02-.05-.04-.08-.06-1.18-1.21-3.26.35-2.36,1.82.13.21.29.43.45.64l-.32.13s-.02.01-.04.02c-.26.15-.44.34-.6.59-.01.02-.02.03-.03.05-.03.08-.06.15-.1.23-.65-.05-1.3-.14-1.95-.23-.53-.49-1.1-.92-1.75-1.25-1.08-.55-2.33-.9-3.55-.81-.85.07-1.76.25-2.24,1.04-.02.04-.04.09-.06.13-.23.14-.42.34-.55.58-.17-.09-.34-.16-.51-.24-.72-.46-1.49-.83-2.29-.95-.52-.4-1.1-.73-1.77-.94-1.19-.37-2.53-.32-3.72.02-.95.27-1.6.88-1.69,1.9,0,.03,0,.07,0,.1-.55.01-1.09.13-1.58.42-.27.16-.48.35-.65.57-.5-.3-1.01-.56-1.55-.69-1.12-.28-2.37.04-3.07.97-.43-.07-.86.07-1.18.33-.5-.16-1-.32-1.5-.49-.46-.6-.98-1.16-1.57-1.63-2.11-1.71-4.6-2.14-7.17-2.15-1.51-.82-3.03-1.62-4.7-2.12-.33-.1-.62-.08-.87,0-.27-.33-.67-.54-1.14-.56-1.11-.04-2.23-.02-3.34.05-.61.04-1.31.03-1.9.18-.92.24-1.56,1.19-1.26,2.14.41,1.29,2.04,1.59,3.25,1.75-.21.34-.41.68-.59,1.03-.25.48-.53.98-.67,1.5-.21.81.06,1.69.78,2.15.4.25.83.3,1.24.22.09.28.22.54.42.74-.64.53-1.11,1.2-1.16,2.08-.03.43.2.85.54,1.14,0,.07.01.15.03.22-.02.08-.04.15-.05.23-.07.4-.06.79.15,1.16.18.31.54.61.9.69.38.09.82.07,1.16-.15.31-.2.62-.52.69-.9.01-.07.03-.13.05-.2.04-.02.09-.04.13-.06.11-.05.21-.12.31-.18.11.47.37.85.86,1.06.5.21,1.28.16,1.64-.31.25-.32.52-.61.79-.91.3.55.69,1.02,1.29,1.24,1.32.5,2.05-.24,2.45-1.39,1.32,1.61,3.08,2.71,5.41,2.57,1.3-.08,2.22-.79,2.42-1.75.78.28,1.57.53,2.37.7,1.69.36,4.64.63,4.68-1.83,2.22,1.22,4.58,2.17,7.04,2.77.94.23,1.98.37,2.79-.29.31-.25.5-.56.61-.88,1.23.56,2.63,1.07,3.71.81.89-.22,1.42-.82,1.66-1.58,1.17.97,2.68,1.61,4.06,1.25,1.58,1.23,3.47,2.14,5.1,2.68.99.33,2.15.7,3.18.33.91-.34,1.44-1.22,1.67-2.12.14-.57.16-1.14.1-1.69.57.14,1.13.27,1.71.37,1.1.19,2.27.33,3.34-.09.21-.08.39-.18.57-.29.44.19.96.21,1.38-.03.21-.12.42-.23.64-.33.09-.04.19-.09.28-.13.01,0,.01,0,.02,0,.02,0,.02,0,.05-.02.11-.04.22-.07.33-.11.15.04.3.1.45.13.7.14,1.61.27,2.29-.02.63-.26,1.06-.81,1.07-1.51.01-.54-.22-1-.56-1.4Z" fill="#fff" stroke-width="0"/><path d="M119.49,190.73c0-.31-.12-.63-.31-.89-.04-.08-.09-.15-.15-.23-1.02-1.23-2.32-2.48-3.99-2.65-1.02-.1-1.59.31-2.49.6-.53.17-.45.12-.96-.17-.36-.21-.71-.41-1.1-.58-2.26-.94-4.71-.47-6.56.93-.86-.78-1.93-1.29-3.11-1.47-.86-.13-1.73-.1-2.57.14-.41.12-.83.29-1.2.51-.28.16-.69.66-.98.72-.39.07-1.2-.39-1.59-.5-.56-.17-1.13-.32-1.71-.41-.55-.09-1.11-.14-1.67-.12-.06-.24-.15-.47-.28-.68-.67-1.09-2.03-.96-3.13-.91-1.94.09-3.88.36-5.78.8-.37.08-.67.34-.87.66-1.44.06-2.87.46-4.14,1.26-.39.25-.6.59-.67.95-1.27.3-2.43.91-3.31,1.98-.78.94-.27,2.48.89,2.57.21.43.64.75,1.28.73,4.05-.17,8.16-.32,12.11.49.12.05.24.1.36.15.13.07.27.14.4.21.66.38,1.45.37,2.18.57,1.27.35,2.06,1.09,3.06.89,1.91-.36,1.68-2.35.06-2.4.18-.66-.74-.94-1.65-1.29-.81-.31-1.63-.55-2.46-.77.04-.14.06-.3.05-.47-.03-.49.14-.85.42-1.12.43-.01.84-.19,1.11-.54.48-.09.99-.09,1.42-.03,1.47.22,3.04,1.27,4.56.92,1.14-.26,1.75-1.31,2.97-1.39,1.15-.07,2.22.5,2.78,1.5.6,1.07,1.94.85,2.59,0,.61-.8,1.62-1.26,2.61-1.35.97-.08,1.64.27,2.4.68-.18.33-.24.68-.19,1.01-1.23.44-2.44.94-3.6,1.52-1.15.57-3.73-.92-4.53.11-.5.64-.62,1.5,0,2.12.52.52,1.31,1.1,2.12,1,1.88-.22,3.05-.21,4.03-.69,1.03-.5,2.08-.93,3.16-1.3,2.22-.76,4.53-1.27,6.86-1.54.11,0,.21-.02.31-.05.7-.16,1.26-.67,1.26-1.45Z" fill="#fff" stroke-width="0"/><path d="M113.25,181.41c-.61-.59-1.4-1-2.23-1.17-1.68-.35-3.48-.12-5.14.21-.63.13-1.11.82-1.1,1.45.01.86.52,1.59,1.29,1.95.63.3,1.31.39,1.99.52.25.05.5.1.75.15.2.1.42.16.65.14.02,0,.03,0,.05,0,.89.17,1.78.35,2.67.52.02,0,.05,0,.07,0,.2.09.42.15.62.14.74-.03,1.59-.66,1.5-1.5-.1-.93-.44-1.75-1.12-2.4Z" fill="#fff" stroke-width="0"/><g clip-path="url(#clippath-1)"><path d="M194,225h194v209c0,8.84-7.16,16-16,16h-178v-225Z" fill="#154221" stroke-width="0"/><path d="M194,390s58.88-11,97-11,97,11,97,11v60h-194v-60Z" fill="#d63838" stroke-width="0"/><rect x="285.5" y="378" width="12" height="40" fill="#2d1c0e" stroke-width="0"/><path d="M291,282l17.75,23.25h-35.51l17.75-23.25Z" fill="#0e6b39" stroke-width="0"/><path d="M291,292l26.41,38.25h-52.83l26.41-38.25Z" fill="#0e6b39" stroke-width="0"/><path d="M291,310l38.54,50.25h-77.08l38.54-50.25Z" fill="#0e6b39" stroke-width="0"/><path d="M291,324l48.93,71.25h-97.86l48.93-71.25Z" fill="#0e6b39" stroke-width="0"/><polygon points="291 271.08 293.53 276.03 299.01 276.9 295.09 280.83 295.95 286.32 291 283.8 286.05 286.32 286.91 280.83 282.99 276.9 288.47 276.03 291 271.08" fill="#d1ca42" stroke-width="0"/><circle cx="311" cy="341.43" r="5.18" fill="#ddcd3a" stroke-width="0"/><circle cx="294.39" cy="299.61" r="4.62" fill="#27d6ac" stroke-width="0"/><circle cx="277.02" cy="328.62" r="4.92" fill="#f45656" stroke-width="0"/><circle cx="264.59" cy="371.75" r="5.37" fill="#ddcd3a" stroke-width="0"/><circle cx="319.6" cy="387.64" r="4.62" fill="#fcd0f9" stroke-width="0"/><circle cx="291" cy="355" r="4.62" fill="#27d6ac" stroke-width="0"/><circle cx="277.87" cy="390.63" r="4.62" fill="#f45656" stroke-width="0"/><g clip-path="url(#clippath-2)"><path d="M302.55,319.49c.63-2.21-.36-4.43-2.57-5.06-2.54-.73-4.06,1.04-4.6,2.47-.28.73.02,1.54.77,1.76.6.17,1.23-.12,1.48-.69.31-.71.8-1.35,1.65-1.1s1.08,1.08.83,1.95l-2.35,8.2c-.19.67.2,1.37.87,1.56s1.37-.2,1.56-.87l2.35-8.22h0Z" fill="#d63838" stroke-width="0"/><path d="M303.04,325.96c-2.16-.07-4.33.24-6.39.92-.57.19-.34,1.1.23.91,1.98-.66,4.05-.96,6.14-.89.61.02.62-.92,0-.94Z" fill="#f5f5f5" isolation="isolate" stroke-width="0"/><path d="M303.87,322.72c-.07-.26-.32-.38-.57-.34-2.21.37-4.36,1.08-6.37,2.08-.54.27-.09,1.09.46.82,1.94-.96,4.01-1.63,6.15-1.99.25-.04.4-.34.34-.57Z" fill="#f5f5f5" isolation="isolate" stroke-width="0"/><path d="M304.69,320.09c0-.23-.21-.5-.47-.48-2.25.24-4.43.9-6.43,1.97-.53.29-.08,1.11.46.82,1.85-.99,3.88-1.63,5.97-1.86.25-.03.47-.19.48-.47Z" fill="#f5f5f5" isolation="isolate" stroke-width="0"/><path d="M303.28,316.35c-1.38.71-2.7,1.53-3.95,2.43-.07-.17-.14-.34-.2-.52.14.01.29-.04.4-.2.9-1.34,2.17-2.36,3.68-2.95.24-.09.33-.41.23-.63-.11-.24-.39-.32-.63-.23-1.58.62-2.96,1.72-3.94,3.11-.31-1.29-.35-2.64-.1-3.96.05-.25-.19-.49-.43-.51-.27-.02-.46.18-.51.43-.36,1.89-.15,3.85.56,5.63-.56-.53-1.09-1.1-1.57-1.7-.26-.33-.51-.67-.75-1.02-.18-.27-.51-.63-.43-.97.06-.25-.2-.49-.43-.51-.28-.02-.45.18-.51.43-.11.51.21.98.47,1.39.26.4.54.8.84,1.17.6.77,1.28,1.48,2.01,2.14.07.06.16.09.26.09.11.26.45.43.74.21,1.46-1.14,3.02-2.13,4.67-2.98.54-.28.14-1.13-.4-.85Z" fill="#f5f5f5" isolation="isolate" stroke-width="0"/></g><g clip-path="url(#clippath-3)"><path d="M271.24,360.24c-.63-2.21.36-4.43,2.57-5.06,2.54-.73,4.06,1.04,4.6,2.47.28.73-.02,1.54-.77,1.76-.6.17-1.23-.12-1.48-.69-.31-.71-.8-1.35-1.65-1.1s-1.08,1.08-.83,1.95l2.35,8.2c.19.67-.2,1.37-.87,1.56s-1.37-.2-1.56-.87l-2.35-8.22h0Z" fill="#d63838" stroke-width="0"/><path d="M270.75,366.71c2.16-.07,4.33.24,6.39.92.57.19.34,1.1-.23.91-1.98-.66-4.05-.96-6.14-.89-.61.02-.62-.92,0-.94Z" fill="#f5f5f5" isolation="isolate" stroke-width="0"/><path d="M269.92,363.47c.07-.26.32-.38.57-.34,2.21.37,4.36,1.08,6.37,2.08.54.27.09,1.09-.46.82-1.94-.96-4.01-1.63-6.15-1.99-.25-.04-.4-.34-.34-.57Z" fill="#f5f5f5" isolation="isolate" stroke-width="0"/><path d="M269.1,360.84c0-.23.21-.5.47-.48,2.25.24,4.43.9,6.43,1.97.53.29.08,1.11-.46.82-1.85-.99-3.88-1.63-5.97-1.86-.25-.03-.47-.19-.48-.47Z" fill="#f5f5f5" isolation="isolate" stroke-width="0"/><path d="M270.51,357.1c1.38.71,2.7,1.53,3.95,2.43.07-.17.14-.34.2-.52-.14.01-.29-.04-.4-.2-.9-1.34-2.17-2.36-3.68-2.95-.24-.09-.33-.41-.23-.63.11-.24.39-.32.63-.23,1.58.62,2.96,1.72,3.94,3.11.31-1.29.35-2.64.1-3.96-.05-.25.19-.49.43-.51.27-.02.46.18.51.43.36,1.89.15,3.85-.56,5.63.56-.53,1.09-1.1,1.57-1.7.26-.33.51-.67.75-1.02.18-.27.51-.63.43-.97-.06-.25.2-.49.43-.51.28-.02.45.18.51.43.11.51-.21.98-.47,1.39-.26.4-.54.8-.84,1.17-.6.77-1.28,1.48-2.01,2.14-.07.06-.16.09-.26.09-.11.26-.45.43-.74.21-1.46-1.14-3.02-2.13-4.67-2.98-.54-.28-.14-1.13.4-.85Z" fill="#f5f5f5" isolation="isolate" stroke-width="0"/></g><path d="M302.06,425.45h-21.12c-.88,0-1.63-.64-1.76-1.51l-2.41-15.56c-.17-1.08.67-2.05,1.76-2.05h25.94c1.09,0,1.93.97,1.76,2.05l-2.41,15.56c-.13.87-.88,1.51-1.76,1.51Z" fill="#5b4b2e" stroke-width="0"/><rect x="274.82" y="403.55" width="33.37" height="5.57" rx="1.79" ry="1.79" fill="#3d301b" stroke-width="0"/><path d="M286.89,238.4c3.05-1.25,5.96-2.58,8.84-4.09,2.86-1.49,5.59-3.04,8.29-4.75-4.09-2.83-7.87-5.98-11.21-9.48-1.27,2.88-2.43,5.89-3.38,8.92-.98,3.06-1.86,6.23-2.54,9.41Z" fill="#d63838" stroke-width="0"/><path d="M305.03,250.55c5.34-3.74,10.37-7.76,15.14-11.95-4.7-2.16-9.21-4.55-13.44-7.24-1.01,6.25-1.54,12.67-1.7,19.2Z" fill="#d1ca42" stroke-width="0"/><path d="M291.75,218.97c4.02,4.37,8.68,8.23,13.8,11.63,5.12,3.4,10.73,6.27,16.55,8.87" fill="none" stroke="#d1a44a" stroke-miterlimit="10"/><path d="M324.69,259.37c4.73-4.43,9.27-8.97,13.69-13.6-5.05-1.74-9.99-3.59-14.78-5.65.06,3.17.18,6.37.36,9.6.19,3.2.43,6.41.73,9.65Z" fill="#d63838" stroke-width="0"/><path d="M344.08,266.02c4.41-4.71,8.75-9.41,13.03-14.21-5.16-1.57-10.35-3.21-15.44-4.91.7,6.37,1.52,12.75,2.41,19.12Z" fill="#d1ca42" stroke-width="0"/><path d="M322.09,239.46c5.83,2.59,11.92,4.85,18.16,6.96,3.11,1.06,6.27,2.08,9.44,3.08l4.76,1.5,4.76,1.44" fill="none" stroke="#d1a44a" stroke-miterlimit="10"/><path d="M363.95,271.97c4.24-4.82,8.42-9.79,12.46-14.72-5.2-1.34-10.38-2.79-15.55-4.32.93,6.36,1.97,12.66,3.09,19.03Z" fill="#d63838" stroke-width="0"/><path d="M383.77,276.99c4.03-5.09,7.92-10.16,11.68-15.34-2.62-.52-5.22-1.12-7.84-1.67-2.61-.58-5.21-1.24-7.82-1.86,1.2,6.26,2.51,12.59,3.97,18.87Z" fill="#d1ca42" stroke-width="0"/><path d="M359.22,252.44c12.7,3.82,25.49,7.16,38.36,9.61" fill="none" stroke="#d1a44a" stroke-miterlimit="10"/><path d="M94.06,326.7c1.75-6.12,3.36-12.17,4.79-18.4-2.42.5-4.87.8-7.31,1.14l-7.33,1.02c3.14,5.43,6.42,10.85,9.85,16.24Z" fill="#d63838" stroke-width="0"/><path d="M112.85,323.43c1.36-6.26,2.56-12.54,3.63-18.75l-7.21,1.68-7.28,1.36c3.47,5.27,7.09,10.51,10.85,15.72Z" fill="#d1ca42" stroke-width="0"/><polyline points="82.66 310.68 91.67 309.43 96.17 308.8 100.64 307.97 109.58 306.3 118.44 304.22" fill="none" stroke="#d1a44a" stroke-miterlimit="10"/><path d="M131.75,318.79c.97-6.32,1.8-12.6,2.5-18.84l-7.12,2.02-3.56,1.01c-1.18.35-2.4.58-3.6.88,1.9,2.52,3.85,5.1,5.8,7.56,1.96,2.47,3.95,4.92,5.98,7.37Z" fill="#d63838" stroke-width="0"/><path d="M149.97,313.18c.6-6.34,1.09-12.57,1.37-18.96-2.29.93-4.65,1.66-6.99,2.45l-7.03,2.34c4.08,4.77,8.3,9.49,12.65,14.17Z" fill="#d1ca42" stroke-width="0"/><polyline points="118.44 304.22 122.87 303.18 127.25 301.94 136.01 299.45 144.64 296.57 148.96 295.13 153.21 293.5" fill="none" stroke="#d1a44a" stroke-miterlimit="10"/><path d="M168.2,306.42c.19-6.41.25-12.79.18-19.1l-6.79,2.96-6.92,2.65c4.38,4.55,8.89,9.04,13.53,13.49Z" fill="#d63838" stroke-width="0"/><path d="M185.59,298.63c-.17-6.39-.47-12.72-.9-18.99l-6.65,3.26-3.33,1.63c-1.11.54-2.26,1-3.39,1.5,2.32,2.15,4.7,4.32,7.07,6.4,2.37,2.08,4.77,4.14,7.2,6.18Z" fill="#d1ca42" stroke-width="0"/><polyline points="153.21 293.5 161.71 290.24 170.06 286.59 174.23 284.77 178.32 282.76 186.5 278.75" fill="none" stroke="#d1a44a" stroke-miterlimit="10"/><path d="M202.85,289.69c-.54-6.34-1.18-12.57-2.04-18.9-2.09,1.32-4.27,2.47-6.44,3.66l-6.5,3.56c4.87,3.96,9.86,7.86,14.98,11.69Z" fill="#d63838" stroke-width="0"/><path d="M219.26,279.99c-.93-6.33-2.02-12.63-3.2-18.83l-6.16,4.11-6.34,3.84c5.11,3.7,10.35,7.33,15.7,10.88Z" fill="#d1ca42" stroke-width="0"/><polyline points="186.5 278.75 194.49 274.38 198.48 272.2 202.38 269.83 210.16 265.11 217.73 260.04" fill="none" stroke="#d1a44a" stroke-miterlimit="10"/><path d="M235.31,269.01c-1.31-6.26-2.73-12.43-4.27-18.52l-5.96,4.39-2.98,2.2c-.99.74-2.04,1.39-3.06,2.09,2.67,1.7,5.4,3.42,8.09,5.04,2.7,1.62,5.43,3.22,8.18,4.8Z" fill="#d63838" stroke-width="0"/><path d="M250.4,257.37c-1.66-6.15-3.39-12.15-5.38-18.23-1.81,1.68-3.77,3.19-5.68,4.75l-5.76,4.66c5.49,3.03,11.1,5.98,16.82,8.83Z" fill="#d1ca42" stroke-width="0"/><polyline points="217.73 260.04 221.52 257.51 225.18 254.81 232.51 249.41 239.59 243.68 243.12 240.82 246.53 237.8" fill="none" stroke="#d1a44a" stroke-miterlimit="10"/><path d="M265.1,244.63c-2.08-6.07-4.27-12.06-6.57-17.94l-5.3,5.16-5.54,4.91c5.7,2.72,11.5,5.34,17.41,7.87Z" fill="#d63838" stroke-width="0"/><path d="M278.63,231.17c-2.43-5.92-4.96-11.73-7.58-17.43l-5.05,5.4-2.52,2.7c-.85.9-1.76,1.73-2.63,2.6,2.93,1.19,5.92,2.39,8.87,3.49,2.95,1.1,5.92,2.18,8.92,3.23Z" fill="#d1ca42" stroke-width="0"/><polyline points="246.53 237.8 253.33 231.76 259.85 225.41 263.11 222.24 266.21 218.92 272.42 212.28" fill="none" stroke="#d1a44a" stroke-miterlimit="10"/></g></g></svg>