<?xml version="1.0" encoding="UTF-8"?><svg id="_레이어_2" xmlns="http://www.w3.org/2000/svg" xmlns:xlink="http://www.w3.org/1999/xlink" viewBox="0 0 388 450"><defs><clipPath id="clippath"><rect width="388" height="450" rx="16" ry="16" fill="none" stroke-width="0"/></clipPath></defs><g id="_레이어_1-2"><g clip-path="url(#clippath)"><rect width="388" height="450" rx="16" ry="16" fill="#f8edd9" stroke-width="0"/><path id="_중심_대" d="M43.87,417.83h0c1.35,1.17,3.35,1.07,4.46-.22l100.85-118.1c.67-.78.55-1.98-.27-2.68h0c-.81-.7-2.01-.65-2.69.11l-102.75,116.44c-1.13,1.28-.94,3.27.41,4.44Z" fill="#bd9b5e" stroke-width="0"/><path d="M142.11,308.1s86.83-68.87,194.15-184.46" fill="none" opacity=".6" stroke="#146621" stroke-linecap="round" stroke-miterlimit="10" stroke-width="1.91"/><path d="M329.74,85.5s-59.15,99.13-189.65,224.58" fill="none" stroke="#168723" stroke-linecap="round" stroke-miterlimit="10" stroke-width="1.91"/><path d="M136.23,315.1l4.54-3.49c1.41-1.09,2.58-2.45,3.45-4l2.66-4.79c.18-.32-.13-.69-.48-.58l-.22.07c-1.13.37-3.83,2.6-4.62,3.48l-6.74,7.79c-.13.14-.38,1.23-.41,1.42l-.03.18c-.07.41.26.52.72.6.22.04.43-.09.59-.23.08-.07.16-.15.24-.23.09-.09.21-.15.31-.23Z" fill="#e9cb95" stroke-width="0"/><path d="M130.25,322.4s97.92-54.23,208.9-151.42" fill="none" stroke="#146621" stroke-linecap="round" stroke-miterlimit="10" stroke-width="1.91"/><path d="M368.1,115.9s-102.53,107.39-239.97,208.36" fill="none" opacity=".6" stroke="#146621" stroke-linecap="round" stroke-miterlimit="10" stroke-width="1.91"/><path d="M135.32,317.41l-2.94,4.63c-.96,1.5-2.21,2.79-3.68,3.79l-5.99,4.08c-.19.13-.44.16-.66.06l-.32-.14c-.38-.16.49-1.33.59-1.73l.04-.18c.05-.19.14-.36.28-.49l7.19-7.38c.84-.83,3.68-2.9,4.82-3.2l.22-.06c.35-.09.64.3.44.61Z" fill="#dbb072" stroke-width="0"/><path d="M121.21,333.5s109.07-50.41,226.57-122.35" fill="none" opacity=".6" stroke="#146621" stroke-linecap="round" stroke-miterlimit="10" stroke-width="1.91"/><path d="M371.4,165.92s-104.27,93.42-252.32,169.43" fill="none" stroke="#168723" stroke-linecap="round" stroke-miterlimit="10" stroke-width="1.91"/><path d="M127.25,329.92l-3.8,3.95c-1.24,1.28-2.72,2.3-4.36,2.98l-5.64,3.2c-.22.09-.46.06-.66-.07l-.28-.2c-.34-.24.61-1.43.79-1.81l.08-.16c.08-.17.21-.32.37-.43l7.61-5.96c.99-.65,4.18-2.11,5.36-2.18h.23c.37-.03.57.41.31.67Z" fill="#e9cb95" stroke-width="0"/><path d="M74.8,391.59s97.07,12.89,220.21,20.55" fill="none" stroke="#168723" stroke-linecap="round" stroke-miterlimit="10" stroke-width="1.91"/><path d="M321.67,391.99s-97.53,4.04-248.54-.55" fill="none" stroke="#146621" stroke-linecap="round" stroke-miterlimit="10" stroke-width="1.91"/><path d="M82.94,391.45l-5.35,1.17c-1.21.26-2.45.36-3.69.27-.88-.06-1.75-.2-2.64-.23-.55-.02-1.09-.03-1.64-.02-.5,0-1.01.07-1.51-.02-.23-.04-.42-.2-.51-.42l-.13-.32c-.15-.38,1.31-.85,1.66-1.06l.16-.09c.16-.1.35-.15.55-.15l7.35-1.14c1.18.01,4.65.56,5.67,1.17l.2.12c.32.19.24.66-.12.74Z" fill="#e9cb95" stroke-width="0"/><path d="M105.1,355.1s88.76-16.99,244.62-64.46" fill="none" opacity=".6" stroke="#146621" stroke-linecap="round" stroke-miterlimit="10" stroke-width="1.91"/><path d="M368.91,265.27s-151.8,62.05-265.08,91.07" fill="none" stroke="#146621" stroke-linecap="round" stroke-miterlimit="10" stroke-width="1.91"/><path d="M112.02,353.38l-4.21,2.66c-1.37.86-2.89,1.44-4.47,1.69l-5.63,1.61c-.21.03-.42-.04-.55-.2l-.2-.23c-.24-.28.86-1.12,1.1-1.42l.1-.13c.11-.14.26-.24.42-.3l7.97-3.62c1.01-.36,4.11-.97,5.15-.78l.2.04c.32.06.4.49.12.66Z" fill="#e9cb95" stroke-width="0"/><path d="M84.5,379.09s124.59-8.06,250.52-40.65" fill="none" opacity=".6" stroke="#146621" stroke-linecap="round" stroke-miterlimit="10" stroke-width="1.91"/><path d="M355.28,320.34s-159.55,44.35-271.86,59.12" fill="none" opacity=".6" stroke="#146621" stroke-linecap="round" stroke-miterlimit="10" stroke-width="1.91"/><path d="M93.03,378.41l-3.28.73c-1.34.3-2.64.74-3.97,1.08-2.83.72-5.6,1.53-8.38,2.41-.21.04-.42-.03-.56-.18l-.21-.23c-.25-.27.83-1.15,1.06-1.45l.1-.13c.11-.14.25-.25.41-.31,1.77-.7,3.54-1.39,5.31-2.09,1.56-.61,3.15-.82,4.82-.76.92.04,1.9,0,2.84.06.5.03,1,.08,1.49.18.3.06.87.34.37.67Z" fill="#e9cb95" stroke-width="0"/><path d="M95.41,364.56s89.67-13.41,244.51-57.77" fill="none" opacity=".6" stroke="#146621" stroke-linecap="round" stroke-miterlimit="10" stroke-width="1.91"/><path d="M376.37,300.23s-161.9,56.11-282.24,65.57" fill="none" stroke="#146621" stroke-linecap="round" stroke-miterlimit="10" stroke-width="1.91"/><path d="M102.33,362.84l-4.21,2.66c-1.37.86-2.89,1.44-4.47,1.69l-5.63,1.61c-.21.03-.42-.04-.55-.2l-.2-.23c-.24-.28.86-1.12,1.1-1.42l.1-.13c.11-.14.26-.24.42-.3l7.97-3.62c1.01-.36,4.11-.97,5.15-.78l.2.04c.32.06.4.49.12.66Z" fill="#dbb072" stroke-width="0"/><path d="M81.84,387.17s107.23-3.41,266.88-29.96" fill="none" stroke="#168723" stroke-linecap="round" stroke-miterlimit="10" stroke-width="1.91"/><path d="M336.45,370.52s-134.19,23.19-258.54,15.9" fill="none" opacity=".6" stroke="#146621" stroke-linecap="round" stroke-miterlimit="10" stroke-width="1.91"/><path d="M86.6,385.71l-4.76,1.46c-1.54.47-3.16.63-4.76.46l-5.86.08c-.21-.02-.39-.15-.48-.34l-.13-.28c-.16-.33,1.13-.86,1.43-1.08l.13-.1c.14-.1.31-.16.48-.18l8.64-1.4c1.07-.08,4.22.14,5.18.6l.19.09c.3.14.25.57-.06.67Z" fill="#dbb072" stroke-width="0"/><path d="M135.58,308.74s46.66-72.59,130.2-221.02" fill="none" stroke="#146621" stroke-linecap="round" stroke-miterlimit="10" stroke-width="1.91"/><path d="M308.37,62.85s-82.09,140.53-174.27,248.3" fill="none" opacity=".6" stroke="#146621" stroke-linecap="round" stroke-miterlimit="10" stroke-width="1.91"/><path d="M141.84,302.93l-4.62,2.96c-1.5.96-2.78,2.22-3.78,3.69l-3.32,4.93c-.13.19-.15.44-.06.66l.14.32c.16.38.58.59.98.49l.18-.04c.19-.05.36-.14.49-.28l7.35-7.22c.83-.85,2.89-3.69,3.19-4.83l.06-.22c.09-.36-.3-.64-.61-.44Z" fill="#dbb072" stroke-width="0"/><path d="M116.56,329.9s5.41-77.66,39.8-249.02" fill="none" opacity=".6" stroke="#146621" stroke-linecap="round" stroke-miterlimit="10" stroke-width="1.91"/><path d="M180.4,65.39s-16.71,122.47-65.53,267.41" fill="none" stroke="#168723" stroke-linecap="round" stroke-miterlimit="10" stroke-width="1.91"/><path d="M119.92,322.7s-3.57,4.16-3.57,4.16c-1.17,1.36-1.87,3.06-2.71,4.63-.93,1.75-1.86,3.5-2.78,5.25-.09.16-.18.34-.18.52-.03.62.93,1.03,1.42.75l.16-.09c.17-.1.3-.24.39-.41l6.34-8.78c.55-1.05,1.71-4.36,1.66-5.54v-.23c-.02-.37-.48-.52-.72-.25Z" fill="#dbb072" stroke-width="0"/><path d="M73.96,376.44s-29.15-69.25-62.45-212.22" fill="none" opacity=".6" stroke="#146621" stroke-linecap="round" stroke-miterlimit="10" stroke-width="1.91"/><path d="M13.72,138.72s42.73,163.96,60.15,241.08" fill="none" stroke="#168723" stroke-linecap="round" stroke-miterlimit="10" stroke-width="1.91"/><path d="M72.12,368.27c.21,5.63.04,11.28.09,16.9,0,.19,0,.38.09.55.27.56,1.31.46,1.6-.02l.09-.16c.1-.16.15-.35.15-.55.36-2.09,1.01-4.17,1.13-6.3.18-3.2-.87-6.45-1.91-9.44-.11-.31-.21-.64-.38-.92l-.12-.2c-.19-.32-.66-.24-.74.12Z" fill="#e9cb95" stroke-width="0"/><path d="M-2.39,179.4s44.6,129.66,70.64,204.31" fill="none" opacity=".6" stroke="#146621" stroke-linecap="round" stroke-miterlimit="10" stroke-width="1.91"/><path d="M65.22,372.45c.85,5.57,1.32,11.2,2.01,16.78.02.18.05.38.15.53.34.53,1.35.31,1.59-.2l.08-.17c.08-.17.11-.37.09-.56.12-2.12.53-4.26.41-6.38-.19-3.2-1.59-6.31-2.97-9.16-.14-.29-.28-.61-.48-.87l-.14-.18c-.22-.29-.69-.16-.72.2Z" fill="#e9cb95" stroke-width="0"/><path d="M105.96,341.32s-10.59-69.36,10.76-233.63" fill="none" opacity=".6" stroke="#146621" stroke-linecap="round" stroke-miterlimit="10" stroke-width="1.91"/><path d="M135.43,72.47s-17.91,233.58-30.8,271.93" fill="none" opacity=".6" stroke="#146621" stroke-linecap="round" stroke-miterlimit="10" stroke-width="1.91"/><path d="M108.43,333.78l-3.04,4.56c-.99,1.48-1.66,3.15-1.98,4.9l-1.06,5.84c-.04.23.04.47.21.63l.25.23c.3.28.76.3,1.09.05l.14-.11c.15-.12.27-.27.34-.45l3.84-9.56c.42-1.11,1.17-4.54.98-5.7l-.04-.23c-.06-.36-.53-.46-.73-.16Z" fill="#e9cb95" stroke-width="0"/><path d="M82.46,364.15s-17.6-89.87-41.59-209.39" fill="none" opacity=".6" stroke="#146621" stroke-linecap="round" stroke-miterlimit="10" stroke-width="1.91"/><path d="M32.12,137.62s24.03,164.05,50.11,229.88" fill="none" opacity=".6" stroke="#146621" stroke-linecap="round" stroke-miterlimit="10" stroke-width="1.91"/><path d="M79.92,356.01l-.08,5.48c-.03,1.78.31,3.55,1,5.19l2.28,5.48c.09.22.28.37.51.41l.34.06c.41.07.81-.16.95-.55l.06-.17c.06-.18.08-.38.04-.56l-1.97-10.11c-.25-1.16-1.48-4.44-2.28-5.32l-.15-.17c-.25-.27-.7-.1-.7.26Z" fill="#e9cb95" stroke-width="0"/><path d="M97.19,346.98s-20.44-73.63-46.21-195.48" fill="none" opacity=".6" stroke="#146621" stroke-linecap="round" stroke-miterlimit="10" stroke-width="1.91"/><path d="M55.01,126.32s33.74,151.05,41.25,223.89" fill="none" stroke="#168723" stroke-linecap="round" stroke-miterlimit="10" stroke-width="1.91"/><path d="M95.96,338.7c-.4,3.37-1.13,6.71-1.14,10.12,0,2.11-.13,4.21-.25,6.31-.01.23.09.46.28.59l.28.2c.34.24.8.21,1.09-.08.48-.47.6-1.38.78-2.01.27-.94.5-1.9.68-2.86.34-1.86.77-4.13.34-5.98-.46-2-.67-4.03-1.25-6l-.06-.22c-.1-.35-.58-.39-.75-.07Z" fill="#e9cb95" stroke-width="0"/><path d="M91.84,355.43s-4.1-122.1-5.76-255.75" fill="none" opacity=".6" stroke="#146621" stroke-linecap="round" stroke-miterlimit="10" stroke-width="1.91"/><path d="M92.35,94.06s20.07,91.76-1.24,264.65" fill="none" opacity=".6" stroke="#146621" stroke-linecap="round" stroke-miterlimit="10" stroke-width="1.91"/><path d="M93.98,356.16c-.16,1-1.56,4.65-1.67,5.66-.09.85-.31,1.86-.9,2.51-.28.31-.73.37-1.08.15l-.29-.18c-.2-.13-.32-.34-.32-.58,0-1.14.14-2.28.2-3.42s.07-2.33.21-3.48c.13-1.08.48-2.17.83-3.2.48-.89.94-1.8,1.42-2.69.32-.6.65-1.19.88-1.83.19-.51.27-1.08.39-1.61.02-.09.04-.18.09-.26.15-.24.47-.19.5.1.02.28.08.57.1.85.03.61-.04,1.21-.12,1.81-.08.6-.19,1.2-.24,1.8s0,1.21.07,1.83c.09.86.09,1.68-.05,2.54Z" fill="#dbb072" stroke-width="0"/><path d="M124.37,320.46s37.19-107.99,103.04-260.84" fill="none" stroke="#146621" stroke-linecap="round" stroke-miterlimit="10" stroke-width="1.91"/><path d="M254.49,56.44s-75.94,147.88-130.62,266.77" fill="none" stroke="#168723" stroke-linecap="round" stroke-miterlimit="10" stroke-width="1.91"/><path d="M130.18,311.62l-4.72,4.59c-1.17,1.34-2.05,2.91-2.58,4.61l-1.79,5.66c-.07.22-.02.47.13.65l.22.26c.26.32.72.4,1.08.19l.16-.09c.17-.1.3-.24.39-.41l5.02-9c.49-.93,1.55-2.94,1.75-4.21.05-.34.12-.69.23-1.02l.02-.06c.07-.21.13-.43.15-.65.04-.36.14-.76-.05-.54Z" fill="#e9cb95" stroke-width="0"/><path d="M109.47,346.46s126.66-37.57,270.3-108.89" fill="none" stroke="#168723" stroke-linecap="round" stroke-miterlimit="10" stroke-width="1.91"/><path d="M388,210.58s-169.25,92.85-280.66,137.74" fill="none" opacity=".6" stroke="#146621" stroke-linecap="round" stroke-miterlimit="10" stroke-width="1.91"/><path d="M115.41,342.85l-3.8,3.99c-1.24,1.3-2.72,2.33-4.35,3.03l-5.62,3.26c-.21.09-.46.07-.65-.06l-.28-.19c-.34-.23.62-1.44.8-1.82l.08-.17c.08-.18.21-.33.37-.43l7.59-6.04c.99-.66,4.16-2.15,5.34-2.23h.23c.36-.04.56.4.3.67Z" fill="#dbb072" stroke-width="0"/><path d="M180.89,57.85l-4.92,10.3c-.38.79.01,1.81.58,1.48l3.47-1.99c.16-.09.33-.07.47.06l2.91,2.74c.47.44,1.09-.45.9-1.31l-2.4-11.16c-.15-.68-.71-.75-1.01-.12Z" fill="#168723" stroke-width="0"/><path d="M52.63,117.25l-1.73,11.43c-.13.88.63,1.7,1.11,1.2l3.01-3.1c.14-.15.33-.19.52-.11l4.02,1.56c.65.25,1-.81.51-1.55l-6.33-9.67c-.39-.59-1.01-.46-1.11.24Z" fill="#168723" stroke-width="0"/><path d="M12.08,132.36l-1.65,11.42c-.13.88.62,1.7,1.1,1.2l2.93-3.08c.14-.14.32-.18.51-.11l3.95,1.58c.64.26.98-.8.5-1.55l-6.25-9.69c-.38-.59-.99-.46-1.09.24Z" fill="#168723" stroke-width="0"/><path d="M258.33,47.37l-8.46,7.91c-.65.61-.55,1.73.15,1.64l4.33-.56c.2-.03.38.06.48.23l2.26,3.74c.37.6,1.3-.01,1.37-.9l.91-11.55c.06-.71-.52-.99-1.04-.5Z" fill="#168723" stroke-width="0"/><path d="M332.36,79.01l-8.55,7.69c-.66.59-.63,1.7.05,1.62l4.17-.49c.19-.02.36.06.45.24l1.93,3.72c.31.6,1.24,0,1.36-.87l1.56-11.4c.1-.7-.44-.98-.96-.51Z" fill="#168723" stroke-width="0"/><path d="M376.66,161.79l-11,3.31c-.85.25-1.3,1.26-.66,1.47l3.94,1.31c.18.06.29.21.3.4l.11,4.15c.02.67,1.11.53,1.6-.21l6.36-9.56c.39-.59.03-1.07-.64-.86Z" fill="#168723" stroke-width="0"/><path d="M382.71,235.36l-11.67.76c-.9.06-1.49,1.04-.86,1.43l3.87,2.45c.18.11.27.3.25.51l-.41,4.56c-.07.74,1.07.87,1.66.19l7.7-8.8c.47-.54.17-1.16-.55-1.11Z" fill="#168723" stroke-width="0"/><path d="M355.82,354.94l-11.49-2.19c-.88-.17-1.7.63-1.19,1.17l3.13,3.34c.15.16.19.36.12.56l-1.54,4.31c-.25.7.82,1.11,1.56.6l9.67-6.58c.59-.4.45-1.08-.25-1.21Z" fill="#168723" stroke-width="0"/><path d="M302.15,411.48l-10.7-4.37c-.82-.34-1.8.21-1.43.79l2.3,3.64c.11.17.1.36-.01.53l-2.47,3.52c-.4.57.55,1.16,1.39.86l10.9-3.84c.67-.24.68-.86.03-1.13Z" fill="#168723" stroke-width="0"/></g></g></svg>