<?xml version="1.0" encoding="UTF-8"?><svg id="_레이어_2" xmlns="http://www.w3.org/2000/svg" xmlns:xlink="http://www.w3.org/1999/xlink" viewBox="0 0 388 450"><defs><clipPath id="clippath"><rect y="0" width="388" height="450" rx="16" ry="16" fill="none" stroke-width="0"/></clipPath></defs><g id="_레이어_1-2"><g clip-path="url(#clippath)"><rect y="0" width="388" height="450" rx="16" ry="16" fill="#dadd55" stroke-width="0"/><polygon points="-8.79 204.44 -15.53 192.57 -29.14 191.44 38.81 98.86 46.69 103.9 -8.79 204.44" fill="#a53920" stroke-width="0"/><polygon points="58.1 77.36 19.87 107.92 39.39 106.65 46.42 124.89 58.1 77.36" fill="#a53920" stroke-width="0"/><polygon points="394.78 204.44 401.52 192.57 415.13 191.44 347.17 98.86 339.3 103.9 394.78 204.44" fill="#a53920" stroke-width="0"/><polygon points="327.88 77.36 366.12 107.92 346.6 106.65 339.57 124.89 327.88 77.36" fill="#a53920" stroke-width="0"/><path d="M210.6,450.99h-30l11.71-390.58c.05-1.78,1.51-3.19,3.29-3.19h0c1.78,0,3.23,1.41,3.29,3.19l11.71,390.58Z" fill="#146621" stroke-width="0"/><path d="M147.62,128.14c-1.66,0-3.28-.82-4.23-2.32-1.48-2.33-.79-5.41,1.53-6.89.15-.1,5.96-3.93,14.45-13.57,7.92-8.99,19.85-25,31.7-50.25,1.17-2.5,4.15-3.58,6.65-2.4,2.5,1.17,3.57,4.15,2.4,6.65-24.06,51.25-48.8,67.34-49.84,68-.83.53-1.76.78-2.67.78Z" fill="#146621" stroke-width="0"/><path d="M138,175.42c-2.01,0-3.98-1.01-5.11-2.85-1.74-2.82-.86-6.51,1.96-8.25.53-.33,37.53-23.77,55.13-71.19,1.15-3.11,4.6-4.69,7.71-3.54,3.11,1.15,4.69,4.61,3.54,7.71-19.13,51.55-58.42,76.2-60.08,77.23-.98.6-2.07.89-3.14.89Z" fill="#146621" stroke-width="0"/><path d="M127.43,230.34c-2.37,0-4.68-1.21-6-3.38-2-3.31-.94-7.61,2.37-9.61h0c.41-.25,41.3-25.51,65.47-77.02,1.64-3.5,5.81-5.01,9.31-3.36,3.5,1.64,5.01,5.81,3.36,9.31-26.05,55.52-69.08,81.95-70.9,83.05-1.13.68-2.38,1.01-3.61,1.01Z" fill="#146621" stroke-width="0"/><path d="M121.94,282.52c-2.58,0-5.11-1.24-6.65-3.55-2.46-3.67-1.48-8.64,2.19-11.1.63-.42,52.33-35.6,70.68-82.64,1.61-4.12,6.24-6.15,10.36-4.55,4.12,1.61,6.15,6.24,4.55,10.36-20.22,51.83-74.38,88.57-76.67,90.11-1.37.92-2.92,1.36-4.45,1.36Z" fill="#146621" stroke-width="0"/><path d="M107.99,347.11c-3.06,0-6.05-1.56-7.73-4.38-2.55-4.26-1.16-9.79,3.1-12.34h0c.52-.31,51.94-31.65,84.36-90.7,2.39-4.36,7.86-5.95,12.22-3.56,4.36,2.39,5.95,7.86,3.56,12.22-34.86,63.49-88.62,96.12-90.9,97.48-1.45.86-3.04,1.28-4.61,1.28Z" fill="#146621" stroke-width="0"/><path d="M95.66,412.23c-3.73,0-7.31-2.09-9.02-5.68-2.39-4.98-.29-10.95,4.69-13.34,59.51-28.53,95.33-87.68,95.68-88.28,2.83-4.74,8.97-6.29,13.71-3.47,4.74,2.83,6.3,8.96,3.48,13.7-1.57,2.63-39.13,64.87-104.22,96.08-1.39.67-2.87.99-4.32.99Z" fill="#146621" stroke-width="0"/><path d="M243.58,128.12c-.91,0-1.84-.25-2.67-.78-1.04-.66-25.78-16.75-49.84-68-1.17-2.5-.1-5.48,2.4-6.65,2.5-1.18,5.48-.1,6.65,2.4,11.85,25.24,23.78,41.26,31.7,50.25,8.56,9.72,14.4,13.53,14.46,13.57,2.31,1.49,2.99,4.58,1.51,6.9-.95,1.49-2.57,2.31-4.22,2.31Z" fill="#146621" stroke-width="0"/><path d="M253.2,175.4c-1.07,0-2.16-.29-3.14-.89-1.66-1.02-40.96-25.68-60.08-77.23-1.15-3.11.43-6.56,3.54-7.71,3.11-1.15,6.56.43,7.71,3.54,17.64,47.52,54.76,70.96,55.13,71.19,2.81,1.74,3.69,5.44,1.95,8.26-1.13,1.84-3.1,2.85-5.11,2.85Z" fill="#146621" stroke-width="0"/><path d="M263.77,230.33c-1.23,0-2.48-.33-3.61-1.01-1.82-1.1-44.85-27.53-70.9-83.05-1.64-3.5-.14-7.67,3.36-9.31,3.5-1.64,7.67-.14,9.31,3.36,24.26,51.71,65.05,76.76,65.46,77.01,3.31,2,4.37,6.3,2.38,9.61-1.31,2.18-3.63,3.38-6,3.38Z" fill="#146621" stroke-width="0"/><path d="M269.27,282.5c-1.53,0-3.08-.44-4.45-1.36-2.3-1.54-56.45-38.28-76.67-90.11-1.61-4.12.43-8.75,4.55-10.36,4.12-1.61,8.75.43,10.36,4.55,18.37,47.08,70.16,82.29,70.68,82.64,3.67,2.46,4.64,7.43,2.18,11.1-1.54,2.3-4.07,3.54-6.65,3.54Z" fill="#146621" stroke-width="0"/><path d="M283.22,347.09c-1.57,0-3.16-.41-4.61-1.28-2.27-1.36-56.03-33.99-90.9-97.48-2.39-4.36-.8-9.83,3.56-12.22,4.36-2.39,9.83-.8,12.22,3.56,32.42,59.05,83.85,90.39,84.36,90.7,4.26,2.56,5.64,8.08,3.09,12.34-1.69,2.82-4.67,4.38-7.73,4.38Z" fill="#146621" stroke-width="0"/><path d="M295.55,412.21c-1.45,0-2.92-.32-4.32-.99-65.09-31.21-102.65-93.44-104.22-96.08-2.82-4.75-1.27-10.88,3.48-13.71,4.74-2.82,10.88-1.27,13.7,3.47h0c.35.59,36.18,59.75,95.68,88.28,4.98,2.39,7.08,8.36,4.69,13.34-1.72,3.59-5.3,5.68-9.02,5.68Z" fill="#146621" stroke-width="0"/><path d="M415.51,418.77l-22.04,8.66-104.16-290.27c-.47-1.32.19-2.78,1.49-3.29h0c1.31-.51,2.78.1,3.33,1.39l121.37,283.51Z" fill="#146621" stroke-width="0"/><path d="M276.04,199.82c-1.22.48-2.64.34-3.78-.49-1.76-1.28-2.14-3.75-.86-5.5.08-.11,3.24-4.6,6.7-14.14,3.22-8.89,7.36-24.09,8.78-46.06.14-2.17,2.02-3.83,4.19-3.68,2.17.14,3.82,2.02,3.68,4.19-2.88,44.59-16.4,63.55-16.97,64.34-.46.63-1.07,1.08-1.74,1.34Z" fill="#146621" stroke-width="0"/><path d="M282.63,237.32c-1.48.58-3.22.4-4.58-.62-2.09-1.57-2.51-4.54-.94-6.63.29-.39,20.71-28.29,19.94-68.21-.05-2.61,2.03-4.77,4.64-4.83,2.61-.05,4.77,2.03,4.83,4.64.83,43.39-20.91,72.84-21.84,74.07-.55.73-1.26,1.25-2.05,1.56Z" fill="#146621" stroke-width="0"/><path d="M290.72,280.71c-1.74.68-3.79.47-5.38-.75-2.42-1.85-2.88-5.32-1.03-7.74h0c.23-.3,22.97-30.66,25.85-75.47.2-3.04,2.82-5.35,5.87-5.16,3.04.2,5.35,2.82,5.16,5.87-3.11,48.3-27.08,80.14-28.1,81.47-.63.83-1.46,1.43-2.36,1.78Z" fill="#146621" stroke-width="0"/><path d="M301.75,320.63c-1.89.74-4.11.56-5.91-.68-2.87-1.99-3.58-5.92-1.6-8.78.34-.49,28.16-41.26,28.05-81.1,0-3.49,2.81-6.32,6.3-6.33,3.49,0,6.32,2.81,6.33,6.3.11,43.91-29.06,86.53-30.3,88.32-.74,1.07-1.75,1.84-2.88,2.28Z" fill="#146621" stroke-width="0"/><path d="M310.15,372.1c-2.25.88-4.89.6-6.95-.99-3.1-2.4-3.68-6.85-1.29-9.96h0c.29-.38,29.01-38.24,35.78-90.98.5-3.89,4.06-6.64,7.95-6.14,3.89.5,6.64,4.06,6.14,7.95-7.28,56.7-37.35,96.19-38.62,97.84-.81,1.05-1.86,1.82-3.02,2.27Z" fill="#146621" stroke-width="0"/><path d="M319.9,423.49c-2.74,1.08-5.97.57-8.27-1.57-3.19-2.97-3.37-7.96-.4-11.15,35.47-38.14,44.71-91.93,44.8-92.47.71-4.3,4.77-7.21,9.07-6.5,4.3.71,7.21,4.76,6.51,9.06-.39,2.39-10.01,58.95-48.81,100.66-.83.89-1.82,1.55-2.89,1.97Z" fill="#146621" stroke-width="0"/><path d="M346.52,172.1c-.67.26-1.42.35-2.18.2-.96-.18-23.77-4.86-56.24-35.56-1.58-1.5-1.65-3.99-.16-5.58,1.5-1.59,3.99-1.65,5.58-.16,15.99,15.12,29.38,23.44,37.79,27.76,9.09,4.66,14.48,5.78,14.54,5.79,2.13.43,3.52,2.5,3.1,4.63-.27,1.37-1.22,2.44-2.43,2.91Z" fill="#146621" stroke-width="0"/><path d="M367.24,204.05c-.79.31-1.67.41-2.56.25-1.52-.27-37.5-7.04-66.43-39.38-1.74-1.95-1.58-4.94.37-6.69,1.95-1.74,4.94-1.58,6.69.37,26.67,29.82,60.71,36.31,61.05,36.37,2.57.47,4.28,2.93,3.81,5.5-.3,1.68-1.45,2.99-2.93,3.57Z" fill="#146621" stroke-width="0"/><path d="M390.86,241.34c-.9.36-1.92.48-2.94.3-1.65-.28-40.89-7.28-76.05-40.53-2.22-2.1-2.31-5.59-.22-7.81,2.1-2.22,5.59-2.31,7.81-.22,32.75,30.98,69.94,37.6,70.31,37.67,3.01.51,5.03,3.37,4.52,6.37-.34,1.98-1.69,3.53-3.43,4.22Z" fill="#146621" stroke-width="0"/><path d="M409.96,278.08c-1.12.44-2.39.57-3.66.29-2.13-.47-52.52-11.82-82.33-44.05-2.37-2.56-2.21-6.55.35-8.92,2.56-2.37,6.55-2.21,8.92.35,27.09,29.28,75.29,40.19,75.77,40.3,3.4.75,5.56,4.12,4.81,7.52-.47,2.14-1.97,3.78-3.86,4.52Z" fill="#146621" stroke-width="0"/><path d="M438.85,321.49c-1.15.45-2.44.61-3.75.39-2.06-.34-50.97-8.79-94.91-45.36-3.02-2.51-3.43-6.99-.92-10,2.51-3.02,6.99-3.43,10-.92,40.86,34.01,87.68,42.18,88.15,42.26,3.87.65,6.48,4.31,5.83,8.17-.43,2.56-2.17,4.56-4.41,5.45Z" fill="#146621" stroke-width="0"/><path d="M466.71,365.77c-1.06.42-2.24.61-3.45.52-56.82-4.13-102.38-39-104.29-40.48-3.44-2.67-4.07-7.63-1.4-11.07,2.67-3.44,7.62-4.07,11.07-1.4h0c.43.33,43.82,33.44,95.77,37.22,4.35.32,7.62,4.1,7.3,8.44-.23,3.13-2.25,5.7-4.99,6.78Z" fill="#146621" stroke-width="0"/><path d="M-27.51,418.77l22.04,8.66L98.68,137.16c.47-1.32-.19-2.78-1.49-3.29h0c-1.31-.51-2.78.1-3.33,1.39L-27.51,418.77Z" fill="#146621" stroke-width="0"/><path d="M111.96,199.82c1.22.48,2.64.34,3.78-.49,1.76-1.28,2.14-3.75.86-5.5-.08-.11-3.24-4.6-6.7-14.14-3.22-8.89-7.36-24.09-8.78-46.06-.14-2.17-2.02-3.83-4.19-3.68-2.17.14-3.82,2.02-3.68,4.19,2.88,44.59,16.4,63.55,16.97,64.34.46.63,1.07,1.08,1.74,1.34Z" fill="#146621" stroke-width="0"/><path d="M105.37,237.32c1.48.58,3.22.4,4.58-.62,2.09-1.57,2.51-4.54.94-6.63-.29-.39-20.71-28.29-19.94-68.21.05-2.61-2.03-4.77-4.64-4.83-2.61-.05-4.77,2.03-4.83,4.64-.83,43.39,20.91,72.84,21.84,74.07.55.73,1.26,1.25,2.05,1.56Z" fill="#146621" stroke-width="0"/><path d="M97.28,280.71c1.74.68,3.79.47,5.38-.75,2.42-1.85,2.88-5.32,1.03-7.74h0c-.23-.3-22.97-30.66-25.85-75.47-.2-3.04-2.82-5.35-5.87-5.16-3.04.2-5.35,2.82-5.16,5.87,3.11,48.3,27.08,80.14,28.1,81.47.63.83,1.46,1.43,2.36,1.78Z" fill="#146621" stroke-width="0"/><path d="M86.25,320.63c1.89.74,4.11.56,5.91-.68,2.87-1.99,3.58-5.92,1.6-8.78-.34-.49-28.16-41.26-28.05-81.1,0-3.49-2.81-6.32-6.3-6.33-3.49,0-6.32,2.81-6.33,6.3-.11,43.91,29.06,86.53,30.3,88.32.74,1.07,1.75,1.84,2.88,2.28Z" fill="#146621" stroke-width="0"/><path d="M77.85,372.1c2.25.88,4.89.6,6.95-.99,3.1-2.4,3.68-6.85,1.29-9.96h0c-.29-.38-29.01-38.24-35.78-90.98-.5-3.89-4.06-6.64-7.95-6.14-3.89.5-6.64,4.06-6.14,7.95,7.28,56.7,37.35,96.19,38.62,97.84.81,1.05,1.86,1.82,3.02,2.27Z" fill="#146621" stroke-width="0"/><path d="M68.1,423.49c2.74,1.08,5.97.57,8.27-1.57,3.19-2.97,3.37-7.96.4-11.15-35.47-38.14-44.71-91.93-44.8-92.47-.71-4.3-4.77-7.21-9.07-6.5-4.3.71-7.21,4.76-6.51,9.06.39,2.39,10.01,58.95,48.81,100.66.83.89,1.82,1.55,2.89,1.97Z" fill="#146621" stroke-width="0"/><path d="M41.48,172.1c.67.26,1.42.35,2.18.2.96-.18,23.77-4.86,56.24-35.56,1.58-1.5,1.65-3.99.16-5.58-1.5-1.59-3.99-1.65-5.58-.16-15.99,15.12-29.38,23.44-37.79,27.76-9.09,4.66-14.48,5.78-14.54,5.79-2.13.43-3.52,2.5-3.1,4.63.27,1.37,1.22,2.44,2.43,2.91Z" fill="#146621" stroke-width="0"/><path d="M20.76,204.05c.79.31,1.67.41,2.56.25,1.52-.27,37.5-7.04,66.43-39.38,1.74-1.95,1.58-4.94-.37-6.69-1.95-1.74-4.94-1.58-6.69.37-26.67,29.82-60.71,36.31-61.05,36.37-2.57.47-4.28,2.93-3.81,5.5.3,1.68,1.45,2.99,2.93,3.57Z" fill="#146621" stroke-width="0"/><path d="M-2.86,241.34c.9.36,1.92.48,2.94.3,1.65-.28,40.89-7.28,76.05-40.53,2.22-2.1,2.31-5.59.22-7.81-2.1-2.22-5.59-2.31-7.81-.22C35.79,224.06-1.4,230.68-1.77,230.75c-3.01.51-5.03,3.37-4.52,6.37.34,1.98,1.69,3.53,3.43,4.22Z" fill="#146621" stroke-width="0"/><path d="M-21.96,278.08c1.12.44,2.39.57,3.66.29,2.13-.47,52.52-11.82,82.33-44.05,2.37-2.56,2.21-6.55-.35-8.92-2.56-2.37-6.55-2.21-8.92.35-27.09,29.28-75.29,40.19-75.77,40.3-3.4.75-5.56,4.12-4.81,7.52.47,2.14,1.97,3.78,3.86,4.52Z" fill="#146621" stroke-width="0"/><path d="M-50.85,321.49c1.15.45,2.44.61,3.75.39,2.06-.34,50.97-8.79,94.91-45.36,3.02-2.51,3.43-6.99.92-10-2.51-3.02-6.99-3.43-10-.92-40.86,34.01-87.68,42.18-88.15,42.26-3.87.65-6.48,4.31-5.83,8.17.43,2.56,2.17,4.56,4.41,5.45Z" fill="#146621" stroke-width="0"/><path d="M-78.71,365.77c1.06.42,2.24.61,3.45.52,56.82-4.13,102.38-39,104.29-40.48,3.44-2.67,4.07-7.63,1.4-11.07-2.67-3.44-7.62-4.07-11.07-1.4h0c-.43.33-43.82,33.44-95.77,37.22-4.35.32-7.62,4.1-7.3,8.44.23,3.13,2.25,5.7,4.99,6.78Z" fill="#146621" stroke-width="0"/><polygon points="291.79 112.35 282.68 111.36 276.72 118.32 253 44.94 258.84 42.63 291.79 112.35" fill="#dd5c35" stroke-width="0"/><polygon points="248.87 25.99 250.49 58.82 257.46 47.69 270.16 51.03 248.87 25.99" fill="#dd5c35" stroke-width="0"/><polygon points="110.38 122.69 104.5 115.66 95.38 116.54 129.16 47.22 134.97 49.6 110.38 122.69" fill="#dd5c35" stroke-width="0"/><polygon points="139.32 30.7 117.73 55.48 130.47 52.29 137.31 63.5 139.32 30.7" fill="#dd5c35" stroke-width="0"/></g></g></svg>