<svg width="16" height="24" viewBox="0 0 16 24" fill="none" xmlns="http://www.w3.org/2000/svg">
<path d="M0.5 4.5C0.5 2.43 2.18 0.75 4.25 0.75H8V8.25H4.25C2.18 8.25 0.5 6.57 0.5 4.5Z" fill="#F24E1E"/>
<path d="M8 0.75H11.75C13.82 0.75 15.5 2.43 15.5 4.5C15.5 6.57 13.82 8.25 11.75 8.25H8V0.75Z" fill="#FF7262"/>
<path d="M0.5 12C0.5 9.93 2.18 8.25 4.25 8.25H8V15.75H4.25C2.18 15.75 0.5 14.07 0.5 12Z" fill="#A259FF"/>
<path d="M15.5 12C15.5 14.07 13.82 15.75 11.75 15.75C9.68 15.75 8 14.07 8 12C8 9.93 9.68 8.25 11.75 8.25C13.82 8.25 15.5 9.93 15.5 12Z" fill="#1ABCFE"/>
<path d="M4.25 23.25C6.32 23.25 8 21.57 8 19.5V15.75H4.25C2.18 15.75 0.5 17.43 0.5 19.5C0.5 21.57 2.18 23.25 4.25 23.25Z" fill="#0ACF83"/>
</svg>
