<svg width="30" height="26" viewBox="0 0 30 26" fill="none" xmlns="http://www.w3.org/2000/svg">
<g clip-path="url(#clip0_87_177)">
<path d="M11.7691 14.3119C11.8782 12.3659 12.8311 10.6516 14.2688 9.43622C15.6785 8.24255 17.576 7.51294 19.6465 7.51294C21.7148 7.51294 23.6125 8.24255 25.0233 9.43622C26.4598 10.6515 27.4127 12.3659 27.5229 14.3098C27.6319 16.3093 26.8282 18.1667 25.4184 19.5435C23.9809 20.944 21.9361 21.8228 19.6465 21.8228C17.3569 21.8228 15.3081 20.944 13.8715 19.5435C12.4607 18.1666 11.659 16.3092 11.7691 14.3119Z" fill="white"/>
<path d="M15.6056 14.4854C15.6615 13.4869 16.1506 12.6072 16.8881 11.9837C17.6115 11.3712 18.5851 10.9968 19.6475 10.9968C20.7088 10.9968 21.6825 11.3712 22.4064 11.9837C23.1435 12.6072 23.6324 13.4869 23.6889 14.4844C23.7449 15.5103 23.3326 16.4634 22.6091 17.1698C21.8715 17.8884 20.8223 18.3393 19.6475 18.3393C18.4727 18.3393 17.4214 17.8884 16.6843 17.1698C15.9605 16.4634 15.5491 15.5103 15.6056 14.4854Z" fill="#265787"/>
<path d="M9.18869 16.5367C9.19572 16.9281 9.32052 17.6891 9.5079 18.2833C9.90154 19.5411 10.5693 20.7047 11.4985 21.7301C12.452 22.7842 13.6261 23.6309 14.9824 24.232C16.4079 24.8632 17.9524 25.1849 19.5567 25.1823C21.1584 25.1801 22.7031 24.8521 24.1286 24.216C25.4848 23.6091 26.6578 22.7588 27.6099 21.7042C28.5385 20.6745 29.2051 19.5088 29.5999 18.2511C29.7983 17.6155 29.9237 16.9705 29.974 16.3233C30.0232 15.6848 30.0024 15.0429 29.9121 14.4089C29.7354 13.1655 29.3051 11.9987 28.6426 10.9352C28.0368 9.95781 27.2558 9.10223 26.3271 8.38199L26.3292 8.38047L16.9577 1.18457C16.9492 1.17824 16.9423 1.17145 16.9333 1.16559C16.3185 0.693556 15.2844 0.695197 14.6083 1.16817C13.9246 1.64653 13.8463 2.43766 14.4547 2.93652L14.4522 2.93922L18.3609 6.11781L6.44732 6.13047H6.43138C5.44665 6.13164 4.50013 6.7777 4.31263 7.59414C4.12009 8.42594 4.789 9.11594 5.81286 9.11969L5.81122 9.12332L11.8499 9.1116L1.07427 17.3828C1.06056 17.3929 1.04568 17.4034 1.03302 17.4135C0.0165364 18.1919 -0.312057 19.4862 0.328138 20.3052C0.977943 21.1382 2.35958 21.1397 3.38661 20.31L9.26755 15.497C9.26755 15.497 9.18177 16.1467 9.18869 16.5367ZM24.3006 18.7124C23.0889 19.947 21.3924 20.647 19.5568 20.6507C17.7185 20.6539 16.0221 19.9601 14.8104 18.7278C14.2183 18.1272 13.7834 17.4361 13.515 16.7001C13.2513 15.9757 13.1498 15.2023 13.2177 14.4344C13.2817 13.6771 13.5072 12.9549 13.8669 12.3013C14.2204 11.659 14.7072 11.0785 15.3083 10.5875C16.4861 9.6277 17.9857 9.10797 19.554 9.10586C21.1241 9.10375 22.6226 9.61867 23.8016 10.5754C24.4016 11.0642 24.8879 11.6426 25.2414 12.284C25.6059 12.941 25.828 13.6674 25.8933 14.4159C25.9602 15.1833 25.8583 15.9561 25.5948 16.6799C25.326 17.4182 24.8926 18.1093 24.3006 18.7124Z" fill="#EA7600"/>
</g>
<defs>
<clipPath id="clip0_87_177">
<rect width="30" height="24.375" fill="white" transform="translate(0 0.8125)"/>
</clipPath>
</defs>
</svg>
