<svg width="22" height="20" viewBox="0 0 22 20" fill="none" xmlns="http://www.w3.org/2000/svg">
<path d="M11.0486 15.2614H4.89421L3.64192 19.1512C3.62488 19.2222 3.58362 19.285 3.52525 19.3288C3.46688 19.3725 3.39506 19.3946 3.32218 19.3911H0.204961C0.0273266 19.3911 -0.0348843 19.2933 0.0184837 19.0979L5.34706 3.75179C5.40027 3.59199 5.45364 3.41002 5.50685 3.2057C5.57666 2.85012 5.61235 2.48895 5.61343 2.1267C5.60981 2.10136 5.61213 2.07553 5.62021 2.05124C5.6283 2.02695 5.64193 2.00488 5.66002 1.98678C5.67812 1.96867 5.70017 1.95502 5.72445 1.94691C5.74873 1.93881 5.77457 1.93646 5.79991 1.94007H10.0361C10.1603 1.94007 10.2313 1.98459 10.2493 2.07349L16.2971 19.1246C16.3505 19.3023 16.2971 19.3912 16.1373 19.3911H12.6737C12.6142 19.3977 12.5543 19.3824 12.5053 19.3481C12.4563 19.3138 12.4215 19.2628 12.4073 19.2046L11.0486 15.2614ZM5.85328 11.9045H10.0628L10.0028 11.7064L9.90645 11.3927L9.83772 11.1724L9.72804 10.8255L9.49487 10.0953L9.28977 9.44789L8.75718 7.76152C8.62462 7.34231 8.49739 6.92144 8.37554 6.499L8.27811 6.15614L8.16424 5.75076L7.99048 5.12244L7.9579 5.00407H7.93137C7.79807 5.64358 7.63573 6.27669 7.44485 6.90143L7.04956 8.17295L6.83205 8.87542L6.61253 9.58658C6.57281 9.71504 6.53341 9.8421 6.49385 9.96761L6.37594 10.3396L6.25866 10.703L6.14199 11.0573L6.02595 11.4028C5.98747 11.5165 5.949 11.6287 5.91068 11.7395L5.85328 11.9045ZM19.8936 4.76423C19.6218 4.77514 19.3508 4.72857 19.0983 4.62757C18.8458 4.52657 18.6175 4.37341 18.4283 4.17811C18.2395 3.97433 18.0929 3.73526 17.9969 3.47463C17.9009 3.21401 17.8573 2.93697 17.8687 2.65945C17.859 2.38472 17.9074 2.11103 18.0107 1.85627C18.114 1.60151 18.2699 1.3714 18.4681 1.18097C18.8506 0.813854 19.3599 0.60841 19.89 0.607422L19.9468 0.608043C20.5863 0.608043 21.0881 0.798864 21.4522 1.18082C21.636 1.37927 21.7788 1.61202 21.8725 1.86575C21.9663 2.11947 22.009 2.38919 21.9983 2.65945C22.0095 2.93808 21.9646 3.2161 21.8662 3.47702C21.7678 3.73793 21.6179 3.9764 21.4256 4.17827C21.2313 4.36971 21.0008 4.52035 20.7474 4.62133C20.4941 4.72231 20.2232 4.77158 19.9505 4.76624L19.8936 4.76423ZM18.0551 19.1246V6.38947C18.0551 6.22967 18.1259 6.14962 18.2683 6.14962H21.5455C21.6874 6.14962 21.7585 6.22952 21.7586 6.38947V19.1246C21.7586 19.3023 21.6876 19.3912 21.5455 19.3911H18.295C18.1436 19.3911 18.0638 19.3113 18.0559 19.1519L18.0551 19.1246Z" fill="#FF9A00"/>
</svg>
