<svg width="24" height="24" viewBox="0 0 24 24" fill="none" xmlns="http://www.w3.org/2000/svg">
<path d="M21.7575 3.77252L17.433 1.69052C17.1889 1.57254 16.914 1.53356 16.6467 1.57899C16.3793 1.62442 16.1328 1.75201 15.9413 1.94402L1.78502 14.85C1.61326 15.0059 1.51045 15.2236 1.4992 15.4552C1.48795 15.6869 1.56918 15.9135 1.72502 16.0853C1.74352 16.1053 1.76277 16.1245 1.78277 16.143L2.93852 17.193C3.08954 17.3305 3.28394 17.4107 3.48795 17.4197C3.69195 17.4288 3.89268 17.3661 4.05527 17.2425L21.1065 4.31252C21.2353 4.21478 21.3888 4.15494 21.5498 4.13973C21.7107 4.12451 21.8728 4.15453 22.0176 4.22639C22.1624 4.29826 22.2843 4.40913 22.3695 4.54651C22.4548 4.68389 22.5 4.84234 22.5 5.00402V4.95377C22.4998 4.70698 22.4301 4.46525 22.2987 4.25631C22.1674 4.04737 21.9798 3.87969 21.7575 3.77252Z" fill="#0065A9"/>
<path d="M21.7575 20.2276L17.433 22.3104C17.1887 22.4278 16.914 22.4665 16.6468 22.421C16.3796 22.3756 16.1331 22.2484 15.9413 22.0569L1.78502 9.15011C1.61326 8.99426 1.51045 8.77656 1.4992 8.54491C1.48795 8.31326 1.56918 8.08662 1.72502 7.91486C1.74352 7.89486 1.76277 7.87561 1.78277 7.85711L2.93852 6.80711C3.0897 6.66908 3.28454 6.58851 3.48905 6.57947C3.69356 6.57042 3.89475 6.63347 4.05752 6.75761L21.1065 19.6876C21.2353 19.7853 21.3888 19.8452 21.5498 19.8604C21.7107 19.8756 21.8728 19.8456 22.0176 19.7737C22.1624 19.7019 22.2843 19.591 22.3695 19.4536C22.4548 19.3162 22.5 19.1578 22.5 18.9961V19.0501C22.4991 19.2963 22.429 19.5372 22.2977 19.7454C22.1664 19.9536 21.9792 20.1207 21.7575 20.2276Z" fill="#007ACC"/>
<path d="M17.433 22.3103C17.1887 22.4277 16.914 22.4664 16.6468 22.421C16.3795 22.3756 16.133 22.2483 15.9412 22.0568C16.0489 22.1631 16.1856 22.2352 16.3341 22.2642C16.4827 22.2931 16.6364 22.2776 16.7762 22.2196C16.9159 22.1615 17.0354 22.0635 17.1197 21.9378C17.204 21.8121 17.2493 21.6644 17.25 21.513V2.48703C17.2501 2.335 17.2051 2.18635 17.1207 2.05991C17.0363 1.93348 16.9162 1.83494 16.7757 1.77679C16.6353 1.71864 16.4807 1.7035 16.3316 1.73327C16.1825 1.76304 16.0456 1.83639 15.9382 1.94403C16.1296 1.7519 16.3761 1.62418 16.6435 1.57861C16.9108 1.53305 17.1857 1.5719 17.43 1.68978L21.7537 3.76878C21.9767 3.87543 22.1651 4.04288 22.2971 4.25185C22.4291 4.46083 22.4995 4.70285 22.5 4.95003V19.05C22.4999 19.297 22.4301 19.539 22.2986 19.7481C22.1671 19.9572 21.9793 20.1249 21.7567 20.232L17.433 22.3103Z" fill="#1F9CF0"/>
</svg>
