<svg width="22" height="24" viewBox="0 0 22 24" fill="none" xmlns="http://www.w3.org/2000/svg">
<path d="M1.92592 21.6009L0 0H21.1622L19.2342 21.5977L10.5682 24L1.92592 21.6009Z" fill="#E44D26"/>
<path d="M10.5873 22.0983L17.5899 20.1568L19.2375 1.70068H10.5873V22.0983Z" fill="#F16529"/>
<path d="M10.5873 9.71226H7.08154L6.83938 6.99923H10.5873V4.3501H3.94405L4.00757 5.06079L4.65859 12.3616H10.5873V9.71226ZM10.5873 16.5926L10.5755 16.5959L7.62514 15.799L7.43669 13.6863H4.77698L5.14811 17.846L10.5751 19.3525L10.5873 19.3492V16.5926Z" fill="#EBEBEB"/>
<path d="M10.578 9.71226V12.3616H13.8403L13.5328 15.7974L10.578 16.595V19.3513L16.0093 17.846L16.0492 17.3984L16.6717 10.4237L16.7362 9.71226H16.0224H10.578ZM10.578 4.3501V6.99923H16.9774L17.0305 6.40403L17.1514 5.06079L17.2147 4.3501H10.578Z" fill="white"/>
</svg>
