<svg width="22" height="22" viewBox="0 0 22 22" fill="none" xmlns="http://www.w3.org/2000/svg">
<g clip-path="url(#clip0_87_214)">
<path d="M0 0H22V22H0V0Z" fill="#F7DF1E"/>
<path d="M5.78462 18.3848L7.46813 17.3659C7.79298 17.9418 8.08843 18.4291 8.79716 18.4291C9.47649 18.4291 9.90489 18.1634 9.90489 17.1297V10.1002H11.9723V17.1589C11.9723 19.3002 10.7171 20.2749 8.88576 20.2749C7.23189 20.2749 6.27188 19.4184 5.78453 18.3846M13.0952 18.1633L14.7786 17.1887C15.2218 17.9123 15.7977 18.4439 16.8166 18.4439C17.6733 18.4439 18.2195 18.0156 18.2195 17.4249C18.2195 16.7161 17.6583 16.465 16.7132 16.0516L16.1965 15.8299C14.7048 15.1951 13.7154 14.3976 13.7154 12.7141C13.7154 11.1634 14.8968 9.98193 16.7429 9.98193C18.0572 9.98193 19.0023 10.4398 19.6816 11.636L18.0718 12.6698C17.7173 12.0348 17.3335 11.7838 16.7428 11.7838C16.1372 11.7838 15.7533 12.1678 15.7533 12.6698C15.7533 13.29 16.1373 13.5412 17.0233 13.9252L17.5401 14.1466C19.2975 14.8999 20.2869 15.6677 20.2869 17.3954C20.2869 19.2563 18.8249 20.2752 16.8608 20.2752C14.9411 20.2752 13.7006 19.3596 13.0951 18.1634" fill="black"/>
</g>
<defs>
<clipPath id="clip0_87_214">
<rect width="22" height="22" fill="white"/>
</clipPath>
</defs>
</svg>
