<svg width="22" height="18" viewBox="0 0 22 18" fill="none" xmlns="http://www.w3.org/2000/svg">
<path d="M0 16.7055V1.01118C0 0.89677 0.0491972 0.839278 0.147449 0.839278L0.302907 0.838849L0.568631 0.835988L0.937898 0.828695L2.17498 0.802523L3.50146 0.777924C3.96797 0.769915 4.43049 0.765625 4.889 0.765625C6.13323 0.765625 7.18111 0.921226 8.03277 1.23229C8.801 1.49214 9.50162 1.92004 10.0836 2.48482C10.577 2.9744 10.9583 3.5652 11.2011 4.21645C11.4309 4.85019 11.5473 5.51941 11.5451 6.1935C11.5451 7.50367 11.242 8.5843 10.6362 9.43553C10.0437 10.266 9.21718 10.9011 8.26217 11.2598L8.18022 11.2899C7.18297 11.6619 6.0786 11.7963 4.8674 11.8047L4.67919 11.8053L4.39988 11.8039L4.25901 11.8019L4.10198 11.7982L4.0073 11.7944L3.94981 11.7914L3.80837 11.7863L3.63546 11.7827L3.37517 11.7808L3.31725 11.7807V16.6809C3.32156 16.7109 3.31881 16.7415 3.30922 16.7703C3.29963 16.7991 3.28346 16.8253 3.26201 16.8467C3.24055 16.8682 3.21439 16.8843 3.1856 16.8939C3.15681 16.9035 3.12619 16.9063 3.09615 16.902H0.172048C0.0572062 16.902 0 16.8367 0 16.7055ZM3.31739 3.78655V8.90537C3.51341 8.92119 3.70997 8.92939 3.90662 8.92997H4.71723C5.2761 8.92809 5.83173 8.84489 6.36663 8.68298L6.47332 8.64966C6.95995 8.50512 7.39478 8.22374 7.726 7.83904C8.03377 7.47607 8.19323 6.97594 8.20424 6.33852L8.20496 6.26716C8.21783 5.79206 8.09427 5.32325 7.84871 4.91637C7.59063 4.52287 7.21761 4.21841 6.78038 4.0444C6.20945 3.82251 5.59961 3.71812 4.98739 3.73749L4.6759 3.73835L4.4794 3.74007L4.2919 3.7425L4.02733 3.74765L3.83425 3.75308L3.734 3.7568L3.59999 3.76309L3.48587 3.7701L3.4208 3.77525L3.36459 3.78068L3.33985 3.78354L3.31739 3.78655ZM21.0413 7.97462C20.6129 7.75445 20.1584 7.58907 19.6887 7.48236L19.58 7.45891C19.0632 7.34032 18.5356 7.275 18.0055 7.26398L17.8731 7.2624C17.5624 7.25399 17.252 7.29123 16.9521 7.37296C16.7611 7.41541 16.5914 7.52415 16.473 7.67987C16.393 7.80445 16.3504 7.9494 16.3503 8.09747C16.3548 8.24108 16.4065 8.37919 16.4976 8.49034C16.6279 8.64279 16.7846 8.77053 16.9602 8.86747L17.0134 8.89565C17.3636 9.08419 17.7244 9.25228 18.0941 9.39906C18.9184 9.675 19.706 10.0503 20.4395 10.5166C20.9393 10.832 21.3529 11.2667 21.6432 11.7816C21.8871 12.269 22.0093 12.8083 21.9993 13.3533C22.014 14.0731 21.8083 14.7801 21.4098 15.3797C20.9831 15.9882 20.3906 16.4613 19.7027 16.7426C18.9823 17.0593 18.0976 17.2227 17.0488 17.2335L16.9398 17.234C16.2896 17.2406 15.6402 17.1837 15.0011 17.0641L14.8643 17.0375C14.3262 16.9388 13.8023 16.7738 13.3048 16.5463C13.2548 16.5205 13.2125 16.4818 13.1823 16.4343C13.1521 16.3869 13.135 16.3322 13.1329 16.276V13.599C13.1299 13.573 13.1341 13.5467 13.1449 13.5229C13.1557 13.4991 13.1728 13.4787 13.1944 13.4639C13.2154 13.4519 13.2397 13.4467 13.2638 13.4489C13.2879 13.4511 13.3108 13.4606 13.3294 13.4762C13.917 13.8226 14.555 14.0754 15.2205 14.2253C15.807 14.3723 16.4088 14.4507 17.0134 14.4587C17.5864 14.4587 18.008 14.3849 18.2783 14.2376C18.4003 14.1817 18.5036 14.0916 18.5755 13.9783C18.6474 13.865 18.685 13.7332 18.6836 13.599C18.6836 13.3865 18.5607 13.1817 18.3152 12.985C18.2122 12.9027 18.0645 12.813 17.8723 12.7162L17.7803 12.671L17.6822 12.6248L17.6307 12.6013L17.5229 12.5536C17.5042 12.5454 17.4854 12.5373 17.4667 12.5292L17.3494 12.4801L17.2883 12.455L17.1616 12.4043L17.0958 12.3785L16.9595 12.326L16.8169 12.2727C16.0457 12.0043 15.3145 11.6325 14.6432 11.1675C14.1632 10.8336 13.7679 10.392 13.489 9.87802C13.2474 9.39405 13.1253 8.85927 13.1329 8.31843C13.1315 7.66859 13.31 7.03105 13.6486 6.47639C14.0347 5.86571 14.589 5.37946 15.2451 5.07655C15.9654 4.71658 16.8659 4.53638 17.9466 4.53609C18.5796 4.53101 19.212 4.5762 19.8379 4.67124C20.291 4.72872 20.7341 4.84856 21.1545 5.02735C21.2221 5.0468 21.2766 5.09672 21.3018 5.1625C21.3185 5.22243 21.3267 5.28435 21.3264 5.34671V7.82732C21.3299 7.88595 21.3018 7.94216 21.2527 7.97462C21.2199 7.99095 21.1837 7.99945 21.147 7.99945C21.1104 7.99945 21.0742 7.99095 21.0413 7.97462Z" fill="#31A8FF"/>
</svg>
