<svg width="57" height="48" viewBox="0 0 57 48" fill="none" xmlns="http://www.w3.org/2000/svg">
<path d="M14.2682 30.8641H9.96819V47.88H14.2682V30.8641Z" fill="#317039"/>
<path d="M12.1052 27.7764L9.06459 30.817L21.0966 42.8491L24.1372 39.8085L12.1052 27.7764Z" fill="#317039"/>
<path d="M12.032 27.778L0 39.8101L3.04059 42.8506L15.0726 30.8186L12.032 27.778Z" fill="#317039"/>
<path d="M14.2682 16.9757H9.96819V33.9916H14.2682V16.9757Z" fill="#317039"/>
<path d="M12.1053 13.8882L9.06471 16.9288L21.0967 28.9609L24.1373 25.9203L12.1053 13.8882Z" fill="#317039"/>
<path d="M12.0322 13.8898L0.00012207 25.9219L3.04071 28.9625L15.0727 16.9304L12.0322 13.8898Z" fill="#317039"/>
<path d="M14.2682 3.0874H9.96819V20.1033H14.2682V3.0874Z" fill="#317039"/>
<path d="M12.1054 -5.88722e-05L9.06483 3.04053L21.0969 15.0726L24.1375 12.032L12.1054 -5.88722e-05Z" fill="#317039"/>
<path d="M12.0323 0.00165516L0.000244141 12.0337L3.04083 15.0743L15.0729 3.04224L12.0323 0.00165516Z" fill="#317039"/>
<path d="M46.2682 30.8641H41.9682V47.88H46.2682V30.8641Z" fill="#317039"/>
<path d="M44.1052 27.7764L41.0646 30.817L53.0966 42.8491L56.1372 39.8085L44.1052 27.7764Z" fill="#317039"/>
<path d="M44.032 27.778L32 39.8101L35.0406 42.8506L47.0726 30.8186L44.032 27.778Z" fill="#317039"/>
<path d="M46.2682 16.9757H41.9682V33.9916H46.2682V16.9757Z" fill="#317039"/>
<path d="M44.1053 13.8882L41.0647 16.9288L53.0967 28.9609L56.1373 25.9203L44.1053 13.8882Z" fill="#317039"/>
<path d="M44.0322 13.8898L32.0001 25.9219L35.0407 28.9625L47.0727 16.9304L44.0322 13.8898Z" fill="#317039"/>
<path d="M46.2682 3.0874H41.9682V20.1033H46.2682V3.0874Z" fill="#317039"/>
<path d="M44.1054 -5.88722e-05L41.0648 3.04053L53.0969 15.0726L56.1375 12.032L44.1054 -5.88722e-05Z" fill="#317039"/>
<path d="M44.0323 0.00165516L32.0002 12.0337L35.0408 15.0743L47.0729 3.04224L44.0323 0.00165516Z" fill="#317039"/>
</svg>
