<svg width="48" height="50" viewBox="0 0 48 50" fill="none" xmlns="http://www.w3.org/2000/svg">
<path d="M13.4832 17.9963H9.58044V33.0692H13.4832V17.9963Z" fill="#317039"/>
<path d="M11.498 15.3054L8.71765 17.9844L19.7197 28.5856L22.5 25.9066L11.498 15.3054Z" fill="#317039"/>
<path d="M11.4311 15.307L0.429077 25.9082L3.20938 28.5872L14.2114 17.986L11.4311 15.307Z" fill="#317039"/>
<path d="M13.4832 31.0532H9.58044V46.1261H13.4832V31.0532Z" fill="#317039"/>
<path d="M11.498 28.3623L8.71765 31.0413L19.7197 41.6425L22.5 38.9635L11.498 28.3623Z" fill="#317039"/>
<path d="M11.4311 28.3639L0.429077 38.9651L3.20938 41.6441L14.2114 31.0429L11.4311 28.3639Z" fill="#317039"/>
<path d="M38.5542 4.93945H34.6514V20.0123H38.5542V4.93945Z" fill="#317039"/>
<path d="M36.5689 2.24848L33.7886 4.92749L44.7906 15.5287L47.5709 12.8497L36.5689 2.24848Z" fill="#317039"/>
<path d="M36.5021 2.25011L25.5 12.8513L28.2803 15.5303L39.2824 4.92911L36.5021 2.25011Z" fill="#317039"/>
<path d="M38.5542 17.9963H34.6514V33.0692H38.5542V17.9963Z" fill="#317039"/>
<path d="M36.5689 15.3054L33.7886 17.9844L44.7906 28.5856L47.5709 25.9066L36.5689 15.3054Z" fill="#317039"/>
<path d="M36.5021 15.307L25.5 25.9082L28.2803 28.5872L39.2824 17.986L36.5021 15.307Z" fill="#317039"/>
<path d="M38.5542 31.0532H34.6514V46.1261H38.5542V31.0532Z" fill="#317039"/>
<path d="M36.5689 28.3623L33.7886 31.0413L44.7906 41.6425L47.5709 38.9635L36.5689 28.3623Z" fill="#317039"/>
<path d="M36.5021 28.3639L25.5 38.9651L28.2803 41.6441L39.2824 31.0429L36.5021 28.3639Z" fill="#317039"/>
</svg>
