<svg width="22" height="24" viewBox="0 0 22 24" fill="none" xmlns="http://www.w3.org/2000/svg">
<path d="M2.34486 21.6007L0.419067 0H21.5809L19.6532 21.5975L10.9872 24L2.34486 21.6007Z" fill="#1572B6"/>
<path d="M11.0002 22.1635L18.0029 20.222L19.6504 1.76587H11.0002V22.1635Z" fill="#33A9DC"/>
<path d="M11.0002 9.59209H14.5059L14.748 6.87924H11.0002V4.22998H17.6434L17.5798 4.9408L16.9285 12.2413H11.0002V9.59209Z" fill="white"/>
<path d="M11.0159 16.472L11.0042 16.4755L8.05386 15.6788L7.86519 13.5659H5.20616L5.57718 17.7257L11.0038 19.2318L11.0159 19.2284V16.472Z" fill="#EBEBEB"/>
<path d="M14.2806 12.1292L13.9615 15.6769L11.0067 16.4745V19.2309L16.4378 17.7257L16.4776 17.2781L16.9385 12.1292H14.2806Z" fill="white"/>
<path d="M11.0092 4.22998V6.87924H4.61007L4.55701 6.28392L4.43634 4.9408L4.37294 4.22998H11.0092ZM11.0002 9.59247V12.2417H8.087L8.03394 11.6464L7.91307 10.3033L7.84986 9.59247H11.0002Z" fill="#EBEBEB"/>
</svg>
