<svg width="28" height="18" viewBox="0 0 28 18" fill="none" xmlns="http://www.w3.org/2000/svg">
<path d="M10.607 13.204H4.6985L3.49627 16.9455C3.48086 17.0096 3.4448 17.0669 3.39364 17.1085C3.34249 17.1502 3.27906 17.1738 3.21314 17.1759L0.196847 17.1757C0.0261645 17.1757 -0.0335593 17.0819 0.0178243 16.8942L5.1334 2.2225L5.18448 2.06835L5.20146 2.01562L5.23572 1.90541C5.2527 1.84851 5.26968 1.78819 5.2868 1.72281C5.35383 1.38159 5.38808 1.03472 5.38912 0.686947C5.38567 0.662632 5.38792 0.637846 5.39569 0.614549C5.40347 0.591253 5.41655 0.570085 5.43392 0.552719C5.45129 0.535353 5.47245 0.522265 5.49575 0.514491C5.51905 0.506716 5.54383 0.504467 5.56815 0.507923H9.63505C9.7542 0.507923 9.82226 0.550519 9.83969 0.635861L15.6457 16.92C15.6968 17.0905 15.6457 17.1759 15.4923 17.1757H12.1671C12.11 17.1821 12.0526 17.1674 12.0055 17.1344C11.9585 17.1015 11.925 17.0525 11.9114 16.9967L10.607 13.204ZM5.61938 10.0493H9.66067L9.60303 9.85915L9.51054 9.55799L9.37515 9.12667L9.11526 8.31242L8.86772 7.5299L8.4072 6.07195C8.27996 5.66949 8.15782 5.26544 8.04082 4.85989L7.91005 4.39878L7.76886 3.89343L7.63987 3.42473H7.61426C7.48634 4.03868 7.33049 4.64648 7.14719 5.24624L6.97442 5.80073L6.55888 7.14118L6.34829 7.82406C6.31016 7.94738 6.27233 8.06936 6.23435 8.18985L6.12115 8.547L6.00856 8.89581L5.89656 9.23599L5.78515 9.56767C5.72975 9.73151 5.67434 9.89191 5.61938 10.0493ZM25.0585 11.7478H20.0198C20.0815 12.2463 20.247 12.7264 20.5057 13.1569C20.7917 13.5833 21.1962 13.9167 21.6694 14.1161C22.3107 14.3936 23.0043 14.5295 23.7028 14.5147C24.2571 14.504 24.8093 14.4434 25.3526 14.3335C25.8386 14.268 26.3148 14.1438 26.771 13.9639C26.8562 13.896 26.899 13.9383 26.899 14.0917V16.5216C26.9032 16.5879 26.89 16.654 26.8605 16.7134C26.8313 16.7599 26.792 16.7992 26.7455 16.8286C26.2395 17.0527 25.707 17.2114 25.1608 17.3007C24.4188 17.44 23.6647 17.5042 22.9099 17.4924C21.7369 17.4924 20.7481 17.3163 19.9435 16.9644L19.866 16.9297C19.0926 16.5889 18.4095 16.0722 17.8712 15.4206C17.3683 14.8067 16.9942 14.0978 16.7713 13.3361C16.5506 12.5843 16.4387 11.8048 16.439 11.0213C16.4367 10.1658 16.5705 9.31534 16.8355 8.50187C17.0906 7.70842 17.4942 6.97066 18.0247 6.32783C18.548 5.69245 19.2024 5.17764 19.943 4.81864C20.6932 4.45225 21.58 4.32074 22.6031 4.32074C23.4516 4.29929 24.2944 4.46522 25.0714 4.80672C25.7248 5.08538 26.2999 5.51977 26.7467 6.07195C27.1657 6.61269 27.4861 7.22311 27.693 7.87514C27.8946 8.50352 27.9981 9.15919 28 9.81908C28 10.1944 27.9872 10.5355 27.9617 10.8423L27.9389 11.105L27.9151 11.3543L27.901 11.4806C27.8999 11.4895 27.8988 11.4984 27.8977 11.5073C27.891 11.5637 27.8639 11.6156 27.8215 11.6534C27.7791 11.6911 27.7243 11.7119 27.6676 11.7119L27.5974 11.7134L27.51 11.7179L27.4419 11.7228L27.2829 11.7364L27.1432 11.7502C27.1052 11.7542 27.0657 11.758 27.0248 11.7614L26.898 11.7714L26.7626 11.7803L26.6189 11.7877L26.4667 11.7941L26.3873 11.7968L26.2224 11.8013C26.0593 11.8053 25.8922 11.7952 25.7208 11.7827L25.4608 11.7636C25.3269 11.7538 25.1927 11.7485 25.0585 11.7478ZM20.0199 9.41769H23.503L23.7997 9.41576L24.0013 9.41293L24.1319 9.40995L24.2785 9.40488C24.4097 9.39178 24.5363 9.34982 24.6493 9.28201V9.1286C24.6442 8.92856 24.6098 8.73035 24.5472 8.5403C24.4092 8.10392 24.1317 7.7249 23.7575 7.46149C23.3832 7.19807 22.9328 7.06482 22.4754 7.0822C22.045 7.05616 21.6162 7.15597 21.2415 7.36945C20.8668 7.58293 20.5623 7.90085 20.3651 8.28442C20.1899 8.64123 20.0733 9.0238 20.0199 9.41769Z" fill="#9999FF"/>
</svg>
