<svg width="22" height="18" viewBox="0 0 22 18" fill="none" xmlns="http://www.w3.org/2000/svg">
<path d="M0 17.2449V0.816767C0 0.704962 0.0478956 0.641201 0.159701 0.641201L0.391395 0.640752L0.570704 0.639256L0.697177 0.636861L0.831883 0.633418L0.976617 0.62833L1.0537 0.625186C1.19738 0.619199 1.34332 0.615458 1.49224 0.612314L1.94949 0.602735C2.00143 0.601537 2.05396 0.60019 2.1068 0.598544L2.26695 0.593306C2.41063 0.587917 2.55791 0.584325 2.70878 0.581332L3.17172 0.5731L3.49217 0.566065L3.65606 0.561276C3.98594 0.550799 4.30879 0.547206 4.62924 0.546009L5.10879 0.54541C6.41798 0.54541 7.50356 0.704962 8.39771 1.04023C9.19914 1.31241 9.92992 1.75963 10.537 2.34942C11.0515 2.86554 11.4489 3.48624 11.7025 4.16945C11.942 4.83998 12.0696 5.52653 12.0696 6.24496C12.0696 7.61791 11.7504 8.75139 11.1117 9.64553C10.4731 10.5395 9.57908 11.2101 8.54139 11.5932C7.49189 11.9791 6.33806 12.1261 5.07976 12.1355H4.6234L4.44574 12.1337L4.33184 12.131L4.26479 12.1282L4.20462 12.1246L4.15088 12.1201C4.11642 12.1167 4.08189 12.1141 4.04731 12.1123L3.96948 12.1089L3.88417 12.1066L3.74183 12.1047L3.46448 12.1041V17.2289C3.48035 17.3407 3.40057 17.4365 3.28877 17.4525H0.191582C0.0639108 17.4525 0 17.3886 0 17.2449ZM3.48035 3.72237V9.08666L3.66804 9.10013C3.81277 9.1112 3.95784 9.11739 4.10299 9.11869H4.94924C5.57188 9.11869 6.19452 9.0229 6.78513 8.83131C7.29612 8.68763 7.74304 8.38424 8.09432 7.98506C8.42959 7.58603 8.58929 7.04317 8.58929 6.34075C8.6043 5.84182 8.4769 5.34892 8.22199 4.91976C7.96201 4.52208 7.5992 4.21225 7.16201 4.03249L7.10453 4.00974C6.51377 3.77027 5.87512 3.67448 5.2206 3.69049L4.8515 3.69094L4.67803 3.69199L4.51234 3.69423L4.35504 3.69783C4.27841 3.69992 4.20492 3.70276 4.13502 3.70651C4.10071 3.70479 4.06638 3.70339 4.03204 3.70232L3.9364 3.70022C3.92144 3.70005 3.90647 3.69995 3.8915 3.69992L3.80679 3.70037L3.72985 3.70246L3.69423 3.70396L3.62882 3.7077L3.57135 3.71219L3.54546 3.71459L3.50011 3.71983L3.48035 3.72237ZM14.3047 4.6484H17.0987C17.2494 4.6484 17.3718 4.74808 17.4252 4.88024L17.4339 4.90389C17.4818 5.03156 17.5137 5.15923 17.5297 5.30292C17.5616 5.46262 17.5936 5.63819 17.6095 5.79789L17.623 5.95235C17.6334 6.08421 17.6415 6.22446 17.6415 6.37263C18.0987 5.8388 18.647 5.39036 19.261 5.04818L19.3497 4.99968C20.0842 4.58449 20.9303 4.37704 21.7764 4.37704C21.8882 4.36103 21.984 4.4408 22 4.55261V7.72972C22 7.85739 21.9201 7.90529 21.7445 7.90529C21.2081 7.89032 20.6579 7.93118 20.1325 8.04044L20.0203 8.06499C19.5573 8.16078 19.1103 8.30446 18.6792 8.49605C18.3758 8.63973 18.0884 8.83131 17.865 9.08666V17.2289C17.865 17.3886 17.8011 17.4525 17.6574 17.4525H14.5123C14.3846 17.4683 14.2728 17.3886 14.2568 17.2609V8.35236C14.2568 7.9692 14.2568 7.57002 14.2409 7.15497L14.2314 6.84365L14.2185 6.22101C14.216 6.11714 14.213 6.01342 14.2089 5.90969C14.2089 5.5424 14.177 5.19126 14.1452 4.82397C14.1291 4.74419 14.177 4.66441 14.2568 4.6484C14.2568 4.63478 14.2803 4.63283 14.2971 4.64241L14.3047 4.6484Z" fill="#9999FF"/>
</svg>
