<svg width="420" height="240" viewBox="0 0 420 240" fill="none" xmlns="http://www.w3.org/2000/svg">
<path d="M29.3991 36.8797C33.7368 34.544 38.6943 33.3881 44.2714 33.3881C50.7542 33.3881 56.6292 34.9849 61.8846 38.1787C67.1399 41.3724 71.299 45.9247 74.3497 51.8116C77.4123 57.6986 78.9377 64.5389 78.9377 72.2968C78.9377 80.0547 77.4123 86.9427 74.3497 92.925C71.287 98.9073 67.128 103.543 61.8846 106.832C56.6292 110.121 50.7661 111.766 44.2714 111.766C38.6943 111.766 33.7845 110.622 29.5421 108.334C25.2996 106.046 21.8437 103.174 19.1982 99.6938V146.694H0V34.6155H19.1862V45.5791C21.6531 42.1113 25.0613 39.2035 29.3991 36.8797ZM56.5339 60.4514C54.6629 57.1147 52.1961 54.5883 49.1335 52.8484C46.0708 51.1085 42.7579 50.2386 39.1948 50.2386C35.6316 50.2386 32.4617 51.1324 29.3991 52.908C26.3364 54.6955 23.8696 57.2696 21.9986 60.654C20.1277 64.0384 19.1862 68.0067 19.1862 72.5709C19.1862 77.1351 20.1277 81.1153 21.9986 84.4878C23.8696 87.8722 26.3364 90.4463 29.3991 92.2338C32.4617 94.0214 35.7269 94.9032 39.1948 94.9032C42.6626 94.9032 46.0708 93.9856 49.1335 92.1623C52.1961 90.339 54.6629 87.7292 56.5339 84.3567C58.4048 80.9723 59.3463 76.9563 59.3463 72.2968C59.3463 67.6373 58.4048 63.7762 56.5339 60.4395V60.4514Z" fill="#143021"/>
<path d="M94.2152 22.3526C91.9748 20.2075 90.8546 17.5382 90.8546 14.3325C90.8546 11.1269 91.9748 8.45746 94.2152 6.31242C96.4556 4.16737 99.268 3.09485 102.64 3.09485C106.013 3.09485 108.825 4.16737 111.066 6.31242C113.306 8.45746 114.426 11.1269 114.426 14.3325C114.426 17.5382 113.306 20.2075 111.066 22.3526C108.825 24.4976 106.013 25.5702 102.64 25.5702C99.268 25.5702 96.4556 24.4976 94.2152 22.3526ZM112.102 34.6151V110.538H92.9162V34.6151H112.102Z" fill="#143021"/>
<path d="M195.008 42.0874C200.586 47.7956 203.362 55.7681 203.362 66.0047V110.55H184.176V68.6145C184.176 62.5845 182.663 57.9489 179.648 54.7075C176.633 51.4661 172.521 49.8453 167.314 49.8453C162.106 49.8453 157.828 51.4661 154.777 54.7075C151.714 57.9489 150.189 62.5845 150.189 68.6145V110.55H131.003V34.6155H150.189V44.0776C152.751 40.7885 156.016 38.2025 159.985 36.3316C163.953 34.4606 168.327 33.5192 173.069 33.5192C182.114 33.5192 189.419 36.3792 194.997 42.0874H195.008Z" fill="#143021"/>
<path d="M291.631 78.3387H236.122C236.575 83.8205 238.493 88.1106 241.878 91.2209C245.262 94.3312 249.409 95.8804 254.343 95.8804C261.469 95.8804 266.534 92.8178 269.561 86.7044H290.249C288.056 94.0095 283.849 100.016 277.641 104.723C271.432 109.43 263.793 111.778 254.748 111.778C247.443 111.778 240.889 110.157 235.085 106.915C229.282 103.674 224.765 99.0861 221.512 93.1395C218.27 87.2049 216.65 80.3527 216.65 72.5828C216.65 64.813 218.247 57.8297 221.44 51.8831C224.634 45.9485 229.115 41.3724 234.871 38.1787C240.627 34.9849 247.252 33.3881 254.748 33.3881C262.244 33.3881 268.429 34.9373 274.137 38.0476C279.845 41.1579 284.278 45.5672 287.424 51.2754C290.582 56.9836 292.155 63.5379 292.155 70.9383C292.155 73.6792 291.977 76.146 291.607 78.3387H291.631ZM272.302 65.4565C272.206 60.5229 270.431 56.5665 266.963 53.5992C263.495 50.6319 259.241 49.1422 254.224 49.1422C249.469 49.1422 245.477 50.5842 242.235 53.4562C238.994 56.3401 237.004 60.3322 236.277 65.4446H272.314L272.302 65.4565Z" fill="#143021"/>
<path d="M324.248 22.3526C322.007 20.2075 320.887 17.5382 320.887 14.3325C320.887 11.1269 322.007 8.45746 324.248 6.31242C326.488 4.16737 329.3 3.09485 332.673 3.09485C336.045 3.09485 338.858 4.16737 341.098 6.31242C343.338 8.45746 344.459 11.1269 344.459 14.3325C344.459 17.5382 343.338 20.2075 341.098 22.3526C338.858 24.4976 336.045 25.5702 332.673 25.5702C329.3 25.5702 326.488 24.4976 324.248 22.3526ZM342.135 34.6151V110.538H322.949V34.6151H342.135Z" fill="#143021"/>
<path d="M373.381 108.417C368.447 106.176 364.539 103.137 361.667 99.3002C358.783 95.4629 357.21 91.2205 356.936 86.561H376.265C376.634 89.4806 378.064 91.8997 380.579 93.8303C383.093 95.7489 386.216 96.7023 389.969 96.7023C393.723 96.7023 396.476 95.9753 398.538 94.5095C400.587 93.0438 401.624 91.1728 401.624 88.8967C401.624 86.4299 400.373 84.5827 397.858 83.3434C395.344 82.1159 391.352 80.7574 385.87 79.3036C380.209 77.9331 375.574 76.515 371.963 75.0611C368.352 73.5953 365.242 71.3669 362.644 68.3519C360.034 65.3369 358.735 61.2733 358.735 56.1609C358.735 51.9542 359.951 48.117 362.37 44.6492C364.789 41.1813 368.269 38.4404 372.785 36.4265C377.302 34.4125 382.629 33.4115 388.754 33.4115C397.799 33.4115 405.02 35.6757 410.407 40.1922C415.793 44.7207 418.773 50.8102 419.321 58.4847H400.957C400.683 55.4697 399.431 53.0744 397.191 51.2869C394.951 49.4993 391.96 48.6175 388.218 48.6175C384.75 48.6175 382.068 49.261 380.198 50.5361C378.327 51.8112 377.385 53.5988 377.385 55.8868C377.385 58.4489 378.66 60.3914 381.222 61.7142C383.784 63.037 387.753 64.3836 393.151 65.754C398.633 67.1245 403.161 68.5426 406.713 69.9964C410.276 71.4622 413.362 73.7145 415.96 76.7772C418.57 79.8398 419.905 83.8797 420 88.9086C420 93.294 418.785 97.2266 416.365 100.694C413.946 104.162 410.478 106.879 405.95 108.846C401.422 110.812 396.154 111.789 390.124 111.789C384.094 111.789 378.338 110.669 373.405 108.429L373.381 108.417Z" fill="#143021"/>
<path d="M80.0937 175.508H66.8063V235.664H47.346V175.508H38.7062V159.741H47.346V155.904C47.346 146.585 49.9915 139.733 55.2945 135.348C60.5976 130.962 68.5819 128.912 79.2714 129.186V145.358C74.6119 145.262 71.3705 146.049 69.5353 147.693C67.712 149.338 66.7944 152.305 66.7944 156.607V159.765H80.0817V175.531L80.0937 175.508Z" fill="#143021"/>
<path d="M93.8695 147.48C91.6292 145.335 90.509 142.665 90.509 139.46C90.509 136.254 91.6292 133.585 93.8695 131.44C96.1099 129.295 98.9223 128.222 102.295 128.222C105.667 128.222 108.48 129.295 110.72 131.44C112.96 133.585 114.081 136.254 114.081 139.46C114.081 142.665 112.96 145.335 110.72 147.48C108.48 149.625 105.667 150.697 102.295 150.697C98.9223 150.697 96.1099 149.625 93.8695 147.48ZM111.745 159.742V235.665H92.5587V159.742H111.745Z" fill="#143021"/>
<path d="M194.663 167.215C200.24 172.923 203.017 180.896 203.017 191.133V235.678H183.83V193.742C183.83 187.712 182.317 183.077 179.302 179.835C176.287 176.594 172.176 174.973 166.968 174.973C161.76 174.973 157.482 176.594 154.431 179.835C151.369 183.077 149.843 187.712 149.843 193.742V235.678H130.657V159.755H149.843V169.217C152.405 165.928 155.671 163.342 159.639 161.471C163.607 159.6 167.981 158.659 172.724 158.659C181.769 158.659 189.074 161.519 194.651 167.227L194.663 167.215Z" fill="#143021"/>
<path d="M291.273 203.466H235.764C236.217 208.948 238.136 213.238 241.52 216.348C244.905 219.459 249.052 221.008 253.985 221.008C261.112 221.008 266.176 217.945 269.203 211.832H289.891C287.698 219.137 283.492 225.143 277.283 229.85C271.074 234.558 263.435 236.905 254.391 236.905C247.085 236.905 240.531 235.284 234.728 232.043C228.924 228.802 224.408 224.214 221.154 218.267C217.913 212.332 216.292 205.48 216.292 197.71C216.292 189.941 217.889 182.957 221.083 177.011C224.276 171.076 228.757 166.5 234.513 163.306C240.269 160.112 246.895 158.516 254.391 158.516C261.886 158.516 268.071 160.065 273.779 163.175C279.488 166.285 283.921 170.695 287.067 176.403C290.225 182.111 291.798 188.665 291.798 196.066C291.798 198.807 291.619 201.274 291.25 203.466H291.273ZM271.956 190.584C271.861 185.65 270.085 181.694 266.617 178.727C263.149 175.759 258.895 174.27 253.878 174.27C249.123 174.27 245.131 175.712 241.89 178.584C238.648 181.468 236.658 185.46 235.931 190.572H271.968L271.956 190.584Z" fill="#143021"/>
<path d="M340.836 217.063C343.077 219.208 344.197 221.877 344.197 225.083C344.197 228.289 343.077 230.958 340.836 233.103C338.596 235.248 335.783 236.321 332.411 236.321C329.038 236.321 326.226 235.248 323.986 233.103C321.745 230.958 320.625 228.289 320.625 225.083C320.625 221.877 321.745 219.208 323.986 217.063C326.226 214.918 329.038 213.845 332.411 213.845C335.783 213.845 338.596 214.918 340.836 217.063ZM322.949 204.801V128.878H342.135V204.801H322.949Z" fill="#143021"/>
</svg>
