<svg width="75" height="63" viewBox="0 0 75 63" fill="none" xmlns="http://www.w3.org/2000/svg">
<path d="M13.0542 17.0674H9.15137V32.1403H13.0542V17.0674Z" fill="#317039"/>
<path d="M11.0689 14.3767L8.28864 17.0557L19.2907 27.6569L22.071 24.9779L11.0689 14.3767Z" fill="#317039"/>
<path d="M11.0021 14.3782L0 24.9794L2.7803 27.6584L13.7824 17.0572L11.0021 14.3782Z" fill="#317039"/>
<path d="M13.0542 30.1243H9.15137V45.1971H13.0542V30.1243Z" fill="#317039"/>
<path d="M11.0689 27.4335L8.28864 30.1125L19.2907 40.7138L22.071 38.0348L11.0689 27.4335Z" fill="#317039"/>
<path d="M11.0021 27.435L0 38.0363L2.7803 40.7153L13.7824 30.1141L11.0021 27.435Z" fill="#317039"/>
<path d="M13.0542 43.1812H9.15137V58.254H13.0542V43.1812Z" fill="#317039"/>
<path d="M11.0689 40.4904L8.28864 43.1694L19.2907 53.7706L22.071 51.0916L11.0689 40.4904Z" fill="#317039"/>
<path d="M11.0021 40.4919L0 51.0931L2.7803 53.7721L13.7824 43.1709L11.0021 40.4919Z" fill="#317039"/>
<path d="M39.1251 17.0674H35.2223V32.1403H39.1251V17.0674Z" fill="#317039"/>
<path d="M37.1399 14.3767L34.3596 17.0557L45.3616 27.6569L48.1419 24.9779L37.1399 14.3767Z" fill="#317039"/>
<path d="M37.073 14.3782L26.0709 24.9794L28.8512 27.6584L39.8533 17.0572L37.073 14.3782Z" fill="#317039"/>
<path d="M39.1251 3.12427H35.2223V18.1971H39.1251V3.12427Z" fill="#317039"/>
<path d="M37.1399 0.433543L34.3596 3.11255L45.3616 13.7138L48.1419 11.0348L37.1399 0.433543Z" fill="#317039"/>
<path d="M37.073 0.435044L26.0709 11.0363L28.8512 13.7153L39.8533 3.11405L37.073 0.435044Z" fill="#317039"/>
<path d="M39.1251 30.1243H35.2223V45.1971H39.1251V30.1243Z" fill="#317039"/>
<path d="M37.1399 27.4335L34.3596 30.1125L45.3616 40.7138L48.1419 38.0348L37.1399 27.4335Z" fill="#317039"/>
<path d="M37.073 27.435L26.0709 38.0363L28.8512 40.7153L39.8533 30.1141L37.073 27.435Z" fill="#317039"/>
<path d="M39.1251 43.1812H35.2223V58.254H39.1251V43.1812Z" fill="#317039"/>
<path d="M37.1399 40.4904L34.3596 43.1694L45.3616 53.7706L48.1419 51.0916L37.1399 40.4904Z" fill="#317039"/>
<path d="M37.073 40.4919L26.0709 51.0931L28.8512 53.7721L39.8533 43.1709L37.073 40.4919Z" fill="#317039"/>
<path d="M65.1961 17.0674H61.2933V32.1403H65.1961V17.0674Z" fill="#317039"/>
<path d="M63.2108 14.3767L60.4305 17.0557L71.4326 27.6569L74.2129 24.9779L63.2108 14.3767Z" fill="#317039"/>
<path d="M63.144 14.3782L52.1419 24.9794L54.9222 27.6584L65.9243 17.0572L63.144 14.3782Z" fill="#317039"/>
<path d="M65.1961 30.1243H61.2933V45.1971H65.1961V30.1243Z" fill="#317039"/>
<path d="M63.2108 27.4335L60.4305 30.1125L71.4326 40.7138L74.2129 38.0348L63.2108 27.4335Z" fill="#317039"/>
<path d="M63.144 27.435L52.1419 38.0363L54.9222 40.7153L65.9243 30.1141L63.144 27.435Z" fill="#317039"/>
<path d="M65.1961 43.1812H61.2933V58.254H65.1961V43.1812Z" fill="#317039"/>
<path d="M63.2108 40.4904L60.4305 43.1694L71.4326 53.7706L74.2129 51.0916L63.2108 40.4904Z" fill="#317039"/>
<path d="M63.144 40.4919L52.1419 51.0931L54.9222 53.7721L65.9243 43.1709L63.144 40.4919Z" fill="#317039"/>
</svg>
