<svg width="255" height="115" viewBox="0 0 255 115" fill="none" xmlns="http://www.w3.org/2000/svg">
<path d="M38.6709 16.617C40.8045 15.4681 43.2428 14.8996 45.9859 14.8996C49.1745 14.8996 52.0642 15.685 54.649 17.2559C57.2339 18.8267 59.2795 21.0658 60.78 23.9613C62.2864 26.8568 63.0366 30.2212 63.0366 34.037C63.0366 37.8527 62.2864 41.2406 60.78 44.183C59.2736 47.1254 57.228 49.4055 54.649 51.0232C52.0642 52.6409 49.1804 53.4498 45.9859 53.4498C43.2428 53.4498 40.8279 52.8871 38.7413 51.7617C36.6546 50.6363 34.9548 49.2238 33.6536 47.5122V70.6295H24.2109V15.5033H33.6477V20.8958C34.861 19.1901 36.5374 17.7599 38.6709 16.617ZM52.0173 28.2108C51.097 26.5696 49.8837 25.327 48.3774 24.4712C46.871 23.6154 45.2415 23.1876 43.489 23.1876C41.7364 23.1876 40.1773 23.6272 38.6709 24.5005C37.1646 25.3797 35.9513 26.6458 35.031 28.3104C34.1108 29.975 33.6477 31.9269 33.6477 34.1718C33.6477 36.4167 34.1108 38.3744 35.031 40.0331C35.9513 41.6978 37.1646 42.9638 38.6709 43.843C40.1773 44.7222 41.7833 45.156 43.489 45.156C45.1946 45.156 46.871 44.7046 48.3774 43.8079C49.8837 42.9111 51.097 41.6274 52.0173 39.9687C52.9375 38.304 53.4005 36.3288 53.4005 34.037C53.4005 31.7452 52.9375 29.8461 52.0173 28.2049V28.2108Z" fill="#F8EDD9"/>
<path d="M70.5507 9.47197C69.4488 8.41692 68.8978 7.10398 68.8978 5.52727C68.8978 3.95056 69.4488 2.63761 70.5507 1.58257C71.6527 0.527523 73.036 0 74.6947 0C76.3535 0 77.7368 0.527523 78.8387 1.58257C79.9406 2.63761 80.4916 3.95056 80.4916 5.52727C80.4916 7.10398 79.9406 8.41692 78.8387 9.47197C77.7368 10.527 76.3535 11.0545 74.6947 11.0545C73.036 11.0545 71.6527 10.527 70.5507 9.47197ZM79.3486 15.5033V52.8461H69.9118V15.5033H79.3486Z" fill="#F8EDD9"/>
<path d="M120.126 19.1784C122.869 21.986 124.235 25.9073 124.235 30.9422V52.852H114.798V32.2258C114.798 29.26 114.054 26.9799 112.571 25.3856C111.088 23.7913 109.066 22.9942 106.504 22.9942C103.943 22.9942 101.839 23.7913 100.338 25.3856C98.832 26.9799 98.0817 29.26 98.0817 32.2258V52.852H88.6449V15.5034H98.0817V20.1573C99.3419 18.5395 100.948 17.2676 102.9 16.3474C104.852 15.4272 107.003 14.9641 109.336 14.9641C113.784 14.9641 117.377 16.3708 120.12 19.1784H120.126Z" fill="#F8EDD9"/>
<path d="M167.65 37.0087H140.348C140.571 39.7049 141.514 41.815 143.179 43.3448C144.844 44.8746 146.883 45.6366 149.31 45.6366C152.815 45.6366 155.306 44.1302 156.795 41.1234H166.97C165.892 44.7164 163.823 47.6705 160.769 49.9857C157.715 52.301 153.958 53.4557 149.509 53.4557C145.916 53.4557 142.693 52.6585 139.838 51.0642C136.984 49.4699 134.762 47.2133 133.162 44.2885C131.568 41.3695 130.771 37.9992 130.771 34.1776C130.771 30.356 131.556 26.9213 133.127 23.9964C134.698 21.0775 136.901 18.8267 139.733 17.2559C142.564 15.685 145.822 14.8996 149.509 14.8996C153.196 14.8996 156.238 15.6616 159.046 17.1914C161.853 18.7212 164.034 20.8899 165.581 23.6975C167.134 26.5051 167.908 29.7289 167.908 33.3688C167.908 34.7169 167.82 35.9302 167.638 37.0087H167.65ZM158.143 30.6725C158.096 28.2459 157.223 26.3 155.517 24.8405C153.812 23.381 151.719 22.6483 149.251 22.6483C146.913 22.6483 144.949 23.3575 143.355 24.7701C141.761 26.1886 140.782 28.1521 140.424 30.6667H158.149L158.143 30.6725Z" fill="#F8EDD9"/>
<path d="M183.693 9.47197C182.591 8.41692 182.04 7.10398 182.04 5.52727C182.04 3.95056 182.591 2.63761 183.693 1.58257C184.795 0.527523 186.178 0 187.837 0C189.496 0 190.879 0.527523 191.981 1.58257C193.083 2.63761 193.634 3.95056 193.634 5.52727C193.634 7.10398 193.083 8.41692 191.981 9.47197C190.879 10.527 189.496 11.0545 187.837 11.0545C186.178 11.0545 184.795 10.527 183.693 9.47197ZM192.491 15.5033V52.8461H183.054V15.5033H192.491Z" fill="#F8EDD9"/>
<path d="M207.859 51.8028C205.433 50.7008 203.51 49.2062 202.097 47.3188C200.679 45.4315 199.905 43.3448 199.771 41.053H209.278C209.459 42.4891 210.163 43.6789 211.399 44.6285C212.636 45.5722 214.172 46.0411 216.018 46.0411C217.865 46.0411 219.219 45.6835 220.233 44.9626C221.241 44.2416 221.751 43.3214 221.751 42.2019C221.751 40.9886 221.135 40.0801 219.898 39.4705C218.662 38.8667 216.698 38.1986 214.002 37.4835C211.218 36.8094 208.938 36.1119 207.162 35.3968C205.386 34.6759 203.856 33.5798 202.578 32.0969C201.294 30.6139 200.656 28.6152 200.656 26.1007C200.656 24.0316 201.253 22.1443 202.443 20.4386C203.633 18.733 205.345 17.3848 207.566 16.3943C209.788 15.4037 212.408 14.9113 215.42 14.9113C219.869 14.9113 223.421 16.025 226.07 18.2465C228.72 20.4738 230.185 23.4689 230.455 27.2437H221.422C221.288 25.7607 220.672 24.5826 219.57 23.7034C218.468 22.8242 216.997 22.3905 215.157 22.3905C213.451 22.3905 212.132 22.707 211.212 23.3341C210.292 23.9613 209.829 24.8405 209.829 25.9659C209.829 27.2261 210.456 28.1815 211.716 28.8321C212.976 29.4827 214.928 30.145 217.583 30.8191C220.279 31.4932 222.507 32.1907 224.253 32.9057C226.006 33.6267 227.524 34.7345 228.802 36.2409C230.085 37.7472 230.742 39.7342 230.789 42.2077C230.789 44.3647 230.191 46.299 229.001 48.0046C227.811 49.7103 226.106 51.0467 223.878 52.0138C221.651 52.9809 219.06 53.4616 216.094 53.4616C213.129 53.4616 210.298 52.9106 207.871 51.8086L207.859 51.8028Z" fill="#F8EDD9"/>
<path d="M63.6052 84.8023H57.0698V114.39H47.4981V84.8023H43.2487V77.0477H47.4981V75.1603C47.4981 70.5768 48.7994 67.2065 51.4077 65.0495C54.016 62.8925 57.9431 61.8843 63.2007 62.0192V69.973C60.909 69.9261 59.3147 70.313 58.412 71.1219C57.5152 71.9307 57.0639 73.3902 57.0639 75.5062V77.0594H63.5993V84.814L63.6052 84.8023Z" fill="#F8EDD9"/>
<path d="M70.3811 71.0163C69.2791 69.9612 68.7281 68.6483 68.7281 67.0716C68.7281 65.4949 69.2791 64.1819 70.3811 63.1269C71.483 62.0718 72.8663 61.5443 74.525 61.5443C76.1838 61.5443 77.5671 62.0718 78.669 63.1269C79.771 64.1819 80.3219 65.4949 80.3219 67.0716C80.3219 68.6483 79.771 69.9612 78.669 71.0163C77.5671 72.0713 76.1838 72.5988 74.525 72.5988C72.8663 72.5988 71.483 72.0713 70.3811 71.0163ZM79.1731 77.0476V114.39H69.7363V77.0476H79.1731Z" fill="#F8EDD9"/>
<path d="M119.957 80.7227C122.7 83.5303 124.065 87.4516 124.065 92.4865V114.396H114.629V93.7701C114.629 90.8043 113.884 88.5242 112.401 86.9299C110.918 85.3356 108.896 84.5385 106.335 84.5385C103.773 84.5385 101.669 85.3356 100.169 86.9299C98.6622 88.5242 97.9119 90.8043 97.9119 93.7701V114.396H88.4751V77.0535H97.9119V81.7075C99.1721 80.0897 100.778 78.8178 102.73 77.8976C104.682 76.9773 106.833 76.5143 109.166 76.5143C113.614 76.5143 117.208 77.921 119.951 80.7286L119.957 80.7227Z" fill="#F8EDD9"/>
<path d="M167.474 98.553H140.172C140.395 101.249 141.338 103.359 143.003 104.889C144.668 106.419 146.708 107.181 149.134 107.181C152.639 107.181 155.13 105.675 156.619 102.668H166.794C165.716 106.261 163.647 109.215 160.593 111.53C157.539 113.845 153.782 115 149.333 115C145.74 115 142.517 114.203 139.662 112.609C136.808 111.014 134.586 108.758 132.986 105.833C131.392 102.914 130.595 99.5436 130.595 95.7219C130.595 91.9003 131.38 88.4656 132.951 85.5408C134.522 82.6218 136.726 80.371 139.557 78.8002C142.388 77.2293 145.647 76.4439 149.333 76.4439C153.02 76.4439 156.062 77.2059 158.87 78.7357C161.677 80.2655 163.858 82.4342 165.405 85.2418C166.959 88.0494 167.732 91.2732 167.732 94.9131C167.732 96.2612 167.644 97.4745 167.463 98.553H167.474ZM157.973 92.2168C157.926 89.7902 157.053 87.8443 155.347 86.3848C153.641 84.9253 151.549 84.1926 149.081 84.1926C146.743 84.1926 144.779 84.9019 143.185 86.3144C141.591 87.7329 140.612 89.6965 140.254 92.211H157.979L157.973 92.2168Z" fill="#F8EDD9"/>
<path d="M191.852 105.241C192.954 106.296 193.505 107.609 193.505 109.186C193.505 110.762 192.954 112.075 191.852 113.13C190.75 114.185 189.367 114.713 187.708 114.713C186.049 114.713 184.666 114.185 183.564 113.13C182.462 112.075 181.911 110.762 181.911 109.186C181.911 107.609 182.462 106.296 183.564 105.241C184.666 104.186 186.049 103.658 187.708 103.658C189.367 103.658 190.75 104.186 191.852 105.241ZM183.054 99.2095V61.8667H192.491V99.2095H183.054Z" fill="#F8EDD9"/>
</svg>
