<svg width="121" height="48" viewBox="0 0 121 48" fill="none" xmlns="http://www.w3.org/2000/svg">
<path d="M14.2682 30.8641H9.96814V47.88H14.2682V30.8641Z" fill="#317039"/>
<path d="M12.1052 27.7765L9.06458 30.8171L21.0966 42.8491L24.1372 39.8085L12.1052 27.7765Z" fill="#317039"/>
<path d="M12.032 27.7781L0 39.8102L3.04059 42.8508L15.0726 30.8187L12.032 27.7781Z" fill="#317039"/>
<path d="M14.2682 16.9758H9.96814V33.9917H14.2682V16.9758Z" fill="#317039"/>
<path d="M12.1053 13.8882L9.0647 16.9288L21.0967 28.9609L24.1373 25.9203L12.1053 13.8882Z" fill="#317039"/>
<path d="M12.0322 13.89L0.00012207 25.922L3.04071 28.9626L15.0727 16.9305L12.0322 13.89Z" fill="#317039"/>
<path d="M14.2682 3.08752H9.96814V20.1034H14.2682V3.08752Z" fill="#317039"/>
<path d="M12.1054 6.31981e-05L9.06482 3.04065L21.0969 15.0727L24.1374 12.0321L12.1054 6.31981e-05Z" fill="#317039"/>
<path d="M12.0323 0.00171619L0.000244141 12.0338L3.04083 15.0743L15.0729 3.0423L12.0323 0.00171619Z" fill="#317039"/>
<path d="M41.0204 6.91778C41.9086 6.43951 42.9237 6.20282 44.0657 6.20282C45.3931 6.20282 46.5961 6.5298 47.6722 7.18375C48.7483 7.83771 49.5999 8.76984 50.2246 9.97526C50.8517 11.1807 51.164 12.5813 51.164 14.1698C51.164 15.7584 50.8517 17.1688 50.2246 18.3937C49.5975 19.6187 48.7459 20.5679 47.6722 21.2414C46.5961 21.9148 45.3956 22.2516 44.0657 22.2516C42.9237 22.2516 41.9184 22.0173 41.0497 21.5488C40.181 21.0803 39.4734 20.4922 38.9317 19.7797V29.4036H35.0006V6.45415H38.9292V8.69907C39.4343 7.989 40.1322 7.3936 41.0204 6.91778ZM46.5766 11.7444C46.1935 11.0611 45.6884 10.5438 45.0613 10.1876C44.4342 9.8313 43.7558 9.65317 43.0262 9.65317C42.2966 9.65317 41.6475 9.83618 41.0204 10.1998C40.3933 10.5658 39.8882 11.0928 39.5051 11.7858C39.122 12.4788 38.9292 13.2914 38.9292 14.226C38.9292 15.1605 39.122 15.9755 39.5051 16.6661C39.8882 17.3591 40.3933 17.8862 41.0204 18.2522C41.6475 18.6182 42.3161 18.7988 43.0262 18.7988C43.7363 18.7988 44.4342 18.6109 45.0613 18.2375C45.6884 17.8642 46.1935 17.3298 46.5766 16.6393C46.9597 15.9463 47.1525 15.1239 47.1525 14.1698C47.1525 13.2158 46.9597 12.4252 46.5766 11.7419V11.7444Z" fill="#143021"/>
<path d="M54.2923 3.94325C53.8336 3.50403 53.6042 2.95744 53.6042 2.30104C53.6042 1.64465 53.8336 1.09806 54.2923 0.658836C54.751 0.219612 55.3269 0 56.0175 0C56.708 0 57.2839 0.219612 57.7427 0.658836C58.2014 1.09806 58.4308 1.64465 58.4308 2.30104C58.4308 2.95744 58.2014 3.50403 57.7427 3.94325C57.2839 4.38248 56.708 4.60209 56.0175 4.60209C55.3269 4.60209 54.751 4.38248 54.2923 3.94325ZM57.9549 6.45415V22.0002H54.0263V6.45415H57.9549Z" fill="#143021"/>
<path d="M74.931 7.98413C76.0729 9.15295 76.6415 10.7854 76.6415 12.8815V22.0027H72.7129V13.4159C72.7129 12.1812 72.403 11.2319 71.7856 10.5682C71.1683 9.90451 70.3264 9.57266 69.2601 9.57266C68.1938 9.57266 67.3177 9.90451 66.6931 10.5682C66.066 11.2319 65.7536 12.1812 65.7536 13.4159V22.0027H61.825V6.45417H65.7536V8.39163C66.2783 7.71816 66.9468 7.18865 67.7594 6.80555C68.572 6.42245 69.4675 6.22968 70.4387 6.22968C72.2907 6.22968 73.7865 6.81531 74.9285 7.98413H74.931Z" fill="#143021"/>
<path d="M94.7156 15.407H83.3494C83.4421 16.5295 83.835 17.4079 84.528 18.0448C85.221 18.6817 86.0702 18.9989 87.0804 18.9989C88.5396 18.9989 89.5766 18.3718 90.1964 17.12H94.4325C93.9835 18.6158 93.1221 19.8456 91.8508 20.8094C90.5795 21.7733 89.0154 22.254 87.1633 22.254C85.6675 22.254 84.3255 21.9221 83.1371 21.2584C81.9488 20.5947 81.024 19.6553 80.3578 18.4376C79.6941 17.2225 79.3622 15.8194 79.3622 14.2284C79.3622 12.6374 79.6892 11.2075 80.3432 9.9899C80.9971 8.77472 81.9146 7.83771 83.0932 7.18375C84.2718 6.5298 85.6285 6.20282 87.1633 6.20282C88.6982 6.20282 89.9646 6.52004 91.1334 7.15691C92.3023 7.79379 93.21 8.69663 93.8542 9.86546C94.5008 11.0343 94.8229 12.3764 94.8229 13.8917C94.8229 14.4529 94.7863 14.958 94.7107 15.407H94.7156ZM90.7577 12.7692C90.7381 11.759 90.3746 10.9489 89.6645 10.3413C88.9544 9.73369 88.0833 9.42867 87.056 9.42867C86.0824 9.42867 85.2649 9.72393 84.6012 10.312C83.9375 10.9025 83.53 11.72 83.3811 12.7668H90.7601L90.7577 12.7692Z" fill="#143021"/>
<path d="M101.394 3.94325C100.935 3.50403 100.706 2.95744 100.706 2.30104C100.706 1.64465 100.935 1.09806 101.394 0.658836C101.853 0.219612 102.429 0 103.119 0C103.81 0 104.386 0.219612 104.845 0.658836C105.303 1.09806 105.533 1.64465 105.533 2.30104C105.533 2.95744 105.303 3.50403 104.845 3.94325C104.386 4.38248 103.81 4.60209 103.119 4.60209C102.429 4.60209 101.853 4.38248 101.394 3.94325ZM105.057 6.45415V22.0002H101.128V6.45415H105.057Z" fill="#143021"/>
<path d="M111.455 21.5659C110.445 21.1071 109.644 20.4849 109.056 19.6992C108.466 18.9135 108.144 18.0448 108.087 17.0907H112.045C112.121 17.6885 112.414 18.1839 112.929 18.5792C113.444 18.972 114.083 19.1672 114.852 19.1672C115.62 19.1672 116.184 19.0184 116.606 18.7183C117.026 18.4181 117.238 18.035 117.238 17.569C117.238 17.0638 116.982 16.6856 116.467 16.4319C115.952 16.1805 115.135 15.9023 114.012 15.6046C112.853 15.324 111.904 15.0337 111.164 14.736C110.425 14.4358 109.788 13.9795 109.256 13.3622C108.722 12.7448 108.456 11.9127 108.456 10.8659C108.456 10.0045 108.705 9.21882 109.2 8.50875C109.696 7.79867 110.408 7.23744 111.333 6.82506C112.258 6.41267 113.348 6.2077 114.603 6.2077C116.455 6.2077 117.933 6.67133 119.036 7.59614C120.139 8.52339 120.749 9.77029 120.862 11.3417H117.101C117.045 10.7244 116.789 10.2339 116.33 9.8679C115.871 9.50188 115.259 9.32131 114.493 9.32131C113.783 9.32131 113.234 9.45308 112.851 9.71417C112.468 9.97527 112.275 10.3413 112.275 10.8098C112.275 11.3344 112.536 11.7322 113.06 12.003C113.585 12.2739 114.398 12.5496 115.503 12.8302C116.625 13.1108 117.553 13.4012 118.28 13.6989C119.009 13.999 119.641 14.4602 120.173 15.0873C120.708 15.7145 120.981 16.5417 121.001 17.5714C121.001 18.4694 120.752 19.2746 120.256 19.9847C119.761 20.6948 119.051 21.2511 118.124 21.6537C117.196 22.0564 116.118 22.2564 114.883 22.2564C113.649 22.2564 112.47 22.0271 111.46 21.5683L111.455 21.5659Z" fill="#143021"/>
<path d="M51.4007 35.3038H48.68V47.6216H44.6952V35.3038H42.9261V32.0755H44.6952V31.2898C44.6952 29.3816 45.237 27.9786 46.3228 27.0806C47.4087 26.1826 49.0436 25.7629 51.2324 25.8191V29.1303C50.2783 29.1108 49.6145 29.2718 49.2388 29.6086C48.8654 29.9453 48.6775 30.5529 48.6775 31.4338V32.0804H51.3983V35.3087L51.4007 35.3038Z" fill="#143021"/>
<path d="M54.2215 29.5647C53.7628 29.1254 53.5334 28.5788 53.5334 27.9224C53.5334 27.266 53.7628 26.7195 54.2215 26.2802C54.6802 25.841 55.2561 25.6214 55.9467 25.6214C56.6372 25.6214 57.2131 25.841 57.6719 26.2802C58.1306 26.7195 58.36 27.266 58.36 27.9224C58.36 28.5788 58.1306 29.1254 57.6719 29.5647C57.2131 30.0039 56.6372 30.2235 55.9467 30.2235C55.2561 30.2235 54.6802 30.0039 54.2215 29.5647ZM57.8817 32.0755V47.6216H53.9531V32.0755H57.8817Z" fill="#143021"/>
<path d="M74.8602 33.6055C76.0021 34.7743 76.5707 36.4067 76.5707 38.5028V47.624H72.6421V39.0372C72.6421 37.8025 72.3322 36.8533 71.7148 36.1896C71.0975 35.5259 70.2556 35.194 69.1893 35.194C68.123 35.194 67.2469 35.5259 66.6223 36.1896C65.9952 36.8533 65.6828 37.8025 65.6828 39.0372V47.624H61.7542V32.0779H65.6828V34.0154C66.2075 33.3419 66.876 32.8124 67.6886 32.4293C68.5012 32.0462 69.3967 31.8535 70.3679 31.8535C72.2199 31.8535 73.7157 32.4391 74.8577 33.6079L74.8602 33.6055Z" fill="#143021"/>
<path d="M94.6423 41.0284H83.2762C83.3689 42.1509 83.7618 43.0293 84.4548 43.6662C85.1478 44.3031 85.9969 44.6203 87.0071 44.6203C88.4663 44.6203 89.5034 43.9932 90.1232 42.7414H94.3593C93.9103 44.2372 93.0489 45.467 91.7776 46.4308C90.5063 47.3947 88.9422 47.8754 87.0901 47.8754C85.5943 47.8754 84.2522 47.5435 83.0639 46.8798C81.8755 46.2161 80.9507 45.2767 80.2846 44.059C79.6209 42.8439 79.289 41.4408 79.289 39.8498C79.289 38.2588 79.616 36.8289 80.2699 35.6113C80.9239 34.3961 81.8414 33.4591 83.02 32.8052C84.1985 32.1512 85.5553 31.8242 87.0901 31.8242C88.6249 31.8242 89.8914 32.1414 91.0602 32.7783C92.229 33.4152 93.1367 34.318 93.7809 35.4869C94.4276 36.6557 94.7497 37.9978 94.7497 39.5131C94.7497 40.0743 94.7131 40.5794 94.6374 41.0284H94.6423ZM90.6869 38.3906C90.6673 37.3804 90.3038 36.5703 89.5937 35.9627C88.8836 35.3551 88.0125 35.0501 86.9852 35.0501C86.0116 35.0501 85.1941 35.3453 84.5304 35.9334C83.8667 36.5239 83.4592 37.3414 83.3103 38.3882H90.6893L90.6869 38.3906Z" fill="#143021"/>
<path d="M104.791 43.8126C105.25 44.2518 105.479 44.7984 105.479 45.4548C105.479 46.1112 105.25 46.6578 104.791 47.097C104.332 47.5362 103.756 47.7558 103.066 47.7558C102.375 47.7558 101.799 47.5362 101.34 47.097C100.882 46.6578 100.652 46.1112 100.652 45.4548C100.652 44.7984 100.882 44.2518 101.34 43.8126C101.799 43.3734 102.375 43.1538 103.066 43.1538C103.756 43.1538 104.332 43.3734 104.791 43.8126ZM101.128 41.3017V25.7556H105.057V41.3017H101.128Z" fill="#143021"/>
</svg>
