<svg width="100" height="100" viewBox="0 0 100 100" fill="none" xmlns="http://www.w3.org/2000/svg">
<path fill-rule="evenodd" clip-rule="evenodd" d="M25 0C38.8071 0 50 11.1929 50 25C50 11.1929 61.1929 0 75 0C88.8071 0 100 11.1929 100 25C100 38.8071 88.8071 50 75 50C88.8071 50 100 61.1929 100 75C100 88.8071 88.8071 100 75 100C61.1929 100 50 88.8071 50 75C50 88.8071 38.8071 100 25 100C11.1929 100 0 88.8071 0 75C0 61.1929 11.1929 50 25 50C11.1929 50 0 38.8071 0 25C0 11.1929 11.1929 0 25 0Z" fill="#F1BE49"/>
</svg>
